<?xml version="1.0" encoding="UTF-8" standalone="no"?><svg xmlns="http://www.w3.org/2000/svg" xmlns:xlink="http://www.w3.org/1999/xlink" clip-rule="evenodd" stroke-miterlimit="10" viewBox="0 0 453 137"><desc>SVG generated by Keynote</desc><defs></defs><g transform="matrix(1.00, 0.00, -0.00, -1.00, 0.0, 137.0)"><path d="M 1.0 105.0 L 451.0 105.0 L 451.0 32.0 L 1.0 32.0 Z M 1.1 105.3 " fill="#FEFFFE"></path><g><clipPath id="clip0x600001ebadc0"><path d="M 0.3 27.5 L 451.9 27.5 L 451.9 106.0 L 0.3 106.0 Z M 0.3 27.5 "></path></clipPath><g clip-path="url(#clip0x600001ebadc0)"><text xml:space="preserve" font-family="Helvetica,Helvetica" font-size="19.0" fill="#00415D" transform="matrix(1.00, 0.00, -0.00, -1.00, 5.1, 82.7)">h</text><text xml:space="preserve" font-family="Helvetica,Helvetica" font-size="19.0" fill="#00415D" transform="matrix(1.00, 0.00, -0.00, -1.00, 15.6, 82.7)">t</text><text xml:space="preserve" font-family="Helvetica,Helvetica" font-size="19.0" fill="#00415D" transform="matrix(1.00, 0.00, -0.00, -1.00, 20.9, 82.7)">t</text><text xml:space="preserve" font-family="Helvetica,Helvetica" font-size="19.0" fill="#00415D" transform="matrix(1.00, 0.00, -0.00, -1.00, 26.2, 82.7)">p</text><text xml:space="preserve" font-family="Helvetica,Helvetica" font-size="19.0" fill="#00415D" transform="matrix(1.00, 0.00, -0.00, -1.00, 36.7, 82.7)">:</text><text xml:space="preserve" font-family="Helvetica,Helvetica" font-size="19.0" fill="#00415D" transform="matrix(1.00, 0.00, -0.00, -1.00, 42.0, 82.7)">/</text><text xml:space="preserve" font-family="Helvetica,Helvetica" font-size="19.0" fill="#00415D" transform="matrix(1.00, 0.00, -0.00, -1.00, 47.3, 82.7)">/</text><text xml:space="preserve" font-family="Helvetica,Helvetica" font-size="19.0" fill="#00415D" transform="matrix(1.00, 0.00, -0.00, -1.00, 52.6, 82.7)">f</text><text xml:space="preserve" font-family="Helvetica,Helvetica" font-size="19.0" fill="#00415D" transform="matrix(1.00, 0.00, -0.00, -1.00, 57.8, 82.7)">a</text><text xml:space="preserve" font-family="Helvetica,Helvetica" font-size="19.0" fill="#00415D" transform="matrix(1.00, 0.00, -0.00, -1.00, 68.4, 82.7)">c</text><text xml:space="preserve" font-family="Helvetica,Helvetica" font-size="19.0" fill="#00415D" transform="matrix(1.00, 0.00, -0.00, -1.00, 77.9, 82.7)">e</text><text xml:space="preserve" font-family="Helvetica,Helvetica" font-size="19.0" fill="#00415D" transform="matrix(1.00, 0.00, -0.00, -1.00, 88.5, 82.7)">b</text><text xml:space="preserve" font-family="Helvetica,Helvetica" font-size="19.0" fill="#00415D" transform="matrix(1.00, 0.00, -0.00, -1.00, 99.1, 82.7)">o</text><text xml:space="preserve" font-family="Helvetica,Helvetica" font-size="19.0" fill="#00415D" transform="matrix(1.00, 0.00, -0.00, -1.00, 109.6, 82.7)">o</text><text xml:space="preserve" font-family="Helvetica,Helvetica" font-size="19.0" fill="#00415D" transform="matrix(1.00, 0.00, -0.00, -1.00, 120.2, 82.7)">k</text><text xml:space="preserve" font-family="Helvetica,Helvetica" font-size="19.0" fill="#00415D" transform="matrix(1.00, 0.00, -0.00, -1.00, 129.7, 82.7)">.</text><text xml:space="preserve" font-family="Helvetica,Helvetica" font-size="19.0" fill="#00415D" transform="matrix(1.00, 0.00, -0.00, -1.00, 135.0, 82.7)">c</text><text xml:space="preserve" font-family="Helvetica,Helvetica" font-size="19.0" fill="#00415D" transform="matrix(1.00, 0.00, -0.00, -1.00, 144.5, 82.7)">o</text><text xml:space="preserve" font-family="Helvetica,Helvetica" font-size="19.0" fill="#00415D" transform="matrix(1.00, 0.00, -0.00, -1.00, 155.0, 82.7)">m</text><text xml:space="preserve" font-family="Helvetica,Helvetica" font-size="19.0" fill="#00415D" transform="matrix(1.00, 0.00, -0.00, -1.00, 170.9, 82.7)">/</text><text xml:space="preserve" font-family="Helvetica,Helvetica" font-size="19.0" fill="#00415D" transform="matrix(1.00, 0.00, -0.00, -1.00, 176.1, 82.7)">C</text><text xml:space="preserve" font-family="Helvetica,Helvetica" font-size="19.0" fill="#00415D" transform="matrix(1.00, 0.00, -0.00, -1.00, 189.9, 82.7)">u</text><text xml:space="preserve" font-family="Helvetica,Helvetica" font-size="19.0" fill="#00415D" transform="matrix(1.00, 0.00, -0.00, -1.00, 200.4, 82.7)">r</text><text xml:space="preserve" font-family="Helvetica,Helvetica" font-size="19.0" fill="#00415D" transform="matrix(1.00, 0.00, -0.00, -1.00, 206.8, 82.7)">s</text><text xml:space="preserve" font-family="Helvetica,Helvetica" font-size="19.0" fill="#00415D" transform="matrix(1.00, 0.00, -0.00, -1.00, 216.3, 82.7)">o</text><text xml:space="preserve" font-family="Helvetica,Helvetica" font-size="19.0" fill="#00415D" transform="matrix(1.00, 0.00, -0.00, -1.00, 226.8, 82.7)">A</text><text xml:space="preserve" font-family="Helvetica,Helvetica" font-size="19.0" fill="#00415D" transform="matrix(1.00, 0.00, -0.00, -1.00, 239.5, 82.7)">r</text><text xml:space="preserve" font-family="Helvetica,Helvetica" font-size="19.0" fill="#00415D" transform="matrix(1.00, 0.00, -0.00, -1.00, 245.8, 82.7)">d</text><text xml:space="preserve" font-family="Helvetica,Helvetica" font-size="19.0" fill="#00415D" transform="matrix(1.00, 0.00, -0.00, -1.00, 256.4, 82.7)">u</text><text xml:space="preserve" font-family="Helvetica,Helvetica" font-size="19.0" fill="#00415D" transform="matrix(1.00, 0.00, -0.00, -1.00, 267.0, 82.7)">i</text><text xml:space="preserve" font-family="Helvetica,Helvetica" font-size="19.0" fill="#00415D" transform="matrix(1.00, 0.00, -0.00, -1.00, 271.2, 82.7)">n</text><text xml:space="preserve" font-family="Helvetica,Helvetica" font-size="19.0" fill="#00415D" transform="matrix(1.00, 0.00, -0.00, -1.00, 281.8, 82.7)">o</text><text xml:space="preserve" font-family="Helvetica,Helvetica" font-size="19.0" fill="#00415D" transform="matrix(1.00, 0.00, -0.00, -1.00, 292.3, 82.7)">M</text><text xml:space="preserve" font-family="Helvetica,Helvetica" font-size="19.0" fill="#00415D" transform="matrix(1.00, 0.00, -0.00, -1.00, 308.2, 82.7)">i</text><text xml:space="preserve" font-family="Helvetica,Helvetica" font-size="19.0" fill="#00415D" transform="matrix(1.00, 0.00, -0.00, -1.00, 312.4, 82.7)">n</text><text xml:space="preserve" font-family="Helvetica,Helvetica" font-size="19.0" fill="#00415D" transform="matrix(1.00, 0.00, -0.00, -1.00, 323.0, 82.7)">a</text><text xml:space="preserve" font-family="Helvetica,Helvetica" font-size="19.0" fill="#00415D" transform="matrix(1.00, 0.00, -0.00, -1.00, 333.5, 82.7)">s</text><path d="M 4.0 24.1 L 341.9 24.1 " fill="none" stroke="#00415D" stroke-width="0.94" transform="matrix(1.00, 0.00, 0.00, -1.00, 1.1, 105.3)"></path><text xml:space="preserve" font-family="Helvetica,Helvetica" font-size="19.0" fill="#00415D" transform="matrix(1.00, 0.00, -0.00, -1.00, 5.1, 59.7)">h</text><text xml:space="preserve" font-family="Helvetica,Helvetica" font-size="19.0" fill="#00415D" transform="matrix(1.00, 0.00, -0.00, -1.00, 15.6, 59.7)">t</text><text xml:space="preserve" font-family="Helvetica,Helvetica" font-size="19.0" fill="#00415D" transform="matrix(1.00, 0.00, -0.00, -1.00, 20.9, 59.7)">t</text><text xml:space="preserve" font-family="Helvetica,Helvetica" font-size="19.0" fill="#00415D" transform="matrix(1.00, 0.00, -0.00, -1.00, 26.2, 59.7)">p</text><text xml:space="preserve" font-family="Helvetica,Helvetica" font-size="19.0" fill="#00415D" transform="matrix(1.00, 0.00, -0.00, -1.00, 36.7, 59.7)">:</text><text xml:space="preserve" font-family="Helvetica,Helvetica" font-size="19.0" fill="#00415D" transform="matrix(1.00, 0.00, -0.00, -1.00, 42.0, 59.7)">/</text><text xml:space="preserve" font-family="Helvetica,Helvetica" font-size="19.0" fill="#00415D" transform="matrix(1.00, 0.00, -0.00, -1.00, 47.3, 59.7)">/</text><text xml:space="preserve" font-family="Helvetica,Helvetica" font-size="19.0" fill="#00415D" transform="matrix(1.00, 0.00, -0.00, -1.00, 52.6, 59.7)">f</text><text xml:space="preserve" font-family="Helvetica,Helvetica" font-size="19.0" fill="#00415D" transform="matrix(1.00, 0.00, -0.00, -1.00, 57.8, 59.7)">a</text><text xml:space="preserve" font-family="Helvetica,Helvetica" font-size="19.0" fill="#00415D" transform="matrix(1.00, 0.00, -0.00, -1.00, 68.4, 59.7)">c</text><text xml:space="preserve" font-family="Helvetica,Helvetica" font-size="19.0" fill="#00415D" transform="matrix(1.00, 0.00, -0.00, -1.00, 77.9, 59.7)">e</text><text xml:space="preserve" font-family="Helvetica,Helvetica" font-size="19.0" fill="#00415D" transform="matrix(1.00, 0.00, -0.00, -1.00, 88.5, 59.7)">b</text><text xml:space="preserve" font-family="Helvetica,Helvetica" font-size="19.0" fill="#00415D" transform="matrix(1.00, 0.00, -0.00, -1.00, 99.1, 59.7)">o</text><text xml:space="preserve" font-family="Helvetica,Helvetica" font-size="19.0" fill="#00415D" transform="matrix(1.00, 0.00, -0.00, -1.00, 109.6, 59.7)">o</text><text xml:space="preserve" font-family="Helvetica,Helvetica" font-size="19.0" fill="#00415D" transform="matrix(1.00, 0.00, -0.00, -1.00, 120.2, 59.7)">k</text><text xml:space="preserve" font-family="Helvetica,Helvetica" font-size="19.0" fill="#00415D" transform="matrix(1.00, 0.00, -0.00, -1.00, 129.7, 59.7)">.</text><text xml:space="preserve" font-family="Helvetica,Helvetica" font-size="19.0" fill="#00415D" transform="matrix(1.00, 0.00, -0.00, -1.00, 135.0, 59.7)">c</text><text xml:space="preserve" font-family="Helvetica,Helvetica" font-size="19.0" fill="#00415D" transform="matrix(1.00, 0.00, -0.00, -1.00, 144.5, 59.7)">o</text><text xml:space="preserve" font-family="Helvetica,Helvetica" font-size="19.0" fill="#00415D" transform="matrix(1.00, 0.00, -0.00, -1.00, 155.0, 59.7)">m</text><text xml:space="preserve" font-family="Helvetica,Helvetica" font-size="19.0" fill="#00415D" transform="matrix(1.00, 0.00, -0.00, -1.00, 170.9, 59.7)">/</text><text xml:space="preserve" font-family="Helvetica,Helvetica" font-size="19.0" fill="#00415D" transform="matrix(1.00, 0.00, -0.00, -1.00, 176.1, 59.7)">B</text><text xml:space="preserve" font-family="Helvetica,Helvetica" font-size="19.0" fill="#00415D" transform="matrix(1.00, 0.00, -0.00, -1.00, 188.8, 59.7)">a</text><text xml:space="preserve" font-family="Helvetica,Helvetica" font-size="19.0" fill="#00415D" transform="matrix(1.00, 0.00, -0.00, -1.00, 199.4, 59.7)">s</text><text xml:space="preserve" font-family="Helvetica,Helvetica" font-size="19.0" fill="#00415D" transform="matrix(1.00, 0.00, -0.00, -1.00, 208.9, 59.7)">i</text><text xml:space="preserve" font-family="Helvetica,Helvetica" font-size="19.0" fill="#00415D" transform="matrix(1.00, 0.00, -0.00, -1.00, 213.1, 59.7)">c</text><text xml:space="preserve" font-family="Helvetica,Helvetica" font-size="19.0" fill="#00415D" transform="matrix(1.00, 0.00, -0.00, -1.00, 222.6, 59.7)">a</text><text xml:space="preserve" font-family="Helvetica,Helvetica" font-size="19.0" fill="#00415D" transform="matrix(1.00, 0.00, -0.00, -1.00, 233.2, 59.7)">o</text><text xml:space="preserve" font-family="Helvetica,Helvetica" font-size="19.0" fill="#00415D" transform="matrix(1.00, 0.00, -0.00, -1.00, 243.8, 59.7)">D</text><text xml:space="preserve" font-family="Helvetica,Helvetica" font-size="19.0" fill="#00415D" transform="matrix(1.00, 0.00, -0.00, -1.00, 257.5, 59.7)">a</text><text xml:space="preserve" font-family="Helvetica,Helvetica" font-size="19.0" fill="#00415D" transform="matrix(1.00, 0.00, -0.00, -1.00, 268.1, 59.7)">E</text><text xml:space="preserve" font-family="Helvetica,Helvetica" font-size="19.0" fill="#00415D" transform="matrix(1.00, 0.00, -0.00, -1.00, 280.7, 59.7)">l</text><text xml:space="preserve" font-family="Helvetica,Helvetica" font-size="19.0" fill="#00415D" transform="matrix(1.00, 0.00, -0.00, -1.00, 284.9, 59.7)">e</text><text xml:space="preserve" font-family="Helvetica,Helvetica" font-size="19.0" fill="#00415D" transform="matrix(1.00, 0.00, -0.00, -1.00, 295.5, 59.7)">t</text><text xml:space="preserve" font-family="Helvetica,Helvetica" font-size="19.0" fill="#00415D" transform="matrix(1.00, 0.00, -0.00, -1.00, 300.8, 59.7)">r</text><text xml:space="preserve" font-family="Helvetica,Helvetica" font-size="19.0" fill="#00415D" transform="matrix(1.00, 0.00, -0.00, -1.00, 307.1, 59.7)">o</text><text xml:space="preserve" font-family="Helvetica,Helvetica" font-size="19.0" fill="#00415D" transform="matrix(1.00, 0.00, -0.00, -1.00, 317.7, 59.7)">n</text><text xml:space="preserve" font-family="Helvetica,Helvetica" font-size="19.0" fill="#00415D" transform="matrix(1.00, 0.00, -0.00, -1.00, 328.3, 59.7)">i</text><text xml:space="preserve" font-family="Helvetica,Helvetica" font-size="19.0" fill="#00415D" transform="matrix(1.00, 0.00, -0.00, -1.00, 332.5, 59.7)">c</text><text xml:space="preserve" font-family="Helvetica,Helvetica" font-size="19.0" fill="#00415D" transform="matrix(1.00, 0.00, -0.00, -1.00, 342.0, 59.7)">a</text><path d="M 4.0 47.1 L 351.5 47.1 " fill="none" stroke="#00415D" stroke-width="0.94" transform="matrix(1.00, 0.00, 0.00, -1.00, 1.1, 105.3)"></path></g></g><g><clipPath id="clip0x6080028a8e80"><path d="M 0.3 35.3 L 451.9 35.3 L 451.9 101.3 L 0.3 101.3 Z M 0.3 35.3 "></path></clipPath><g clip-path="url(#clip0x6080028a8e80)"><text xml:space="preserve" font-family="Helvetica,Helvetica" font-size="19.0" fill="#00415D" transform="matrix(1.00, 0.00, -0.00, -1.00, 5.1, 36.7)">h</text><text xml:space="preserve" font-family="Helvetica,Helvetica" font-size="19.0" fill="#00415D" transform="matrix(1.00, 0.00, -0.00, -1.00, 15.6, 36.7)">t</text><text xml:space="preserve" font-family="Helvetica,Helvetica" font-size="19.0" fill="#00415D" transform="matrix(1.00, 0.00, -0.00, -1.00, 20.9, 36.7)">t</text><text xml:space="preserve" font-family="Helvetica,Helvetica" font-size="19.0" fill="#00415D" transform="matrix(1.00, 0.00, -0.00, -1.00, 26.2, 36.7)">p</text><text xml:space="preserve" font-family="Helvetica,Helvetica" font-size="19.0" fill="#00415D" transform="matrix(1.00, 0.00, -0.00, -1.00, 36.7, 36.7)">:</text><text xml:space="preserve" font-family="Helvetica,Helvetica" font-size="19.0" fill="#00415D" transform="matrix(1.00, 0.00, -0.00, -1.00, 42.0, 36.7)">/</text><text xml:space="preserve" font-family="Helvetica,Helvetica" font-size="19.0" fill="#00415D" transform="matrix(1.00, 0.00, -0.00, -1.00, 47.3, 36.7)">/</text><text xml:space="preserve" font-family="Helvetica,Helvetica" font-size="19.0" fill="#00415D" transform="matrix(1.00, 0.00, -0.00, -1.00, 52.6, 36.7)">f</text><text xml:space="preserve" font-family="Helvetica,Helvetica" font-size="19.0" fill="#00415D" transform="matrix(1.00, 0.00, -0.00, -1.00, 57.8, 36.7)">a</text><text xml:space="preserve" font-family="Helvetica,Helvetica" font-size="19.0" fill="#00415D" transform="matrix(1.00, 0.00, -0.00, -1.00, 68.4, 36.7)">c</text><text xml:space="preserve" font-family="Helvetica,Helvetica" font-size="19.0" fill="#00415D" transform="matrix(1.00, 0.00, -0.00, -1.00, 77.9, 36.7)">e</text><text xml:space="preserve" font-family="Helvetica,Helvetica" font-size="19.0" fill="#00415D" transform="matrix(1.00, 0.00, -0.00, -1.00, 88.5, 36.7)">b</text><text xml:space="preserve" font-family="Helvetica,Helvetica" font-size="19.0" fill="#00415D" transform="matrix(1.00, 0.00, -0.00, -1.00, 99.1, 36.7)">o</text><text xml:space="preserve" font-family="Helvetica,Helvetica" font-size="19.0" fill="#00415D" transform="matrix(1.00, 0.00, -0.00, -1.00, 109.6, 36.7)">o</text><text xml:space="preserve" font-family="Helvetica,Helvetica" font-size="19.0" fill="#00415D" transform="matrix(1.00, 0.00, -0.00, -1.00, 120.2, 36.7)">k</text><text xml:space="preserve" font-family="Helvetica,Helvetica" font-size="19.0" fill="#00415D" transform="matrix(1.00, 0.00, -0.00, -1.00, 129.7, 36.7)">.</text><text xml:space="preserve" font-family="Helvetica,Helvetica" font-size="19.0" fill="#00415D" transform="matrix(1.00, 0.00, -0.00, -1.00, 135.0, 36.7)">c</text><text xml:space="preserve" font-family="Helvetica,Helvetica" font-size="19.0" fill="#00415D" transform="matrix(1.00, 0.00, -0.00, -1.00, 144.5, 36.7)">o</text><text xml:space="preserve" font-family="Helvetica,Helvetica" font-size="19.0" fill="#00415D" transform="matrix(1.00, 0.00, -0.00, -1.00, 155.0, 36.7)">m</text><text xml:space="preserve" font-family="Helvetica,Helvetica" font-size="19.0" fill="#00415D" transform="matrix(1.00, 0.00, -0.00, -1.00, 170.9, 36.7)">/</text><text xml:space="preserve" font-family="Helvetica,Helvetica" font-size="19.0" fill="#00415D" transform="matrix(1.00, 0.00, -0.00, -1.00, 176.1, 36.7)">T</text><text xml:space="preserve" font-family="Helvetica,Helvetica" font-size="19.0" fill="#00415D" transform="matrix(1.00, 0.00, -0.00, -1.00, 185.6, 36.7)">e</text><text xml:space="preserve" font-family="Helvetica,Helvetica" font-size="19.0" fill="#00415D" transform="matrix(1.00, 0.00, -0.00, -1.00, 196.2, 36.7)">l</text><text xml:space="preserve" font-family="Helvetica,Helvetica" font-size="19.0" fill="#00415D" transform="matrix(1.00, 0.00, -0.00, -1.00, 200.4, 36.7)">e</text><text xml:space="preserve" font-family="Helvetica,Helvetica" font-size="19.0" fill="#00415D" transform="matrix(1.00, 0.00, -0.00, -1.00, 211.0, 36.7)">f</text><text xml:space="preserve" font-family="Helvetica,Helvetica" font-size="19.0" fill="#00415D" transform="matrix(1.00, 0.00, -0.00, -1.00, 216.3, 36.7)">o</text><text xml:space="preserve" font-family="Helvetica,Helvetica" font-size="19.0" fill="#00415D" transform="matrix(1.00, 0.00, -0.00, -1.00, 226.9, 36.7)">n</text><text xml:space="preserve" font-family="Helvetica,Helvetica" font-size="19.0" fill="#00415D" transform="matrix(1.00, 0.00, -0.00, -1.00, 237.4, 36.7)">i</text><text xml:space="preserve" font-family="Helvetica,Helvetica" font-size="19.0" fill="#00415D" transform="matrix(1.00, 0.00, -0.00, -1.00, 241.6, 36.7)">a</text><text xml:space="preserve" font-family="Helvetica,Helvetica" font-size="19.0" fill="#00415D" transform="matrix(1.00, 0.00, -0.00, -1.00, 252.2, 36.7)">E</text><text xml:space="preserve" font-family="Helvetica,Helvetica" font-size="19.0" fill="#00415D" transform="matrix(1.00, 0.00, -0.00, -1.00, 264.9, 36.7)">A</text><text xml:space="preserve" font-family="Helvetica,Helvetica" font-size="19.0" fill="#00415D" transform="matrix(1.00, 0.00, -0.00, -1.00, 277.6, 36.7)">u</text><text xml:space="preserve" font-family="Helvetica,Helvetica" font-size="19.0" fill="#00415D" transform="matrix(1.00, 0.00, -0.00, -1.00, 288.1, 36.7)">t</text><text xml:space="preserve" font-family="Helvetica,Helvetica" font-size="19.0" fill="#00415D" transform="matrix(1.00, 0.00, -0.00, -1.00, 293.4, 36.7)">o</text><text xml:space="preserve" font-family="Helvetica,Helvetica" font-size="19.0" fill="#00415D" transform="matrix(1.00, 0.00, -0.00, -1.00, 304.0, 36.7)">m</text><text xml:space="preserve" font-family="Helvetica,Helvetica" font-size="19.0" fill="#00415D" transform="matrix(1.00, 0.00, -0.00, -1.00, 319.8, 36.7)">a</text><text xml:space="preserve" font-family="Helvetica,Helvetica" font-size="19.0" fill="#00415D" transform="matrix(1.00, 0.00, -0.00, -1.00, 330.4, 36.7)">c</text><text xml:space="preserve" font-family="Helvetica,Helvetica" font-size="19.0" fill="#00415D" transform="matrix(1.00, 0.00, -0.00, -1.00, 339.9, 36.7)">a</text><text xml:space="preserve" font-family="Helvetica,Helvetica" font-size="19.0" fill="#00415D" transform="matrix(1.00, 0.00, -0.00, -1.00, 350.5, 36.7)">o</text><path d="M 4.0 70.1 L 359.9 70.1 " fill="none" stroke="#00415D" stroke-width="0.94" transform="matrix(1.00, 0.00, 0.00, -1.00, 1.1, 105.3)"></path></g></g><image xlink:href="258C19AB097F0A00AB199D104CAE94D1.png" width="1876.00" height="128.00" transform="matrix(0.24, 0.00, -0.00, -0.24, 1.1, 31.5)"></image></g></svg>