<?xml version="1.0" encoding="UTF-8" standalone="no"?><svg xmlns="http://www.w3.org/2000/svg" xmlns:xlink="http://www.w3.org/1999/xlink" clip-rule="evenodd" stroke-miterlimit="10" viewBox="0 0 350 209"><desc>SVG generated by Keynote</desc><defs><linearGradient id="gradSh1.2" x1="0.0" y1="0.0" x2="100.0" y2="0.0" gradientUnits="userSpaceOnUse" gradientTransform="matrix(0.00, -0.52, -1.03, 0.00, 175.2, 130.4)"><stop offset="0.00000" stop-color="#4EB0E0"></stop><stop offset="0.00733" stop-color="#4DAFE0"></stop><stop offset="1.00000" stop-color="#0365C0"></stop></linearGradient></defs><g transform="matrix(1.00, 0.00, -0.00, -1.00, 0.0, 209.0)"><image xlink:href="2604EC136EC7DE674127DA7A02A76FEE.png" width="347.00" height="150.00" transform="matrix(1.00, 0.00, -0.00, -1.00, 1.8, 151.4)" opacity="0.75"></image><g><clipPath id="clip0x6080028a9480"><path d="M 124.8 129.4 L 225.7 129.4 L 225.7 79.4 L 124.8 79.4 Z M 124.8 129.4 "></path></clipPath><g clip-path="url(#clip0x6080028a9480)"><path d="M 124.8 129.4 L 225.7 129.4 L 225.7 79.4 L 124.8 79.4 Z M 124.8 129.4 " fill="url(#gradSh1.2)"></path></g></g><path d="M 228.6 92.5 C 228.5 92.3 228.5 92.1 228.5 91.6 C 228.5 91.8 228.4 92.0 228.3 92.0 C 228.4 92.3 228.4 92.8 228.4 93.5 C 228.5 93.5 228.4 93.1 228.5 92.9 C 228.5 92.6 228.5 92.6 228.6 92.5 C 228.6 92.5 228.6 92.5 228.6 92.5 Z M 160.9 76.9 C 161.5 76.9 160.8 76.8 160.5 76.7 C 160.5 76.8 160.5 76.8 160.3 76.8 C 160.2 76.7 160.7 76.6 161.1 76.6 C 162.7 76.6 161.6 76.9 160.9 76.9 C 160.9 76.9 160.9 76.9 160.9 76.9 Z M 122.4 116.1 C 122.4 117.4 122.6 116.1 122.7 115.9 C 122.7 116.5 123.0 116.1 123.0 116.8 C 122.9 116.9 122.9 117.2 122.8 117.3 C 122.8 117.0 122.8 116.5 122.7 116.5 C 122.7 116.9 122.7 117.5 122.7 117.6 C 122.6 116.6 122.5 117.4 122.4 117.5 C 122.4 116.7 122.2 116.3 122.4 116.1 C 122.4 116.1 122.4 116.1 122.4 116.1 Z M 174.4 131.4 C 174.1 131.4 173.7 131.4 173.8 131.3 C 174.2 131.3 174.4 131.3 174.7 131.4 C 174.7 131.3 174.5 131.2 174.8 131.2 C 175.3 131.3 175.2 131.6 175.1 131.7 C 175.0 131.5 173.7 131.6 174.4 131.4 C 174.4 131.4 174.4 131.4 174.4 131.4 Z M 206.0 131.1 C 207.2 131.2 205.9 130.8 207.0 130.9 C 207.1 131.1 207.4 131.3 206.7 131.3 C 206.6 131.2 206.2 131.2 206.0 131.1 C 206.0 131.1 206.0 131.1 206.0 131.1 Z M 123.8 84.6 C 123.7 84.5 123.7 85.3 123.6 85.0 C 123.6 84.6 123.6 84.2 123.6 83.8 C 123.7 83.9 123.8 84.1 123.8 84.6 C 123.8 84.6 123.8 84.6 123.8 84.6 Z M 124.2 124.9 C 124.0 126.2 124.2 127.6 124.1 127.2 C 123.9 127.7 123.5 126.2 123.7 126.3 C 123.9 126.2 124.1 123.9 124.2 124.9 C 124.2 124.9 124.2 124.9 124.2 124.9 Z M 155.4 80.0 C 154.1 79.9 154.6 80.4 153.6 80.2 C 153.9 80.2 154.0 80.1 154.1 80.0 C 153.9 80.0 153.6 80.0 153.5 80.0 C 154.1 80.0 154.8 79.9 155.4 80.0 C 155.4 80.0 155.4 80.0 155.4 80.0 Z M 228.2 113.4 C 228.2 113.6 228.2 113.7 228.3 113.7 C 228.2 114.7 228.4 114.7 228.3 115.2 C 228.0 115.2 228.1 114.4 228.2 113.7 C 228.1 113.6 228.1 113.4 228.2 113.4 C 228.2 113.4 228.2 113.4 228.2 113.4 Z M 219.9 131.2 C 220.1 131.4 220.6 131.4 219.8 131.5 C 218.7 131.3 219.4 131.1 220.2 131.0 C 220.2 130.9 220.1 130.8 220.0 130.8 C 219.6 130.8 219.4 130.7 219.1 130.7 C 219.2 131.0 218.1 130.5 216.8 130.6 C 217.4 130.5 216.5 130.3 217.5 130.4 C 217.1 130.2 217.7 130.2 217.5 130.1 C 217.2 130.2 216.2 130.2 216.6 130.4 C 216.1 130.4 215.7 130.4 215.4 130.3 C 214.9 130.1 216.3 130.3 215.8 130.1 C 215.5 130.1 215.4 130.1 215.2 130.0 C 215.2 130.1 215.4 130.2 215.1 130.2 C 214.1 130.1 215.0 130.0 213.7 130.0 C 213.8 130.1 214.2 130.1 214.2 130.2 C 213.7 130.3 213.6 130.2 213.2 130.3 C 213.0 130.2 213.4 130.1 213.0 130.1 C 212.9 130.4 211.7 129.9 211.1 130.2 C 212.0 130.5 210.9 130.1 210.5 130.5 C 210.3 130.4 210.6 130.1 209.9 130.1 C 210.6 130.6 207.9 130.4 210.3 130.8 C 209.2 130.8 209.2 131.2 210.0 131.2 C 208.1 131.1 208.9 131.4 208.2 131.4 C 207.5 131.4 208.5 131.3 208.0 131.2 C 208.8 131.2 208.5 131.1 209.1 131.2 C 209.1 131.1 209.2 131.0 209.3 131.0 C 208.6 131.1 207.5 130.9 207.9 130.6 C 208.3 130.7 208.1 130.9 208.6 130.9 C 208.2 130.6 209.2 130.9 209.1 130.8 C 208.5 130.5 209.5 130.3 208.4 130.3 C 208.5 130.4 208.6 130.5 208.6 130.6 C 208.4 130.6 208.1 130.6 207.8 130.6 C 207.4 130.4 207.5 130.3 207.2 130.2 C 206.8 130.2 206.6 130.3 206.5 130.3 C 207.1 130.4 207.9 130.5 207.0 130.6 C 207.0 130.2 205.6 130.5 206.2 130.3 C 205.1 130.2 204.8 130.5 204.5 130.2 C 203.9 130.2 204.4 130.4 203.8 130.4 C 202.6 130.2 203.0 130.5 201.5 130.3 C 201.6 130.6 201.3 130.3 200.9 130.3 C 201.0 130.4 201.0 130.5 201.1 130.6 C 200.5 130.4 199.3 130.3 198.3 130.5 C 197.9 130.5 198.0 130.3 197.3 130.3 C 196.7 130.6 195.5 130.3 194.7 130.6 C 194.5 130.4 193.8 130.4 193.5 130.5 C 193.3 130.4 193.7 130.2 193.0 130.2 C 192.7 130.4 193.5 130.4 192.7 130.5 C 192.7 130.3 192.0 130.7 191.8 130.5 C 192.0 130.4 192.3 130.3 192.5 130.3 C 192.2 130.3 192.2 130.2 191.9 130.2 C 192.1 130.4 191.3 130.2 191.0 130.2 C 191.1 130.3 191.1 130.3 190.9 130.4 C 190.4 130.4 190.1 130.4 189.8 130.5 C 189.2 130.4 190.1 130.3 189.5 130.3 C 189.5 130.7 188.5 130.2 187.4 130.5 C 187.0 130.4 186.4 130.3 185.5 130.3 C 185.6 130.4 186.4 130.3 186.5 130.5 C 185.2 130.4 186.8 130.6 186.0 130.6 C 184.2 130.5 183.1 130.5 181.1 130.3 C 181.2 130.5 179.8 130.6 179.8 130.5 C 180.2 130.5 178.9 130.3 178.3 130.3 C 178.3 130.6 177.5 130.9 177.5 131.0 C 177.3 130.9 177.3 130.8 177.1 130.6 C 176.0 130.5 175.6 130.8 174.8 130.5 C 174.9 130.6 174.4 130.6 174.0 130.7 C 174.1 130.6 174.3 130.4 174.4 130.3 C 173.9 130.3 173.8 130.3 173.3 130.3 C 173.0 130.8 171.9 130.1 171.8 130.6 C 171.0 130.6 171.0 130.5 170.3 130.5 C 170.4 130.6 170.3 130.6 170.1 130.7 C 170.6 130.6 170.9 130.5 171.3 130.7 C 170.2 130.7 173.5 131.2 171.9 131.4 C 171.8 131.3 171.9 131.2 171.5 131.2 C 170.5 131.3 171.2 131.4 171.6 131.4 C 170.9 131.5 170.2 131.4 170.8 131.7 C 169.3 131.7 170.2 131.6 169.6 131.5 C 166.9 131.6 163.4 131.7 159.5 131.5 C 159.4 131.7 157.3 131.5 156.6 131.4 C 155.6 131.5 154.5 131.6 154.1 131.4 C 154.0 131.6 152.7 131.2 152.7 131.4 C 153.1 131.4 153.5 131.5 153.0 131.5 C 151.4 131.4 149.1 131.4 148.2 131.5 C 147.6 131.3 146.6 131.4 145.9 131.5 C 145.8 131.4 146.3 131.3 145.9 131.3 C 145.8 131.4 144.3 131.5 144.0 131.4 C 144.4 131.4 144.9 131.2 144.2 131.2 C 144.2 131.3 143.4 131.3 143.7 131.4 C 142.7 131.3 142.2 131.4 141.4 131.4 C 142.0 131.3 142.4 131.3 142.5 131.1 C 142.0 131.2 141.6 131.3 141.1 131.1 C 141.2 131.4 140.3 131.2 139.5 131.4 C 139.2 131.3 139.0 131.2 138.3 131.2 C 137.9 131.3 139.4 131.4 138.6 131.4 C 138.6 131.3 137.8 131.2 138.0 131.4 C 137.1 131.3 136.6 131.5 135.8 131.3 C 136.8 131.4 136.0 131.1 135.7 131.1 C 135.5 131.1 135.2 131.1 135.2 131.1 C 135.2 131.2 135.7 131.2 135.8 131.2 C 135.1 131.2 134.9 131.5 134.6 131.3 C 134.9 131.3 135.0 131.2 134.6 131.2 C 134.6 131.5 132.5 131.3 133.2 131.1 C 133.2 131.2 134.0 131.2 134.1 131.1 C 133.8 131.0 132.7 131.1 132.9 130.9 C 133.6 130.9 133.5 131.0 134.3 131.0 C 134.4 130.9 134.9 130.8 135.2 130.8 C 133.9 130.8 133.7 131.0 133.5 130.8 C 132.9 130.8 133.3 131.0 132.4 130.9 C 131.1 130.9 132.1 130.7 131.8 130.6 C 130.7 130.7 131.0 131.0 131.5 131.2 C 130.6 131.2 130.4 131.3 129.3 131.2 C 129.3 131.1 129.5 131.0 129.8 131.0 C 129.9 131.0 130.8 131.2 130.7 131.1 C 130.6 130.8 129.9 130.7 128.7 130.6 C 129.0 130.9 129.0 130.7 127.9 130.8 C 128.1 131.0 127.3 130.7 127.3 130.9 C 127.4 130.9 127.8 130.9 128.1 130.9 C 128.1 131.0 128.0 131.1 127.6 131.2 C 127.4 131.1 127.2 131.2 126.5 131.1 C 126.4 131.0 126.9 130.9 127.0 130.8 C 126.6 130.8 126.6 130.9 126.2 130.9 C 125.9 130.8 125.9 130.5 125.9 130.3 C 126.3 130.2 127.0 130.2 126.5 130.1 C 128.1 130.1 126.4 130.4 127.0 130.4 C 127.7 130.1 127.3 130.5 128.4 130.5 C 128.7 130.4 128.8 130.4 129.0 130.3 C 128.9 130.3 128.3 130.1 129.0 130.1 C 129.1 130.2 129.5 130.3 130.1 130.3 C 130.1 130.2 128.9 130.1 130.1 130.2 C 130.6 130.2 130.1 130.4 130.9 130.4 C 130.9 130.3 131.1 130.3 131.2 130.3 C 130.1 130.3 131.4 130.1 130.6 130.0 C 131.6 129.9 130.8 130.2 131.5 130.2 C 131.5 130.1 132.6 130.3 132.6 130.1 C 132.2 130.2 131.4 130.2 131.5 130.0 C 132.2 130.0 135.6 129.9 134.3 130.2 C 134.7 130.0 137.2 129.8 137.0 129.9 C 136.3 129.9 136.3 130.0 136.2 130.2 C 137.6 129.9 138.3 130.1 139.8 129.9 C 138.1 129.8 139.3 129.5 138.3 129.4 C 137.9 129.4 137.3 129.4 137.2 129.4 C 137.4 129.6 138.1 129.5 138.3 129.4 C 138.4 129.6 138.4 129.8 138.4 129.9 C 136.6 129.7 135.6 129.9 134.8 129.9 C 135.5 129.8 133.4 129.6 134.2 129.6 C 134.6 129.7 135.4 129.7 136.2 129.7 C 136.2 129.7 136.2 129.6 136.1 129.6 C 136.5 129.5 136.9 129.6 136.9 129.5 C 136.0 129.5 135.4 129.3 134.7 129.5 C 134.7 129.5 134.7 129.4 134.7 129.4 C 134.6 129.4 134.4 129.4 134.4 129.3 C 134.8 129.3 135.2 129.3 135.3 129.3 C 134.5 129.2 134.4 129.0 133.6 129.0 C 133.8 128.8 132.7 128.5 133.8 128.5 C 134.0 128.7 134.7 128.7 134.7 128.8 C 135.0 128.9 135.7 128.9 136.1 128.8 C 135.7 128.6 135.0 128.6 134.9 128.4 C 135.5 128.4 135.9 128.3 136.3 128.5 C 135.1 128.6 137.0 128.6 137.4 128.8 C 137.3 128.7 137.0 128.7 136.8 128.6 C 137.7 128.6 138.2 128.7 138.2 128.5 C 139.3 128.4 139.1 128.6 139.9 128.6 C 139.3 128.3 140.3 128.5 139.8 128.2 C 141.1 128.2 140.2 128.5 140.7 128.5 C 141.1 128.5 141.1 128.4 141.5 128.4 C 142.1 128.5 143.3 128.5 143.5 128.7 C 144.0 128.7 144.1 128.8 144.6 128.8 C 144.7 128.7 144.8 128.6 145.1 128.6 C 145.2 128.7 145.6 128.7 145.6 128.7 C 144.2 128.4 144.6 128.4 143.1 128.2 C 143.0 128.3 142.8 128.3 143.1 128.4 C 142.1 128.4 141.8 128.3 140.9 128.3 C 140.8 128.1 140.5 127.9 139.8 128.1 C 139.9 127.9 139.7 127.8 140.0 127.8 C 140.5 127.9 141.1 127.9 141.7 128.0 C 141.7 127.9 141.6 127.8 141.9 127.8 C 142.2 127.9 142.7 128.0 143.0 127.9 C 143.1 128.0 142.9 128.0 142.8 128.1 C 144.1 128.1 143.6 127.9 144.7 128.0 C 144.5 127.9 143.8 127.9 144.4 127.8 C 145.3 127.7 145.5 127.8 146.0 127.9 C 146.1 127.8 146.0 127.8 146.3 127.8 C 147.0 127.9 144.9 128.1 146.1 128.4 C 146.2 128.2 147.3 128.2 147.5 128.4 C 147.2 128.5 146.4 128.3 146.4 128.4 C 148.5 128.4 146.5 128.7 148.7 128.8 C 148.7 128.7 148.7 128.6 148.6 128.5 C 147.8 128.6 147.7 128.4 147.7 128.2 C 147.0 128.2 146.6 128.0 146.1 128.1 C 146.2 127.8 146.7 128.1 147.4 128.1 C 147.4 127.9 146.7 127.9 146.5 127.8 C 148.3 127.9 148.6 127.7 150.4 127.9 C 149.9 127.7 151.3 127.9 151.2 127.8 C 149.7 127.8 150.2 127.3 149.9 127.2 C 149.0 127.2 149.5 127.6 149.0 127.7 C 148.7 127.5 148.8 127.4 148.8 127.2 C 149.7 127.2 149.6 127.2 150.2 127.1 C 150.8 127.2 151.3 127.6 150.6 127.7 C 150.8 127.7 151.8 127.6 152.0 127.7 C 150.9 127.7 152.1 127.8 151.5 127.9 C 152.3 128.0 153.7 127.8 154.8 127.9 C 154.6 127.8 155.0 127.8 155.0 127.7 C 154.0 127.9 153.7 127.5 152.7 127.5 C 153.1 127.4 152.9 127.3 152.7 127.3 C 153.6 127.4 154.1 127.2 154.9 127.4 C 154.8 127.3 154.8 127.3 154.8 127.2 C 156.0 127.4 155.8 127.3 156.7 127.2 C 157.1 127.3 156.7 127.6 156.6 127.8 C 157.0 127.7 158.6 127.7 157.6 127.5 C 158.5 127.5 158.4 127.8 159.3 127.8 C 159.3 127.6 158.4 127.6 158.6 127.3 C 159.5 127.3 159.1 127.6 159.7 127.4 C 159.8 127.6 159.9 127.7 160.6 127.7 C 160.1 127.6 160.7 127.6 160.9 127.5 C 160.5 127.5 160.2 127.5 160.0 127.4 C 161.4 127.4 161.6 127.4 162.7 127.4 C 162.4 127.6 163.0 127.7 162.3 127.8 C 163.0 127.6 163.9 127.9 164.2 127.8 C 163.8 127.7 163.1 127.7 162.8 127.6 C 164.9 127.5 166.0 127.3 167.9 127.6 C 167.6 127.6 167.2 127.6 167.1 127.6 C 167.4 127.6 167.7 127.6 167.7 127.7 C 167.1 127.7 166.4 127.7 166.1 127.8 C 165.5 127.7 166.4 127.6 165.8 127.6 C 165.7 127.7 164.5 127.6 165.0 127.8 C 166.0 127.6 167.1 127.8 167.6 128.1 C 168.4 127.8 167.6 127.8 168.4 127.5 C 168.5 127.6 168.7 127.6 169.0 127.6 C 168.6 127.4 169.9 127.5 170.1 127.5 C 169.6 127.6 167.9 127.8 168.9 128.0 C 168.3 127.5 171.1 128.1 170.4 127.8 C 171.6 127.7 171.3 128.0 171.8 127.8 C 171.9 127.8 171.9 127.9 172.2 127.9 C 172.5 127.9 172.6 127.9 172.7 127.8 C 171.0 127.7 171.4 127.5 170.3 127.5 C 170.5 127.4 170.6 127.4 170.6 127.4 C 170.6 127.4 170.6 127.3 170.8 127.3 C 171.0 127.6 171.6 127.3 171.9 127.5 C 171.6 127.5 171.3 127.5 171.5 127.6 C 172.8 127.5 172.7 127.8 174.6 127.9 C 174.0 127.8 174.7 127.7 175.3 127.7 C 176.2 127.7 176.0 128.0 177.1 128.0 C 176.8 127.5 178.3 128.0 179.4 127.8 C 179.4 128.0 181.2 128.1 181.4 127.9 C 181.5 128.0 182.1 127.9 182.5 127.9 C 182.7 128.0 182.2 128.1 182.6 128.1 C 183.0 128.1 182.5 127.9 183.0 127.9 C 183.6 127.9 183.7 128.1 184.5 128.1 C 184.5 127.9 184.0 128.0 184.4 127.9 C 185.2 127.9 185.9 127.9 185.1 127.8 C 186.2 127.7 185.9 128.1 187.0 128.1 C 186.6 128.0 186.6 127.9 187.1 127.9 C 187.6 128.0 187.7 128.1 187.9 128.2 C 188.1 128.0 188.0 128.0 188.9 128.1 C 188.8 128.0 188.8 127.9 188.7 127.8 C 189.1 127.8 189.7 127.8 189.8 127.9 C 189.1 127.8 189.4 128.0 189.1 128.1 C 189.9 128.1 191.5 128.3 190.2 128.1 C 191.2 128.0 190.9 128.2 191.7 128.2 C 191.0 128.0 191.6 128.1 192.4 128.1 C 192.2 127.9 193.0 128.1 193.5 128.1 C 193.3 127.9 193.4 127.8 193.9 127.8 C 193.9 127.9 194.3 128.0 194.8 127.9 C 194.7 127.8 193.5 127.7 194.6 127.8 C 195.2 127.8 195.4 128.0 196.2 128.1 C 196.6 128.2 195.5 128.2 195.9 128.4 C 196.5 128.2 196.8 128.3 197.8 128.4 C 197.2 128.0 199.5 127.9 198.2 127.8 C 198.5 127.8 198.8 127.5 199.2 127.7 C 198.9 127.7 199.7 127.9 199.7 127.9 C 200.1 127.9 201.3 128.0 201.3 127.9 C 200.3 127.9 200.1 127.7 199.7 127.6 C 201.1 127.5 202.5 127.6 202.6 127.8 C 202.5 127.8 202.7 127.7 202.8 127.7 C 202.3 127.7 201.7 127.4 202.3 127.4 C 202.3 127.6 202.8 127.6 203.3 127.7 C 203.2 127.5 205.4 127.8 204.8 127.5 C 204.1 127.7 203.3 127.4 203.8 127.3 C 204.4 127.4 205.6 127.5 205.5 127.7 C 205.7 127.6 205.9 127.6 206.1 127.5 C 206.2 127.3 205.6 127.4 205.6 127.2 C 206.0 127.2 206.6 127.2 206.8 127.3 C 205.7 127.3 207.4 127.4 206.4 127.5 C 207.1 127.5 207.3 127.6 207.9 127.6 C 207.8 127.6 208.0 127.6 208.0 127.5 C 207.7 127.6 207.1 127.5 207.1 127.3 C 208.0 127.3 208.0 127.5 208.9 127.5 C 209.0 127.4 209.9 127.1 210.6 127.3 C 209.5 127.3 210.7 127.4 210.1 127.5 C 209.1 127.3 209.0 127.5 208.7 127.7 C 209.3 127.8 210.1 127.9 210.0 127.6 C 209.5 127.6 209.6 127.7 209.3 127.8 C 209.3 127.6 209.3 127.6 209.7 127.5 C 210.2 127.6 211.1 127.5 210.7 127.8 C 211.3 127.6 212.2 127.8 212.8 127.7 C 212.0 127.7 211.3 127.6 211.0 127.5 C 211.6 127.4 212.4 127.6 212.3 127.5 C 212.1 127.3 211.1 127.3 210.8 127.2 C 211.4 127.0 213.2 127.5 211.8 127.2 C 212.3 127.2 212.9 127.2 213.2 127.3 C 212.7 127.3 213.5 127.5 213.8 127.6 C 214.3 127.6 214.7 127.5 214.8 127.5 C 214.1 127.5 213.3 127.3 213.8 127.3 C 214.0 127.4 214.1 127.2 214.3 127.2 C 214.4 127.3 215.2 127.2 215.5 127.3 C 215.3 127.2 214.9 127.2 214.8 127.2 C 215.2 127.1 215.7 126.8 216.3 127.1 C 216.0 127.1 215.5 127.1 215.6 127.2 C 217.2 127.4 217.9 127.6 219.7 127.8 C 219.5 127.8 219.4 127.8 219.5 127.9 C 220.6 127.9 221.4 128.0 221.4 128.1 C 222.0 128.1 222.2 128.0 222.5 127.9 C 221.7 127.8 221.6 127.9 221.1 127.8 C 221.3 127.8 220.2 127.5 219.8 127.3 C 218.8 127.5 218.4 127.2 217.4 127.3 C 217.5 127.1 216.4 127.3 216.6 127.1 C 218.0 127.4 218.8 127.2 220.5 127.3 C 220.5 127.4 220.4 127.6 221.2 127.6 C 222.3 127.7 221.5 127.5 222.4 127.5 C 222.9 127.7 222.4 127.7 222.9 127.8 C 223.1 127.7 223.6 127.7 224.0 127.8 C 224.1 127.7 224.1 127.6 224.1 127.6 C 224.1 127.7 224.1 127.8 224.1 127.9 C 223.5 127.9 224.7 128.0 224.1 128.1 C 224.2 128.1 224.3 128.1 224.4 128.1 C 224.4 127.9 224.4 127.8 224.4 127.6 C 224.2 128.5 224.2 126.4 224.0 127.0 C 223.9 125.5 224.5 127.3 224.4 126.1 C 224.3 126.6 224.2 125.7 224.3 124.9 C 224.4 124.8 224.5 123.9 224.6 123.3 C 224.4 123.6 224.4 123.8 224.3 123.1 C 224.2 123.4 224.2 124.0 224.3 124.4 C 224.2 124.3 224.2 124.4 224.1 124.5 C 224.1 123.6 224.0 123.9 224.0 123.6 C 224.0 123.4 224.0 122.8 224.1 122.7 C 224.1 122.7 224.1 122.4 224.0 122.4 C 224.0 123.4 223.8 122.0 223.7 122.6 C 223.7 123.1 223.9 123.0 223.9 123.5 C 223.7 123.9 223.7 122.9 223.5 122.4 C 223.3 122.8 223.6 123.6 223.4 123.6 C 223.1 122.8 223.3 121.9 223.4 121.1 C 223.1 121.0 223.4 119.7 223.1 119.4 C 223.2 119.3 223.3 119.2 223.3 119.0 C 223.1 118.7 223.4 118.6 223.4 118.3 C 223.2 118.2 223.2 118.3 223.1 118.4 C 223.2 117.5 223.2 117.2 223.1 116.0 C 223.2 115.8 223.3 115.7 223.5 115.6 C 223.5 115.9 223.5 116.2 223.6 116.4 C 223.6 114.8 223.1 115.6 223.4 114.6 C 223.3 114.6 223.1 115.3 223.1 114.7 C 223.3 113.7 223.1 112.2 223.6 112.4 C 223.8 111.5 223.4 110.8 223.7 110.4 C 223.6 110.1 223.6 110.0 223.5 109.8 C 223.4 110.1 223.3 110.4 223.2 110.8 C 223.3 111.3 223.2 111.5 223.4 111.1 C 223.4 111.9 223.3 112.1 223.2 112.5 C 223.1 111.3 223.3 110.3 223.0 110.2 C 223.1 109.9 223.2 109.6 223.4 109.3 C 223.2 109.2 223.2 107.9 223.4 107.8 C 223.3 108.7 223.5 109.6 223.7 108.9 C 223.5 106.7 223.9 105.5 223.7 103.5 C 223.7 103.5 223.9 103.6 223.9 103.3 C 223.8 103.3 223.7 103.2 223.7 103.0 C 223.7 102.4 223.7 102.1 223.7 101.2 C 223.9 101.3 224.0 101.1 224.1 100.7 C 223.9 100.4 223.5 99.7 223.6 99.2 C 223.6 99.7 223.8 99.0 223.8 98.7 C 223.6 99.0 224.0 96.3 223.8 97.1 C 223.8 96.1 223.9 95.6 224.0 95.5 C 223.9 95.2 223.9 94.9 223.8 94.6 C 224.1 94.2 223.9 92.5 224.0 92.2 C 223.9 92.8 224.2 92.8 224.2 92.3 C 224.1 92.0 223.9 90.5 224.0 90.1 C 224.0 90.2 224.2 90.2 224.3 91.0 C 224.3 89.6 224.0 89.8 223.8 89.4 C 224.1 89.3 223.9 88.8 223.8 88.7 C 224.0 88.2 223.9 88.6 224.1 88.5 C 224.1 88.0 224.2 87.8 224.2 87.1 C 224.0 87.5 224.1 86.7 224.1 86.4 C 224.0 86.4 223.9 86.1 223.9 85.5 C 224.2 86.1 224.2 82.0 224.0 83.1 C 223.8 82.5 224.2 82.1 224.2 81.1 C 224.2 81.1 224.1 81.0 224.1 81.0 C 223.9 81.0 223.7 81.0 224.0 81.1 C 224.0 81.1 224.0 81.1 224.0 81.1 C 224.0 81.1 224.0 81.1 224.0 81.1 C 223.1 81.1 223.9 80.9 222.8 80.9 C 223.0 81.2 221.8 80.9 221.8 81.2 C 221.6 80.9 220.4 81.3 219.8 81.0 C 219.7 81.1 219.5 81.1 219.4 81.1 C 219.2 81.2 220.3 81.3 219.5 81.3 C 218.7 81.2 219.3 81.1 219.2 81.0 C 216.7 81.1 213.8 81.0 211.3 81.0 C 211.5 81.0 211.4 81.1 210.9 81.1 C 210.4 80.8 207.2 80.9 206.6 81.1 C 206.5 80.8 204.8 81.1 204.6 81.0 C 204.9 81.0 205.6 80.8 204.9 80.8 C 204.4 81.0 203.9 80.8 203.2 81.0 C 203.0 80.8 201.0 81.0 202.0 80.7 C 201.7 80.7 201.5 80.6 201.3 80.6 C 201.1 80.8 200.8 80.8 201.4 80.9 C 199.7 80.7 199.2 80.9 197.9 80.8 C 197.7 80.9 198.7 81.0 197.8 81.0 C 197.8 81.0 197.9 80.9 197.9 80.9 C 197.6 80.9 197.5 81.0 197.4 80.9 C 197.5 80.8 197.9 80.8 198.0 80.6 C 197.3 80.7 197.0 80.4 196.7 80.6 C 197.6 80.6 196.8 81.0 196.3 80.8 C 196.9 80.7 194.2 80.8 193.3 80.9 C 193.0 80.7 194.3 80.9 194.2 80.7 C 192.6 80.8 192.8 80.7 192.5 80.9 C 191.7 80.8 191.4 80.7 190.4 80.8 C 189.8 80.7 190.8 80.7 190.2 80.7 C 189.8 80.7 189.6 80.8 189.1 80.8 C 187.7 80.4 184.2 81.1 182.7 80.5 C 183.3 80.6 182.4 80.7 181.6 80.7 C 181.5 80.6 181.6 80.5 181.3 80.5 C 181.4 80.7 181.1 80.7 180.5 80.7 C 180.4 80.6 180.6 80.5 180.2 80.5 C 180.0 80.8 179.3 80.5 178.9 80.7 C 178.7 80.4 179.9 80.6 180.0 80.4 C 178.6 80.3 178.3 80.5 177.3 80.4 C 177.8 80.4 176.9 80.2 176.7 80.2 C 177.0 80.4 176.1 80.5 176.7 80.6 C 176.3 80.6 175.7 80.6 175.6 80.5 C 175.8 80.5 176.2 80.5 176.2 80.5 C 175.7 80.5 175.0 80.3 174.8 80.5 C 175.2 80.5 175.4 80.5 175.4 80.7 C 175.2 80.7 175.1 80.8 174.8 80.8 C 175.6 80.4 173.3 80.6 173.2 80.7 C 173.0 80.4 172.9 80.4 172.9 80.3 C 172.0 80.3 172.1 80.5 171.6 80.5 C 171.7 80.3 171.9 80.2 171.0 80.1 C 171.2 80.3 170.1 80.3 170.5 80.5 C 168.3 80.6 167.7 80.3 166.4 80.3 C 166.4 80.4 166.8 80.4 166.4 80.5 C 165.8 80.4 165.2 80.3 164.8 80.2 C 164.5 80.4 164.9 80.4 164.6 80.5 C 163.5 80.3 163.7 80.1 162.8 79.9 C 161.7 80.1 162.1 80.0 161.5 80.2 C 161.8 80.2 162.2 80.3 161.8 80.3 C 161.1 80.1 160.7 79.9 160.6 79.9 C 161.1 79.9 161.4 79.9 161.7 79.9 C 161.8 79.8 162.5 79.8 161.9 79.7 C 162.6 79.7 163.4 79.8 164.4 79.7 C 164.0 79.6 165.3 79.7 164.9 79.5 C 163.8 79.6 163.5 79.4 162.4 79.5 C 162.7 79.7 161.5 79.6 161.3 79.5 C 161.3 79.6 160.6 79.6 160.8 79.7 C 160.0 79.8 160.0 79.6 159.2 79.7 C 159.1 79.6 159.2 79.5 158.8 79.5 C 158.6 79.7 158.2 79.4 158.0 79.5 C 158.2 79.7 157.0 79.5 157.0 79.7 C 157.3 79.7 157.7 79.7 157.8 79.7 C 156.5 79.7 157.6 79.9 157.9 80.1 C 157.8 80.0 158.2 79.7 158.4 79.9 C 157.3 80.0 160.1 80.2 159.0 80.1 C 158.2 80.1 158.3 80.2 157.4 80.2 C 156.3 79.8 157.4 79.7 156.3 79.4 C 155.7 79.5 155.3 79.5 155.3 79.7 C 155.1 79.6 154.9 79.5 154.7 79.5 C 154.5 79.6 155.6 79.7 154.8 79.7 C 154.3 79.7 154.7 79.5 153.9 79.5 C 153.5 79.7 155.0 79.7 154.2 79.7 C 153.2 79.5 154.4 79.8 153.5 79.9 C 153.4 79.8 153.2 79.8 152.9 79.8 C 152.8 79.7 152.9 79.6 152.5 79.6 C 152.5 79.9 152.1 79.4 151.4 79.5 C 151.1 79.7 152.2 79.6 152.1 79.8 C 151.1 79.6 150.8 79.8 150.4 79.8 C 151.0 79.6 149.3 79.7 149.2 79.5 C 149.5 79.7 149.0 79.6 148.2 79.8 C 148.0 79.5 147.0 79.7 146.6 79.4 C 146.6 79.5 146.3 79.6 146.2 79.7 C 146.6 79.7 146.9 79.7 146.8 79.8 C 146.6 79.8 146.3 79.8 146.0 79.8 C 145.5 79.7 146.4 79.3 144.6 79.3 C 145.0 79.6 144.2 79.6 143.8 79.7 C 144.0 79.9 144.5 79.7 144.7 79.8 C 144.1 79.9 143.4 79.8 142.9 79.7 C 141.9 79.8 140.6 79.7 139.1 79.7 C 138.7 79.6 140.3 79.6 139.2 79.5 C 138.8 79.5 139.1 79.7 138.5 79.6 C 138.5 78.8 134.2 79.5 133.7 79.1 C 133.6 79.3 132.2 79.2 132.6 79.4 C 133.3 79.3 134.1 79.5 134.6 79.6 C 135.4 79.5 133.7 79.4 134.4 79.4 C 134.6 79.5 135.7 79.4 135.7 79.6 C 134.5 79.6 136.4 79.7 135.7 79.9 C 134.6 79.9 132.6 80.1 132.9 79.9 C 133.0 79.9 133.5 79.9 133.4 79.9 C 132.1 79.8 131.6 79.9 131.2 80.1 C 130.5 79.9 128.5 80.2 129.0 80.1 C 128.6 79.9 130.3 80.1 130.0 79.9 C 127.6 79.9 127.7 80.0 126.1 79.9 C 126.5 80.0 126.0 80.1 125.5 80.1 C 125.5 80.5 125.5 80.8 125.5 80.7 C 125.3 80.5 125.2 80.8 125.4 81.9 C 125.2 81.6 125.1 82.0 125.1 82.4 C 125.2 82.8 125.2 82.2 125.4 82.4 C 125.4 82.9 125.4 83.4 125.4 83.8 C 125.3 83.8 125.2 83.6 125.2 83.9 C 125.3 84.5 125.5 86.5 125.4 86.3 C 125.1 85.3 125.2 87.3 125.0 86.0 C 125.0 86.3 124.9 86.3 124.9 86.7 C 125.0 86.8 125.1 86.9 125.2 86.9 C 125.2 88.0 124.9 87.2 124.9 88.1 C 125.0 88.2 125.0 88.6 125.1 88.8 C 125.1 88.4 125.0 88.3 125.0 87.9 C 125.3 88.6 125.2 87.1 125.4 87.4 C 125.4 88.3 125.2 88.2 125.1 88.5 C 125.2 89.8 125.2 89.2 125.1 90.4 C 125.2 90.5 125.2 90.2 125.3 90.3 C 125.2 91.8 124.9 91.4 125.0 92.6 C 125.0 92.3 124.8 91.2 124.8 91.9 C 124.9 92.7 125.1 93.0 125.1 94.0 C 125.1 94.0 125.0 93.9 124.9 94.2 C 125.0 94.6 125.2 94.8 125.2 95.2 C 125.1 95.2 125.2 95.8 125.2 96.0 C 125.1 96.3 125.1 95.8 125.0 96.1 C 125.0 97.0 125.4 97.7 125.4 98.3 C 125.1 98.1 125.2 98.9 125.2 99.6 C 125.0 99.6 125.1 101.0 125.0 101.9 C 125.2 101.8 125.1 102.7 125.3 102.6 C 125.3 102.2 125.3 101.9 125.4 101.9 C 125.4 103.0 125.1 103.1 125.4 104.0 C 125.2 104.4 125.1 104.8 125.1 105.5 C 125.2 105.6 125.2 104.3 125.3 105.1 C 125.2 105.1 125.3 105.4 125.3 105.6 C 125.1 105.4 125.0 106.0 124.9 106.3 C 125.1 107.0 124.8 108.2 125.1 107.7 C 125.1 108.7 124.8 107.9 124.8 108.7 C 125.0 108.4 125.0 109.8 125.2 109.2 C 125.2 110.2 124.9 110.0 124.8 109.5 C 124.8 110.5 124.9 110.8 124.8 111.2 C 125.0 110.8 125.1 112.3 125.0 111.5 C 124.8 111.2 124.9 112.4 124.8 112.6 C 125.0 112.3 125.0 112.8 125.1 112.1 C 125.1 112.9 125.1 113.9 124.9 114.6 C 125.1 115.5 125.1 116.4 124.9 115.9 C 124.9 116.8 124.9 116.5 124.9 117.3 C 124.9 117.3 125.0 117.1 125.0 117.0 C 125.0 118.2 124.9 118.0 124.9 119.5 C 124.7 119.3 124.7 120.3 124.5 120.6 C 124.5 119.9 124.6 119.4 124.6 118.9 C 124.5 118.8 124.5 119.3 124.5 118.9 C 124.5 118.8 124.6 118.6 124.6 118.3 C 124.4 119.3 124.3 117.0 124.5 117.8 C 124.4 117.7 124.4 117.8 124.4 118.0 C 124.6 117.9 124.5 117.8 124.7 118.1 C 124.6 117.6 124.9 117.2 124.7 117.0 C 124.6 117.0 124.6 117.5 124.6 117.5 C 124.5 116.2 124.8 117.2 124.8 116.2 C 124.6 115.9 124.5 116.4 124.4 116.6 C 124.4 115.7 124.4 114.9 124.5 114.7 C 124.5 113.8 124.4 114.7 124.3 114.1 C 124.4 113.8 124.5 113.9 124.5 113.3 C 124.4 112.7 124.4 113.6 124.3 113.0 C 124.5 112.4 124.6 113.5 124.6 112.5 C 124.4 112.7 124.7 111.6 124.5 111.6 C 124.6 112.3 124.3 112.2 124.5 111.9 C 124.7 110.7 124.0 109.4 124.5 108.3 C 124.4 108.3 124.4 108.0 124.3 108.0 C 124.2 108.9 124.2 110.4 123.9 110.6 C 124.0 111.4 124.2 111.4 124.2 111.5 C 124.0 112.4 124.0 112.3 123.7 111.6 C 123.6 110.0 123.8 109.4 123.9 108.3 C 123.7 107.7 123.8 108.4 123.7 108.5 C 123.9 105.3 123.3 107.6 123.4 106.4 C 123.5 106.5 123.5 106.3 123.6 105.9 C 123.5 105.9 123.5 105.4 123.4 105.3 C 123.4 105.5 123.4 105.6 123.3 105.5 C 123.3 104.7 123.5 105.1 123.6 105.1 C 123.5 105.7 123.6 106.1 123.7 106.3 C 123.6 105.4 123.8 104.9 123.6 104.2 C 123.8 103.6 124.1 104.9 124.3 104.6 C 124.4 104.8 123.8 103.8 123.7 103.2 C 123.8 102.2 123.6 102.1 123.6 101.1 C 123.7 101.0 123.6 102.1 123.8 102.1 C 123.8 101.8 123.8 101.8 123.9 101.6 C 123.8 100.9 123.7 100.8 123.6 100.3 C 123.8 100.1 123.7 99.9 123.6 99.5 C 123.7 98.9 123.8 99.9 123.8 99.3 C 123.8 98.6 123.6 98.0 123.6 97.8 C 123.7 97.7 123.8 97.9 123.8 97.6 C 123.7 96.7 123.7 96.5 123.6 97.4 C 123.6 96.6 123.5 96.1 123.3 96.2 C 123.3 97.5 123.3 97.8 123.1 98.3 C 123.3 98.7 123.1 99.0 123.1 99.4 C 123.4 99.3 123.1 100.0 123.3 100.4 C 123.3 100.1 123.3 99.8 123.4 99.6 C 123.4 101.0 123.3 101.0 123.6 102.3 C 123.5 102.2 123.5 102.3 123.4 102.5 C 123.4 102.1 123.4 101.1 123.3 101.0 C 123.0 101.6 123.4 102.1 123.1 102.9 C 123.3 103.3 123.4 102.3 123.4 103.0 C 123.3 103.3 123.2 103.7 123.1 104.3 C 123.1 104.9 123.2 105.3 123.3 105.8 C 123.2 105.8 123.1 105.8 123.1 106.3 C 123.2 106.3 123.3 105.9 123.3 106.4 C 123.1 107.8 122.9 108.7 123.0 110.3 C 123.1 109.8 123.3 108.6 123.3 109.2 C 123.1 109.8 123.4 110.8 123.2 111.5 C 123.1 111.7 123.3 110.7 123.0 110.8 C 123.0 111.5 123.0 111.9 122.9 112.2 C 123.0 112.3 123.0 113.0 123.1 112.9 C 123.2 112.3 122.9 112.1 123.0 112.0 C 123.5 112.6 122.9 114.0 122.8 115.1 C 122.9 115.8 123.0 114.6 123.1 115.4 C 123.2 115.9 122.7 116.1 122.7 115.3 C 122.7 114.8 122.5 114.5 122.7 114.5 C 122.7 114.2 122.7 113.9 122.7 113.9 C 122.6 114.3 122.5 114.1 122.5 114.4 C 122.5 113.8 122.1 113.6 122.4 113.2 C 122.4 113.5 122.4 113.7 122.5 113.8 C 122.4 112.3 122.6 111.8 122.7 111.0 C 122.5 111.4 122.6 110.9 122.4 110.9 C 122.5 111.6 122.4 112.8 122.3 112.0 C 122.5 111.6 121.9 111.0 122.2 110.5 C 122.2 110.9 122.3 110.9 122.4 111.2 C 122.4 110.6 122.5 110.7 122.5 110.1 C 122.3 108.1 122.8 106.8 122.4 103.6 C 122.4 102.6 122.4 104.6 122.6 104.6 C 122.6 104.3 122.6 104.3 122.7 104.1 C 122.4 103.9 122.7 103.5 122.5 103.1 C 122.7 103.3 122.5 101.8 122.7 101.2 C 122.6 101.1 122.5 101.1 122.5 100.8 C 122.7 98.8 122.4 94.8 122.6 93.4 C 122.4 93.3 122.5 92.6 122.4 92.3 C 122.4 91.4 122.5 91.9 122.4 90.3 C 122.3 89.5 122.5 90.6 122.5 90.7 C 122.5 88.5 122.6 86.7 122.4 85.1 C 122.4 84.4 122.6 85.2 122.6 83.9 C 122.3 83.6 122.7 81.7 122.4 81.1 C 122.4 80.2 122.7 79.0 122.5 79.4 C 122.5 78.2 122.7 79.2 122.7 78.8 C 122.7 77.9 122.3 78.6 122.2 77.7 C 122.4 78.0 122.4 77.5 122.5 77.1 C 122.6 77.1 122.7 77.1 122.8 77.2 C 122.7 77.2 122.6 77.2 122.5 77.2 C 122.5 77.6 122.6 78.0 122.7 78.1 C 122.6 77.7 122.6 77.6 122.7 77.3 C 122.8 77.3 123.0 77.3 123.2 77.3 C 123.8 77.2 125.6 77.0 126.4 77.3 C 126.3 77.2 126.1 77.2 126.0 77.1 C 126.5 77.1 127.4 77.3 127.1 77.0 C 128.3 77.0 129.1 77.2 129.6 77.0 C 130.1 77.0 129.6 77.2 131.3 77.2 C 131.1 77.1 134.1 77.1 135.0 77.2 C 134.8 77.0 135.2 77.2 135.6 77.2 C 135.6 77.2 135.4 77.1 135.7 77.0 C 135.9 77.1 136.1 77.1 136.3 77.0 C 136.3 77.3 137.3 77.0 137.5 77.2 C 137.3 77.2 137.4 77.3 137.7 77.3 C 137.6 77.1 139.0 77.5 138.8 77.3 C 138.5 77.2 137.7 77.3 137.8 77.1 C 138.9 77.0 138.6 77.3 139.4 77.3 C 139.3 77.2 138.8 77.1 139.3 77.1 C 140.1 77.1 139.3 77.1 139.9 77.3 C 140.3 77.2 141.0 77.1 141.3 77.1 C 141.2 77.1 141.5 77.2 141.6 77.2 C 143.2 77.3 146.4 77.1 148.0 77.3 C 148.1 77.3 148.4 77.2 148.2 77.1 C 149.1 77.2 149.1 77.2 150.0 77.2 C 150.0 77.1 149.9 77.1 149.9 77.0 C 151.0 76.9 150.1 77.2 150.9 77.2 C 150.8 76.8 151.4 77.4 152.1 77.3 C 152.1 77.3 152.4 77.2 152.3 77.1 C 153.4 77.1 153.4 77.4 154.3 77.3 C 154.1 77.3 153.7 76.7 153.7 76.5 C 154.0 76.6 154.3 76.7 154.7 76.7 C 154.3 76.9 154.8 77.6 156.1 77.3 C 155.4 77.4 155.1 77.3 155.2 77.2 C 156.2 77.2 156.6 77.3 157.5 77.3 C 157.6 77.1 156.9 77.1 157.1 76.9 C 157.3 76.9 157.4 76.8 157.3 76.7 C 158.3 76.8 158.4 76.9 159.4 76.8 C 159.4 76.9 159.2 76.9 158.8 76.9 C 158.9 77.0 159.0 77.2 158.3 77.2 C 158.2 77.1 158.5 76.9 157.7 76.9 C 157.7 77.0 157.7 77.1 157.8 77.2 C 158.4 77.2 160.0 77.4 160.1 77.3 C 159.8 77.2 159.3 77.2 159.4 77.0 C 160.6 77.0 160.9 77.3 161.9 77.3 C 163.4 77.3 166.2 77.3 165.8 77.0 C 166.8 77.1 166.4 77.1 167.3 77.2 C 167.0 77.0 168.2 77.1 168.1 76.9 C 167.1 77.0 167.4 76.9 166.4 77.0 C 166.4 76.9 166.6 76.8 167.0 76.7 C 167.0 76.9 167.5 76.9 168.1 76.9 C 168.0 76.8 167.4 76.6 168.1 76.6 C 168.2 76.7 168.3 76.7 168.7 76.7 C 168.7 76.8 168.7 76.9 168.7 77.0 C 168.3 77.0 167.8 77.1 167.6 77.2 C 167.9 77.2 167.9 77.2 168.2 77.2 C 168.3 77.1 169.5 77.2 169.6 77.1 C 169.1 77.1 168.8 77.0 169.3 77.0 C 169.4 77.0 170.2 77.1 170.5 77.0 C 169.4 76.9 169.8 76.9 169.3 76.7 C 170.4 76.6 170.3 76.9 171.6 76.8 C 171.6 77.0 171.7 77.1 171.3 77.2 C 172.2 77.5 174.1 77.2 174.8 77.2 C 174.3 77.2 173.8 77.5 174.5 77.5 C 174.5 77.4 175.0 77.4 175.1 77.3 C 175.3 77.0 174.7 76.8 174.2 76.6 C 174.8 76.6 174.9 76.6 175.4 76.6 C 175.5 76.7 175.0 77.0 175.7 77.0 C 175.8 76.7 176.9 77.0 177.1 76.7 C 176.7 76.8 176.3 76.7 176.8 76.6 C 176.7 76.8 177.7 76.7 177.7 76.8 C 176.9 76.9 176.7 77.1 176.3 77.0 C 176.8 77.1 175.8 77.2 176.8 77.2 C 177.3 77.1 177.5 76.9 178.6 76.9 C 179.0 77.0 178.6 77.2 179.1 77.2 C 179.0 77.0 180.2 76.9 179.4 77.1 C 179.8 77.1 180.1 77.1 180.3 77.2 C 179.7 77.0 182.5 76.8 182.1 76.6 C 182.1 76.9 182.2 77.1 182.3 77.2 C 182.9 77.0 183.5 77.1 184.9 77.1 C 184.9 76.9 185.2 77.1 185.8 77.1 C 185.9 76.9 185.4 76.9 185.8 76.9 C 186.5 77.0 186.5 77.0 186.7 77.1 C 187.2 77.0 187.6 77.1 187.8 77.1 C 187.8 77.0 187.7 77.0 187.6 76.9 C 189.5 77.1 190.5 76.9 192.2 76.9 C 191.5 76.8 191.3 77.1 191.9 77.1 C 192.2 77.1 192.5 77.0 192.7 77.0 C 192.4 76.8 192.5 76.9 193.4 76.9 C 194.1 76.9 193.2 76.6 193.7 76.6 C 194.3 76.7 193.9 76.8 194.3 76.9 C 194.5 76.9 194.8 76.9 195.1 76.9 C 194.6 76.8 195.3 76.7 195.8 76.6 C 195.3 76.8 195.6 76.9 196.6 76.8 C 196.7 76.9 196.1 77.0 196.5 77.0 C 196.7 77.0 197.6 76.8 198.3 76.9 C 198.0 76.9 197.9 77.0 197.9 77.1 C 198.8 76.9 199.2 77.2 199.9 77.2 C 199.3 77.1 199.7 76.9 199.5 76.8 C 200.1 77.0 201.0 76.8 201.4 77.0 C 200.5 76.9 201.2 77.4 201.8 77.4 C 202.1 77.2 201.0 77.2 201.4 77.0 C 201.9 76.8 202.5 77.1 202.9 76.9 C 202.9 76.8 202.4 77.0 202.4 76.9 C 202.9 76.9 202.3 76.8 202.7 76.8 C 202.9 77.0 203.4 76.7 203.6 76.7 C 204.0 76.7 204.6 77.0 205.0 76.9 C 205.0 76.8 204.5 76.8 204.5 76.8 C 206.1 76.6 206.5 76.9 208.0 76.7 C 208.1 76.8 208.4 76.8 208.8 76.9 C 208.8 76.8 209.1 76.7 209.5 76.7 C 210.0 76.8 210.6 76.9 211.3 76.9 C 211.1 77.1 210.7 77.2 211.7 77.2 C 211.8 77.1 211.4 77.1 211.8 77.1 C 211.8 77.1 212.0 77.1 212.1 77.1 C 212.2 77.0 212.2 77.0 212.2 76.9 C 211.9 76.9 211.6 76.9 211.3 76.9 C 211.4 76.8 211.4 76.7 211.2 76.7 C 212.5 76.6 212.2 77.0 213.1 76.8 C 213.1 77.1 213.3 77.2 212.5 77.4 C 213.2 77.3 213.8 77.2 214.1 77.1 C 213.2 77.1 213.7 76.9 213.5 76.8 C 214.1 76.8 214.1 76.7 214.4 76.6 C 215.0 76.8 213.5 77.0 214.8 77.0 C 214.0 76.8 215.7 76.8 216.3 76.9 C 216.2 76.8 216.0 76.8 216.4 76.7 C 218.3 76.6 217.6 77.2 218.9 76.9 C 218.7 77.0 219.2 77.0 219.3 77.1 C 218.5 77.1 218.2 77.1 217.8 77.2 C 217.8 77.2 218.0 77.3 218.3 77.3 C 218.4 77.2 218.6 77.2 218.9 77.2 C 219.3 77.1 219.4 76.9 220.2 76.7 C 220.2 76.8 220.0 76.9 220.4 76.9 C 220.8 76.7 219.9 77.2 221.3 77.1 C 221.1 77.1 221.1 77.0 221.3 76.8 C 222.0 76.7 221.8 76.8 222.8 76.8 C 222.9 77.1 221.9 77.1 221.4 77.3 C 222.1 77.3 222.8 77.1 223.3 77.2 C 222.9 77.1 223.5 76.9 224.1 76.9 C 224.6 76.9 223.8 77.2 224.4 77.2 C 225.0 77.1 225.4 77.0 225.0 76.9 C 226.0 76.9 226.0 76.7 226.9 76.8 C 226.8 76.9 226.5 76.9 226.2 76.8 C 226.2 76.9 226.0 77.0 226.3 77.0 C 226.8 76.9 227.6 76.9 228.3 76.8 C 228.3 77.1 228.3 77.4 228.4 77.6 C 228.0 79.3 228.5 80.5 228.3 81.9 C 228.1 81.5 228.3 83.8 228.1 84.6 C 228.1 84.9 228.5 86.0 228.4 85.6 C 228.1 85.9 228.2 86.6 228.1 87.3 C 228.2 87.2 228.3 87.2 228.3 87.2 C 228.4 88.5 228.2 88.9 228.0 89.4 C 228.2 91.0 227.9 93.0 228.1 94.9 C 227.9 95.4 227.9 95.9 227.8 97.1 C 228.0 97.0 228.0 97.9 228.0 98.8 C 228.1 98.6 228.1 99.4 228.2 99.4 C 228.2 98.6 228.4 98.9 228.5 98.4 C 228.3 99.5 228.7 100.0 228.5 100.9 C 228.4 99.8 228.2 99.6 227.9 99.5 C 228.0 100.7 227.9 101.3 227.7 101.6 C 227.9 101.7 228.0 101.5 228.0 101.2 C 228.0 101.6 228.0 102.1 228.0 102.4 C 227.9 102.6 227.9 102.0 227.8 102.5 C 227.9 102.7 228.0 103.1 228.0 103.4 C 227.8 103.7 227.9 102.9 227.8 102.8 C 227.7 104.4 228.1 103.7 228.1 104.6 C 228.0 104.8 227.8 104.7 227.8 105.5 C 227.9 105.8 228.1 105.9 228.1 106.7 C 228.0 107.2 227.8 106.6 227.8 107.3 C 227.9 107.3 227.8 107.6 227.8 107.9 C 227.9 107.8 227.9 108.1 228.0 108.5 C 227.9 108.6 227.9 109.1 228.0 109.4 C 227.9 109.4 227.6 110.3 227.8 110.6 C 227.9 110.6 227.8 110.0 227.9 110.0 C 227.9 110.7 227.9 111.1 228.0 111.5 C 227.5 111.6 227.9 112.8 227.7 114.1 C 227.8 115.0 228.0 114.0 228.1 115.2 C 228.0 115.8 227.9 115.0 227.7 115.0 C 227.7 115.2 227.6 116.1 227.7 116.2 C 227.8 116.3 227.8 115.7 227.8 115.7 C 228.0 116.6 227.8 116.4 227.7 116.8 C 227.9 116.8 227.9 117.4 228.0 117.6 C 228.1 119.8 227.8 119.6 227.7 120.4 C 227.7 120.4 227.7 120.9 227.8 121.0 C 227.7 120.4 227.9 119.7 227.9 120.5 C 227.8 120.3 227.9 121.6 228.0 121.8 C 228.1 121.7 228.0 120.9 228.2 121.3 C 228.3 122.5 227.9 121.8 228.1 122.8 C 228.0 122.8 228.0 122.3 227.9 122.0 C 227.9 122.4 227.9 122.9 227.8 122.9 C 227.8 122.4 227.6 122.3 227.5 122.1 C 227.7 122.8 227.5 123.7 227.8 123.1 C 227.7 124.3 227.9 125.5 228.0 124.8 C 228.1 125.8 227.8 125.1 228.0 126.0 C 227.8 125.7 227.6 125.4 227.5 125.9 C 227.6 126.1 227.6 126.7 227.8 126.7 C 227.8 128.2 227.6 128.4 227.4 128.8 C 227.7 128.6 227.5 129.1 227.7 129.9 C 227.6 130.3 227.3 129.7 227.4 130.9 C 227.6 130.4 227.6 130.8 227.6 131.3 C 227.2 131.4 226.8 131.4 227.2 131.5 C 225.7 131.4 225.7 131.4 224.2 131.3 C 224.2 131.2 224.5 131.1 225.1 131.1 C 224.8 131.3 226.5 131.3 226.3 131.2 C 226.2 131.1 226.2 131.1 226.1 131.0 C 225.1 131.1 224.3 131.0 223.8 130.9 C 223.7 131.1 223.3 131.1 223.6 131.3 C 222.4 131.1 221.6 131.4 221.0 131.2 C 221.3 131.2 221.6 131.2 221.4 131.1 C 221.1 131.2 220.6 131.2 220.8 131.3 C 221.7 131.4 221.9 131.4 222.2 131.3 C 221.9 131.4 223.2 131.5 222.4 131.6 C 222.2 131.3 220.9 131.7 221.3 131.5 C 222.1 131.4 220.1 131.4 219.9 131.2 C 219.9 131.2 219.9 131.2 219.9 131.2 Z M 122.5 110.4 C 122.6 111.3 122.8 110.3 122.8 109.6 C 122.7 109.8 122.6 109.8 122.5 109.8 C 122.6 110.1 122.6 110.3 122.5 110.4 C 122.5 110.4 122.5 110.4 122.5 110.4 Z M 125.2 102.5 C 125.0 102.2 125.1 103.6 125.1 104.1 C 125.1 104.0 125.2 103.9 125.2 104.2 C 125.3 103.7 125.0 103.3 125.2 102.5 C 125.2 102.5 125.2 102.5 125.2 102.5 Z M 132.3 79.1 C 132.1 79.2 131.6 79.2 131.5 79.1 C 131.2 79.2 131.3 79.3 131.3 79.3 C 130.7 79.4 131.3 79.1 130.4 79.1 C 130.3 79.5 132.4 79.6 132.3 79.1 C 132.3 79.1 132.3 79.1 132.3 79.1 Z M 224.8 125.6 C 224.7 125.9 224.5 124.9 224.4 125.0 C 224.5 126.6 224.7 125.6 224.7 127.6 C 224.7 127.5 224.8 127.4 224.9 127.5 C 224.8 126.5 224.6 126.3 225.0 126.8 C 225.0 126.4 224.6 125.9 224.8 125.6 C 224.8 125.6 224.8 125.6 224.8 125.6 Z M 207.4 127.8 C 207.6 127.8 207.8 127.9 207.9 127.9 C 208.4 127.8 208.3 127.8 209.2 127.9 C 208.8 127.6 208.0 127.6 207.4 127.8 C 207.4 127.8 207.4 127.8 207.4 127.8 Z M 155.7 127.3 C 155.5 127.3 155.3 127.3 155.1 127.3 C 155.3 127.5 154.8 127.7 155.8 127.6 C 155.8 127.6 155.6 127.6 155.5 127.6 C 155.6 127.5 156.1 127.5 155.9 127.4 C 155.7 127.4 155.7 127.4 155.7 127.3 C 155.7 127.3 155.7 127.3 155.7 127.3 Z M 134.2 129.0 C 135.2 128.8 132.5 128.4 134.2 129.0 C 134.2 129.0 134.2 129.0 134.2 129.0 C 134.2 129.0 134.2 129.0 134.2 129.0 Z M 136.6 131.1 C 136.7 131.2 136.9 131.2 136.9 131.1 C 137.8 131.2 136.9 131.3 137.5 131.4 C 138.2 131.2 137.1 131.0 138.0 130.9 C 137.8 130.8 137.2 131.1 136.6 131.1 C 136.6 131.1 136.6 131.1 136.6 131.1 Z M 217.7 77.0 C 216.8 77.0 216.5 77.2 216.2 77.4 C 216.7 77.4 217.1 77.4 217.2 77.5 C 218.3 77.4 216.7 77.4 216.5 77.3 C 216.8 77.2 217.5 77.2 217.7 77.0 C 217.7 77.0 217.7 77.0 217.7 77.0 Z M 215.0 77.0 C 214.6 77.1 214.1 77.2 213.9 77.3 C 214.4 77.3 214.4 77.4 214.4 77.5 C 214.9 77.4 214.5 77.2 215.0 77.0 C 215.0 77.0 215.0 77.0 215.0 77.0 Z M 219.8 77.2 C 219.4 77.2 219.4 77.4 219.3 77.5 C 219.8 77.5 219.8 77.5 220.4 77.5 C 220.4 77.5 220.5 77.4 220.5 77.3 C 220.1 77.3 220.0 77.4 219.6 77.4 C 219.7 77.3 219.7 77.3 219.8 77.2 C 219.8 77.2 219.8 77.2 219.8 77.2 Z M 212.2 77.3 C 210.7 77.3 209.9 77.6 208.7 77.8 C 209.8 77.8 211.1 77.4 211.8 77.5 C 212.8 77.5 211.5 77.4 211.6 77.3 C 211.7 77.3 212.0 77.3 212.2 77.3 C 212.2 77.3 212.2 77.3 212.2 77.3 Z M 199.0 77.3 C 198.7 77.2 198.0 77.5 197.2 77.4 C 197.3 77.5 197.5 77.5 197.4 77.6 C 198.6 77.6 198.1 77.3 199.0 77.3 C 199.0 77.3 199.0 77.3 199.0 77.3 Z M 191.8 77.4 C 191.0 77.4 192.1 77.5 191.7 77.6 C 192.5 77.6 193.4 77.7 193.5 77.5 C 192.5 77.6 192.3 77.6 191.8 77.4 C 191.8 77.4 191.8 77.4 191.8 77.4 Z M 186.6 77.4 C 185.7 77.5 186.9 77.6 186.5 77.8 C 186.8 77.8 186.8 77.7 186.8 77.6 C 187.1 77.7 187.3 77.7 187.7 77.7 C 187.4 77.6 186.4 77.6 186.6 77.4 C 186.6 77.4 186.6 77.4 186.6 77.4 Z M 227.6 88.5 C 227.5 88.0 227.3 88.3 227.4 87.1 C 227.4 88.8 226.8 88.2 226.9 90.3 C 227.0 90.0 227.1 90.1 227.0 90.3 C 227.1 91.1 227.1 89.5 227.3 90.1 C 227.2 89.6 227.0 90.0 227.0 89.4 C 227.2 88.7 227.3 88.3 227.6 88.5 C 227.6 88.5 227.6 88.5 227.6 88.5 Z M 226.7 90.4 C 226.7 91.1 227.0 90.9 226.8 91.2 C 226.8 91.5 226.9 91.4 227.0 91.5 C 227.0 91.2 227.0 91.2 227.0 91.2 C 227.0 90.7 226.9 90.2 226.7 90.4 C 226.7 90.4 226.7 90.4 226.7 90.4 Z M 226.7 85.0 C 226.8 85.9 226.7 86.3 226.8 86.6 C 226.6 87.1 227.0 87.2 226.7 87.9 C 226.8 88.8 226.9 88.0 227.0 87.7 C 227.0 88.6 226.8 88.1 226.8 88.9 C 227.1 89.0 227.0 87.8 227.2 87.8 C 227.2 87.1 227.1 87.2 227.0 86.8 C 227.0 86.4 227.1 86.5 227.2 86.4 C 227.1 85.6 227.3 85.5 227.3 84.9 C 227.1 84.8 227.0 85.2 227.1 85.9 C 227.0 85.2 226.9 84.9 227.0 83.9 C 227.1 84.4 227.2 81.5 226.9 81.9 C 226.9 82.8 227.0 82.4 227.1 82.7 C 226.9 83.8 226.9 84.4 226.7 85.0 C 226.7 85.0 226.7 85.0 226.7 85.0 Z M 219.6 77.8 C 219.3 77.8 219.1 77.8 218.8 77.8 C 218.9 77.6 219.3 77.6 218.9 77.5 C 218.4 77.5 218.2 77.6 217.8 77.6 C 217.9 77.7 219.0 77.9 218.3 77.9 C 218.4 78.0 218.8 78.1 219.3 78.1 C 218.9 77.8 220.2 78.1 220.8 78.1 C 221.0 77.8 221.7 78.1 222.3 77.9 C 222.1 77.8 220.8 77.9 220.3 77.9 C 220.6 77.9 219.2 77.5 219.6 77.8 C 219.6 77.8 219.6 77.8 219.6 77.8 Z M 226.8 92.7 C 226.9 92.8 226.9 93.5 227.0 92.9 C 227.0 93.2 226.9 93.8 227.2 93.4 C 227.2 93.7 227.2 94.0 227.2 94.3 C 227.1 94.2 227.1 93.4 227.0 93.8 C 227.1 94.4 227.0 94.2 227.0 95.0 C 226.8 94.6 226.8 95.1 226.5 94.8 C 226.6 95.0 226.6 95.7 226.8 95.6 C 226.7 96.7 226.5 95.4 226.5 96.8 C 226.4 96.9 226.4 95.8 226.5 95.4 C 226.3 95.3 226.4 97.2 226.4 98.3 C 226.5 97.3 226.7 98.0 226.8 98.5 C 226.8 98.8 226.7 98.5 226.6 99.1 C 226.6 99.6 226.7 99.8 226.6 100.0 C 226.6 100.4 226.8 100.2 226.8 100.2 C 226.8 100.9 226.6 100.4 226.6 101.4 C 226.9 100.6 226.9 101.5 226.8 102.8 C 226.9 102.7 226.9 102.3 227.0 102.2 C 227.1 102.4 226.9 103.2 226.8 103.4 C 226.9 103.9 227.0 103.6 227.0 103.1 C 227.0 103.4 227.1 103.7 227.1 104.0 C 227.2 102.5 227.1 100.2 227.4 97.5 C 227.2 98.0 227.2 97.4 227.3 96.6 C 227.4 96.5 227.4 96.8 227.4 97.2 C 227.6 96.2 227.1 96.4 227.3 94.9 C 227.3 94.1 227.4 95.7 227.5 94.8 C 227.4 94.3 227.3 93.9 227.5 93.6 C 227.4 92.7 227.2 92.5 227.2 91.1 C 227.1 91.9 226.7 92.5 226.8 93.3 C 226.8 93.3 226.8 92.9 226.8 92.7 C 226.8 92.7 226.8 92.7 226.8 92.7 Z M 214.3 77.6 C 213.8 77.6 213.5 77.7 213.5 77.6 C 212.5 77.6 213.4 77.8 213.6 77.8 C 214.0 77.8 214.2 77.7 214.3 77.6 C 214.3 77.6 214.3 77.6 214.3 77.6 Z M 127.3 77.6 C 126.1 77.5 126.6 77.8 125.7 77.8 C 126.5 77.8 126.8 78.0 127.9 77.9 C 127.8 77.8 127.7 77.7 127.3 77.6 C 127.3 77.6 127.3 77.6 127.3 77.6 Z M 217.1 77.7 C 217.9 77.5 216.1 77.9 216.2 77.8 C 215.3 77.9 216.9 77.9 216.0 78.1 C 216.7 78.0 217.0 78.1 218.0 78.0 C 218.0 77.9 217.4 77.9 216.7 77.9 C 216.6 77.8 217.0 77.8 217.1 77.7 C 217.1 77.7 217.1 77.7 217.1 77.7 Z M 138.8 78.1 C 139.4 77.9 137.8 77.7 137.3 77.6 C 137.5 77.9 137.7 77.9 138.8 78.1 C 138.8 78.1 138.8 78.1 138.8 78.1 Z M 123.3 81.0 C 123.5 81.6 123.3 79.7 123.5 80.4 C 123.5 79.9 123.5 79.8 123.4 79.7 C 123.4 79.5 123.4 78.7 123.6 79.0 C 123.7 79.0 123.5 80.3 123.7 80.0 C 123.8 80.5 123.7 80.5 123.7 80.8 C 123.7 80.0 123.5 80.2 123.4 81.2 C 123.6 81.3 123.6 80.8 123.7 81.4 C 123.6 81.4 123.5 81.8 123.2 81.5 C 123.2 82.4 123.5 82.2 123.5 83.2 C 123.6 83.2 123.6 82.6 123.7 82.2 C 123.9 82.5 123.5 83.2 123.8 83.2 C 123.7 83.3 123.6 83.8 123.4 83.7 C 123.3 82.8 123.2 82.2 123.1 81.4 C 123.0 81.9 123.4 83.2 123.2 84.1 C 123.3 84.1 123.3 84.7 123.5 84.6 C 123.5 85.4 123.2 84.8 123.2 84.7 C 123.1 84.8 123.2 86.5 123.3 86.5 C 123.2 86.5 123.2 88.4 123.4 88.5 C 123.3 89.0 123.6 90.1 123.3 90.2 C 123.4 90.6 123.4 91.2 123.4 91.9 C 123.6 92.3 123.5 91.0 123.6 91.0 C 123.8 90.9 123.6 92.3 123.7 92.2 C 123.8 92.2 123.8 92.3 123.9 92.3 C 123.8 91.7 123.7 91.0 123.7 90.4 C 123.7 90.1 123.8 90.6 123.9 90.6 C 123.8 90.1 123.5 88.1 123.9 88.3 C 123.8 87.0 123.8 86.2 123.7 85.6 C 123.7 84.9 123.8 86.1 123.9 85.8 C 123.7 83.5 124.0 81.2 123.7 79.2 C 123.7 78.8 123.8 79.1 123.9 79.1 C 123.9 78.9 123.9 78.7 123.9 78.5 C 125.3 78.4 123.5 78.2 125.3 78.3 C 125.5 78.4 124.6 78.4 124.8 78.6 C 125.4 78.6 125.5 78.4 126.4 78.5 C 126.3 78.4 126.3 78.3 126.2 78.3 C 126.9 78.3 126.8 78.5 127.3 78.6 C 128.2 78.5 127.8 78.4 128.5 78.6 C 129.2 78.5 130.0 78.5 131.0 78.6 C 131.4 78.4 130.1 78.1 129.2 78.1 C 129.2 78.1 129.4 78.1 129.4 78.0 C 130.6 78.2 131.0 78.5 132.6 78.5 C 131.3 78.3 133.2 78.5 133.5 78.6 C 134.2 78.6 133.5 78.3 133.1 78.4 C 133.1 78.3 133.6 78.4 133.7 78.4 C 133.5 78.2 131.9 78.0 130.3 78.1 C 130.8 77.8 129.2 78.2 129.7 77.8 C 128.4 77.8 129.8 78.1 128.2 78.0 C 128.5 78.1 128.8 78.2 129.0 78.3 C 127.9 78.3 128.0 78.0 126.9 78.1 C 126.8 78.2 127.5 78.2 127.7 78.3 C 126.2 78.1 125.7 78.1 124.7 77.9 C 124.6 78.0 125.0 78.2 123.5 78.1 C 123.4 78.0 123.4 78.0 123.3 77.9 C 123.9 78.0 123.9 77.8 123.1 77.7 C 123.0 77.9 123.0 78.1 123.0 78.5 C 123.1 78.7 123.1 78.2 123.1 77.8 C 123.1 77.8 123.2 77.8 123.2 77.8 C 123.2 77.8 123.2 77.8 123.1 77.8 C 123.3 78.1 123.3 78.7 123.3 79.4 C 123.3 79.7 123.2 80.0 123.2 79.5 C 123.0 79.6 123.4 80.2 123.3 81.0 C 123.3 81.0 123.3 81.0 123.3 81.0 Z M 200.2 77.7 C 200.0 77.7 199.7 77.8 199.3 77.8 C 199.1 77.9 199.9 77.9 199.8 78.0 C 200.4 78.0 200.0 77.8 200.2 77.7 C 200.2 77.7 200.2 77.7 200.2 77.7 Z M 208.1 77.8 C 208.2 77.7 207.6 77.9 207.0 77.8 C 206.7 78.0 207.5 77.9 207.4 78.1 C 208.2 78.1 207.4 77.8 208.1 77.8 C 208.1 77.8 208.1 77.8 208.1 77.8 Z M 204.7 77.8 C 204.5 77.7 204.4 77.9 205.0 77.9 C 204.9 78.0 204.7 78.1 204.3 78.1 C 204.6 78.3 205.0 78.0 205.7 78.1 C 205.5 78.0 205.2 77.9 204.7 77.8 C 204.7 77.8 204.7 77.8 204.7 77.8 Z M 203.6 77.8 C 203.1 78.0 202.9 77.8 202.1 77.9 C 202.2 78.0 203.9 77.9 204.1 77.9 C 204.5 77.7 202.8 77.7 203.6 77.8 C 203.6 77.8 203.6 77.8 203.6 77.8 Z M 150.2 78.3 C 150.0 78.3 150.0 78.4 150.0 78.4 C 149.0 78.2 147.8 78.2 148.6 77.9 C 147.8 78.1 146.8 77.9 146.0 77.8 C 145.3 77.8 145.8 78.0 145.3 78.0 C 144.4 78.0 145.7 77.9 145.4 77.8 C 145.2 77.7 145.1 78.0 144.1 77.9 C 144.5 78.2 143.2 77.9 143.7 78.2 C 143.1 78.1 143.0 78.2 142.3 78.2 C 142.4 78.3 143.1 78.3 143.3 78.4 C 143.7 78.6 143.5 78.3 142.9 78.3 C 143.2 78.1 144.3 78.4 144.6 78.2 C 145.0 78.4 143.7 78.3 144.1 78.5 C 144.4 78.5 144.6 78.4 144.6 78.4 C 145.1 78.4 145.4 78.5 145.6 78.5 C 145.3 78.6 145.3 78.5 145.3 78.5 C 144.8 78.5 146.0 78.8 144.9 78.8 C 145.1 78.8 145.6 78.9 145.6 79.0 C 145.9 79.1 145.3 78.5 146.5 78.7 C 147.1 78.5 144.6 78.5 145.1 78.1 C 146.7 78.2 145.9 78.4 147.2 78.5 C 147.2 78.4 147.1 78.3 147.4 78.3 C 147.3 78.2 146.9 78.3 146.5 78.2 C 146.6 78.2 147.0 78.2 147.4 78.2 C 147.3 78.1 147.0 78.1 147.0 78.1 C 148.1 78.1 148.2 78.5 147.3 78.6 C 147.4 78.8 148.7 78.8 149.0 78.7 C 148.6 78.5 149.0 78.6 148.6 78.4 C 148.3 78.4 148.4 78.4 148.3 78.5 C 147.8 78.4 148.3 78.4 148.3 78.3 C 148.8 78.3 148.9 78.5 149.4 78.4 C 149.3 78.4 149.2 78.5 149.2 78.5 C 149.5 78.5 149.8 78.5 150.1 78.5 C 150.0 78.4 150.3 78.4 150.2 78.3 C 150.2 78.3 150.2 78.3 150.2 78.3 Z M 135.2 77.8 C 134.2 77.8 134.8 77.9 135.3 77.9 C 135.1 78.0 134.8 78.0 134.5 78.1 C 134.8 78.1 135.1 78.1 136.0 78.1 C 135.4 78.4 136.4 78.7 137.8 78.7 C 138.0 78.3 136.7 78.3 137.1 78.1 C 136.1 78.2 135.5 78.1 135.2 77.8 C 135.2 77.8 135.2 77.8 135.2 77.8 Z M 213.5 77.9 C 213.0 77.9 212.4 77.9 211.8 77.9 C 211.8 78.1 213.4 78.2 213.5 77.9 C 213.5 77.9 213.5 77.9 213.5 77.9 Z M 226.9 105.1 C 226.9 105.4 226.9 105.4 226.8 105.4 C 226.9 106.3 227.0 105.0 227.1 105.4 C 227.1 105.1 227.1 104.8 227.1 104.6 C 227.1 104.5 227.0 105.7 226.9 104.8 C 226.8 104.9 226.9 105.1 226.9 105.1 C 226.9 105.1 226.9 105.1 226.9 105.1 Z M 200.7 77.9 C 200.1 78.0 200.3 78.3 199.1 78.2 C 199.5 78.3 199.8 78.3 200.5 78.2 C 200.6 78.1 200.6 78.0 200.7 77.9 C 200.7 77.9 200.7 77.9 200.7 77.9 Z M 154.4 78.0 C 153.6 77.8 153.5 78.2 152.1 78.1 C 152.9 78.4 153.6 78.1 154.4 78.0 C 154.4 78.0 154.4 78.0 154.4 78.0 Z M 123.7 94.4 C 123.7 94.0 123.8 94.6 123.9 94.0 C 123.8 93.5 123.7 93.3 123.7 92.7 C 123.5 93.4 123.7 94.9 123.4 95.3 C 123.4 96.0 123.6 96.1 123.7 96.4 C 123.7 96.1 123.8 95.9 123.8 95.9 C 123.5 95.3 124.0 95.1 123.7 94.4 C 123.7 94.4 123.7 94.4 123.7 94.4 Z M 139.1 78.1 C 139.7 78.2 138.9 78.3 138.8 78.4 C 138.4 78.4 138.4 78.3 138.3 78.2 C 137.8 78.2 137.7 78.3 137.9 78.4 C 138.9 78.5 140.0 78.5 139.5 78.7 C 140.5 78.8 139.8 78.5 140.2 78.5 C 140.8 78.6 140.3 78.7 140.4 78.8 C 140.6 78.8 141.2 78.6 141.3 78.8 C 142.5 78.6 141.7 78.3 140.4 78.0 C 139.7 78.2 140.8 78.3 139.1 78.1 C 139.1 78.1 139.1 78.1 139.1 78.1 Z M 175.1 78.3 C 175.0 78.2 174.5 78.3 174.5 78.2 C 173.9 78.4 173.4 78.5 172.9 78.7 C 173.0 78.9 173.7 78.7 173.4 78.6 C 173.7 78.7 174.2 78.8 174.5 78.9 C 175.1 78.9 175.3 78.6 175.4 78.8 C 175.9 78.7 175.6 78.7 176.5 78.8 C 175.1 78.6 177.0 78.7 177.1 78.5 C 176.3 78.5 175.5 78.5 175.6 78.7 C 175.0 78.6 174.4 78.5 174.2 78.4 C 174.3 78.3 174.8 78.3 175.1 78.3 C 175.1 78.3 175.1 78.3 175.1 78.3 Z M 171.7 78.8 C 172.0 78.8 172.2 78.8 172.6 78.8 C 172.3 78.7 172.3 78.7 172.3 78.5 C 171.6 78.6 171.4 78.7 171.1 78.5 C 170.5 78.5 171.3 78.8 170.3 78.7 C 170.4 78.7 170.9 78.7 170.9 78.8 C 171.0 78.7 171.4 78.6 171.7 78.8 C 171.7 78.8 171.7 78.8 171.7 78.8 Z M 163.0 78.5 C 162.3 78.5 163.4 78.6 163.1 78.7 C 163.2 78.7 164.6 78.8 164.5 78.9 C 164.9 79.2 166.3 78.7 166.2 79.0 C 166.5 79.0 166.4 78.9 166.4 78.8 C 165.5 78.8 165.4 78.7 166.1 78.7 C 166.0 78.6 165.4 78.6 165.0 78.6 C 165.0 78.7 165.3 78.7 165.3 78.8 C 164.5 78.8 163.8 78.6 163.0 78.5 C 163.0 78.5 163.0 78.5 163.0 78.5 Z M 220.7 130.3 C 221.4 130.3 221.7 130.3 222.0 130.2 C 221.7 130.1 221.5 130.2 221.2 130.2 C 221.0 130.1 221.3 130.1 221.6 130.1 C 221.2 129.9 220.1 130.1 220.7 130.3 C 220.7 130.3 220.7 130.3 220.7 130.3 Z M 226.3 130.3 C 226.4 130.3 226.5 130.3 226.5 130.3 C 226.5 129.8 226.5 129.5 226.4 129.3 C 226.3 129.4 226.5 129.5 226.5 129.9 C 226.5 130.0 226.4 130.1 226.4 130.2 C 226.3 130.1 226.1 130.1 226.0 130.0 C 225.7 130.0 225.9 130.1 225.8 130.2 C 225.6 130.2 225.6 130.1 225.5 130.1 C 224.9 130.3 226.4 130.1 226.3 130.3 C 226.3 130.3 226.3 130.3 226.3 130.3 Z M 167.8 78.6 C 168.0 78.7 168.3 78.8 168.9 78.8 C 168.8 78.7 169.3 78.7 169.8 78.7 C 169.1 78.5 168.8 78.6 167.8 78.6 C 167.8 78.6 167.8 78.6 167.8 78.6 Z M 226.4 94.9 C 226.6 93.9 226.3 94.2 226.4 92.9 C 226.4 92.9 226.3 92.9 226.2 93.0 C 226.4 93.6 226.3 94.0 226.4 94.9 C 226.4 94.9 226.4 94.9 226.4 94.9 Z M 146.0 130.2 C 146.0 130.0 145.2 130.1 145.1 130.0 C 145.0 130.3 144.4 129.8 142.8 129.9 C 142.8 129.8 142.9 129.7 143.1 129.7 C 141.8 129.7 143.5 129.9 143.7 130.1 C 144.7 130.1 144.9 130.2 146.0 130.2 C 146.0 130.2 146.0 130.2 146.0 130.2 Z M 124.2 86.4 C 124.2 86.3 124.2 86.4 124.2 86.6 C 124.2 86.8 124.2 87.0 124.2 87.2 C 124.4 87.3 124.5 86.5 124.8 87.4 C 124.8 87.2 124.7 87.1 124.7 87.1 C 124.2 85.3 125.1 85.0 124.7 82.9 C 124.7 82.6 124.6 82.6 124.6 82.5 C 124.6 82.8 124.6 82.7 124.5 82.7 C 124.8 83.2 124.5 84.5 124.4 83.7 C 124.3 83.7 124.4 84.0 124.4 84.0 C 124.4 84.2 124.4 84.4 124.4 84.6 C 124.5 84.5 124.5 84.2 124.6 84.2 C 124.5 85.0 124.4 86.0 124.2 85.3 C 124.2 85.8 124.3 86.1 124.4 86.5 C 124.4 86.9 124.2 86.7 124.2 86.4 C 124.2 86.4 124.2 86.4 124.2 86.4 Z M 124.3 93.7 C 124.2 94.5 124.4 94.3 124.4 95.2 C 124.6 94.7 124.3 93.9 124.5 93.3 C 124.4 93.3 124.4 93.7 124.3 93.7 C 124.3 93.7 124.3 93.7 124.3 93.7 Z M 125.9 79.1 C 126.0 79.4 126.7 79.4 127.5 79.4 C 127.5 79.2 126.8 79.2 125.9 79.1 C 125.9 79.1 125.9 79.1 125.9 79.1 Z M 124.5 81.4 C 124.6 82.2 124.6 80.4 124.8 81.0 C 124.8 80.6 124.8 80.2 124.8 80.3 C 124.8 79.9 124.7 79.8 124.7 79.3 C 124.7 79.3 124.7 79.3 124.7 79.3 C 124.7 79.3 124.7 79.3 124.7 79.3 C 124.6 79.3 124.7 80.2 124.5 80.0 C 124.6 80.7 124.6 80.8 124.5 81.4 C 124.5 81.4 124.5 81.4 124.5 81.4 Z M 124.5 81.9 C 124.6 82.5 124.9 82.1 124.9 81.4 C 124.8 81.6 124.6 81.6 124.5 81.9 C 124.5 81.9 124.5 81.9 124.5 81.9 Z M 186.7 79.2 C 186.4 79.2 186.6 79.4 186.2 79.4 C 186.1 79.5 187.8 79.5 186.4 79.5 C 186.9 79.7 187.2 79.4 187.8 79.5 C 187.6 79.4 187.5 79.3 187.8 79.3 C 188.1 79.2 186.5 79.4 186.7 79.2 C 186.7 79.2 186.7 79.2 186.7 79.2 Z M 185.1 79.2 C 184.8 79.2 184.9 79.3 185.1 79.3 C 185.0 79.3 184.5 79.3 184.2 79.3 C 184.2 79.2 184.8 79.6 184.7 79.7 C 186.1 79.6 185.1 79.4 185.1 79.2 C 185.1 79.2 185.1 79.2 185.1 79.2 Z M 183.7 79.3 C 182.8 79.2 181.5 79.2 180.9 79.4 C 181.5 79.6 183.2 79.6 183.7 79.3 C 183.7 79.3 183.7 79.3 183.7 79.3 Z M 192.8 79.4 C 191.2 79.2 187.9 79.5 190.8 79.6 C 190.7 79.5 192.7 79.4 193.6 79.5 C 193.6 79.4 194.7 79.3 194.7 79.4 C 195.5 79.2 192.5 79.2 192.8 79.4 C 192.8 79.4 192.8 79.4 192.8 79.4 Z M 179.8 79.7 C 180.2 79.7 179.7 79.3 180.4 79.5 C 180.8 79.4 180.3 79.4 180.4 79.3 C 179.5 79.3 177.7 79.5 177.6 79.3 C 177.2 79.3 177.0 79.5 176.2 79.5 C 176.2 79.5 179.2 79.3 179.8 79.6 C 179.7 79.7 178.6 79.7 179.8 79.7 C 179.8 79.7 179.8 79.7 179.8 79.7 Z M 225.3 95.3 C 225.5 95.3 225.4 94.2 225.6 94.4 C 225.4 93.8 225.5 93.2 225.3 92.6 C 225.4 92.3 225.7 92.3 225.7 91.3 C 225.5 91.3 225.6 91.8 225.5 91.4 C 225.4 90.5 225.6 90.7 225.6 89.7 C 225.3 90.0 225.5 87.6 225.2 88.0 C 225.2 88.5 225.4 88.4 225.3 89.3 C 225.3 89.6 225.2 89.5 225.2 89.9 C 225.0 89.7 225.3 89.1 225.2 88.8 C 225.0 89.0 225.0 89.7 224.9 89.8 C 224.9 90.2 225.0 89.7 225.1 89.7 C 225.1 90.7 224.7 89.9 224.7 91.0 C 224.9 90.7 224.9 90.6 225.1 90.8 C 225.0 91.3 225.1 92.6 224.9 92.0 C 224.8 92.1 225.0 92.8 225.1 92.7 C 225.1 93.1 225.1 93.2 225.0 93.3 C 225.1 94.4 225.2 94.5 225.4 94.2 C 225.6 94.3 225.3 94.6 225.3 95.3 C 225.3 95.3 225.3 95.3 225.3 95.3 Z M 201.6 79.4 C 202.3 79.3 200.8 79.5 200.2 79.4 C 201.0 79.5 200.6 79.7 201.4 79.7 C 201.2 79.7 201.3 79.6 201.8 79.6 C 202.0 79.5 200.8 79.5 201.6 79.4 C 201.6 79.4 201.6 79.4 201.6 79.4 Z M 174.5 79.4 C 174.2 79.3 172.8 79.4 172.1 79.4 C 172.2 79.7 174.0 79.3 174.3 79.6 C 174.7 79.5 174.0 79.5 174.5 79.4 C 174.5 79.4 174.5 79.4 174.5 79.4 Z M 225.6 84.7 C 225.6 84.4 225.5 84.6 225.5 84.8 C 225.4 84.7 225.5 84.1 225.5 83.7 C 225.3 84.4 225.3 83.7 225.1 84.0 C 225.1 83.7 225.1 83.6 225.0 83.5 C 225.4 83.2 224.8 82.0 224.8 83.7 C 225.0 83.3 225.0 83.4 225.0 84.1 C 224.9 84.9 225.1 85.4 224.9 85.8 C 224.9 86.3 225.0 86.4 225.0 87.1 C 224.8 87.3 224.8 88.0 224.5 87.7 C 224.5 88.8 224.9 87.8 225.0 88.7 C 224.9 89.7 224.8 88.4 224.6 88.7 C 224.6 88.9 224.5 88.9 224.5 89.0 C 224.5 89.3 224.7 89.2 224.7 88.9 C 224.7 89.0 224.9 89.8 224.7 89.7 C 224.8 90.2 225.2 88.5 225.0 87.8 C 225.0 87.4 225.4 87.2 225.3 87.6 C 225.5 87.4 225.1 86.8 225.5 86.7 C 225.5 86.4 225.5 86.0 225.5 85.6 C 225.4 85.7 225.4 86.0 225.3 86.0 C 225.3 85.7 225.3 85.3 225.3 84.9 C 225.4 85.2 225.5 85.1 225.6 84.7 C 225.6 84.7 225.6 84.7 225.6 84.7 Z M 178.1 79.5 C 177.4 79.5 177.3 79.6 176.7 79.6 C 176.9 79.8 178.5 79.7 178.1 79.5 C 178.1 79.5 178.1 79.5 178.1 79.5 Z M 224.8 100.0 C 224.9 99.9 224.8 99.5 224.9 99.5 C 225.0 100.3 225.1 99.3 225.4 99.9 C 225.2 98.9 224.8 98.6 224.7 100.0 C 224.7 101.1 224.8 99.0 224.8 100.0 C 224.8 100.0 224.8 100.0 224.8 100.0 Z M 224.9 96.8 C 224.8 96.1 224.7 97.8 224.7 98.2 C 224.6 98.2 224.6 98.2 224.5 98.2 C 224.8 99.1 224.9 97.8 225.2 98.6 C 225.3 97.5 225.4 97.0 225.3 96.1 C 225.2 96.2 225.2 96.4 225.3 96.4 C 225.3 97.1 225.0 96.7 225.1 95.9 C 225.0 96.2 225.0 96.8 225.0 97.3 C 225.0 97.1 225.1 97.0 225.2 97.0 C 225.2 97.5 225.0 97.4 225.0 97.8 C 225.0 97.8 224.8 96.8 224.9 96.8 C 224.9 96.8 224.9 96.8 224.9 96.8 Z M 203.8 129.0 C 204.3 128.9 203.0 128.7 202.8 128.4 C 202.2 128.4 202.1 128.5 201.7 128.5 C 202.0 128.6 202.7 128.6 203.0 128.7 C 203.1 129.0 202.1 128.7 202.0 128.8 C 201.9 129.1 203.3 128.7 203.8 129.0 C 203.8 129.0 203.8 129.0 203.8 129.0 Z M 217.6 79.8 C 217.3 79.8 217.4 79.9 217.5 79.9 C 217.4 79.9 216.9 79.9 217.0 79.9 C 216.6 79.9 217.1 80.0 216.6 80.0 C 216.4 80.1 217.4 80.0 217.5 79.9 C 218.1 79.9 217.4 80.1 217.5 80.2 C 218.0 80.2 218.0 80.1 218.7 80.1 C 218.3 80.0 218.0 79.9 217.6 79.8 C 217.6 79.8 217.6 79.8 217.6 79.8 Z M 225.2 101.8 C 225.2 101.9 224.9 101.2 225.0 100.5 C 225.0 99.6 224.8 101.1 224.9 100.3 C 224.8 101.0 225.0 101.8 225.0 102.9 C 225.1 103.2 225.0 101.4 225.1 102.4 C 225.2 102.3 225.1 102.1 225.1 102.1 C 225.1 101.9 225.1 101.9 225.2 101.8 C 225.2 101.8 225.2 101.8 225.2 101.8 Z M 224.7 100.8 C 224.7 100.9 224.7 101.1 224.7 101.1 C 224.7 101.4 224.6 101.5 224.6 101.1 C 224.3 101.6 224.7 101.5 224.6 102.4 C 224.8 102.0 224.9 101.8 224.7 102.7 C 224.9 103.3 224.9 101.1 224.7 100.8 C 224.7 100.8 224.7 100.8 224.7 100.8 Z M 212.4 128.8 C 212.3 128.8 211.7 128.8 211.3 128.8 C 211.7 128.6 214.0 128.7 214.4 128.8 C 214.6 128.8 214.8 128.8 214.9 128.8 C 214.9 128.8 215.4 128.7 215.0 128.7 C 215.0 128.6 215.5 128.6 215.5 128.5 C 216.3 128.6 215.3 128.7 215.7 128.8 C 216.5 128.6 216.4 128.7 217.6 128.8 C 217.3 128.6 216.0 128.7 215.9 128.4 C 215.2 128.6 214.1 128.5 213.4 128.3 C 214.5 128.6 211.4 128.7 209.8 128.7 C 209.8 128.5 209.3 128.6 208.6 128.5 C 208.0 128.3 208.5 128.7 209.2 128.6 C 209.3 128.7 208.1 128.6 207.6 128.7 C 208.3 128.8 208.0 128.8 208.4 128.9 C 209.4 128.9 208.4 128.8 208.5 128.7 C 208.8 128.7 209.0 128.7 209.3 128.7 C 208.1 129.0 211.5 128.8 210.2 128.8 C 211.3 128.8 211.5 129.0 212.4 128.8 C 212.4 128.8 212.4 128.8 212.4 128.8 Z M 225.2 115.9 C 225.1 115.7 225.0 114.8 225.2 114.8 C 225.0 113.7 224.9 114.6 224.9 113.4 C 224.8 113.4 224.8 113.9 224.7 113.9 C 224.8 114.3 224.9 114.8 225.0 114.8 C 225.0 115.3 225.1 115.5 225.1 115.9 C 225.0 115.7 225.0 115.5 225.0 115.0 C 224.8 114.9 224.7 115.0 224.7 115.7 C 224.9 116.1 225.0 116.0 225.2 115.9 C 225.2 115.9 225.2 115.9 225.2 115.9 Z M 224.9 113.1 C 225.0 113.0 225.0 112.9 225.1 112.9 C 225.3 112.6 224.9 112.7 224.9 112.3 C 224.9 112.0 225.0 112.1 225.0 112.1 C 225.0 111.6 225.0 111.2 225.0 111.0 C 224.9 110.2 224.9 111.8 224.8 112.0 C 224.8 112.5 225.0 112.4 224.9 113.1 C 224.9 113.1 224.9 113.1 224.9 113.1 Z M 225.1 105.1 C 225.3 104.9 225.0 104.7 225.0 104.3 C 224.9 104.5 225.0 105.3 224.7 104.8 C 224.7 105.6 224.7 105.6 224.7 106.4 C 224.6 106.9 224.9 106.5 224.8 105.6 C 224.9 105.7 224.9 106.1 225.0 106.1 C 224.6 106.6 225.2 108.1 224.9 107.2 C 225.0 107.0 225.0 106.8 225.1 106.7 C 224.9 106.5 225.0 104.7 225.1 105.1 C 225.1 105.1 225.1 105.1 225.1 105.1 Z M 223.0 80.2 C 224.0 80.1 224.1 80.1 224.9 80.2 C 224.9 80.2 224.9 80.3 224.9 80.4 C 224.8 80.5 224.8 80.5 224.8 80.3 C 224.7 80.6 224.8 80.9 224.8 81.3 C 224.9 81.2 224.8 81.0 224.8 81.1 C 224.9 80.1 224.9 80.8 225.1 80.8 C 225.1 80.5 225.1 80.2 225.1 80.0 C 224.4 80.0 223.7 80.1 223.5 79.9 C 223.1 80.0 223.5 80.0 223.0 80.2 C 223.0 80.2 223.0 80.2 223.0 80.2 Z M 146.7 128.7 C 146.6 128.7 146.1 128.7 146.2 128.8 C 146.6 128.8 146.9 128.7 147.3 128.7 C 146.5 128.7 146.6 128.4 145.6 128.4 C 145.9 128.5 145.9 128.7 146.7 128.7 C 146.7 128.7 146.7 128.7 146.7 128.7 Z M 225.0 107.8 C 225.0 107.8 224.9 107.8 224.9 107.5 C 224.7 107.4 224.8 108.2 224.7 108.2 C 224.7 108.5 224.8 108.4 224.8 108.8 C 224.9 108.7 224.9 108.0 225.0 108.3 C 225.0 108.5 225.0 108.6 225.0 108.6 C 225.1 109.1 225.1 108.3 225.0 107.8 C 225.0 107.8 225.0 107.8 225.0 107.8 Z M 200.9 128.8 C 201.2 128.8 200.8 128.7 200.5 128.7 C 201.2 128.5 199.8 128.4 199.6 128.2 C 200.1 128.3 201.1 128.2 201.3 128.3 C 201.6 128.3 201.1 128.1 202.0 128.1 C 201.7 127.9 200.9 128.1 201.2 128.2 C 200.8 128.0 200.1 128.2 200.0 128.0 C 198.7 127.9 198.6 128.1 198.6 128.3 C 199.7 128.2 199.4 128.5 200.4 128.5 C 200.4 128.5 200.1 128.5 199.9 128.5 C 200.0 128.7 200.5 128.7 200.9 128.8 C 200.9 128.8 200.9 128.8 200.9 128.8 Z M 225.0 124.5 C 225.0 123.9 224.9 123.8 224.7 123.7 C 224.8 124.0 224.8 124.3 224.8 124.8 C 224.9 124.8 224.9 124.0 225.0 124.5 C 225.0 124.5 225.0 124.5 225.0 124.5 Z M 205.1 128.5 C 205.2 128.6 205.4 128.6 205.3 128.5 C 206.0 128.5 206.3 128.6 206.6 128.7 C 206.9 128.7 206.7 128.6 206.7 128.5 C 206.1 128.6 206.1 128.4 205.2 128.4 C 205.4 128.5 205.3 128.5 205.1 128.5 C 205.1 128.5 205.1 128.5 205.1 128.5 Z M 223.5 128.7 C 223.9 128.6 223.6 128.6 223.5 128.6 C 223.6 128.5 224.3 128.5 224.8 128.5 C 224.8 128.3 224.8 128.1 224.7 127.9 C 224.6 127.7 224.6 129.1 224.6 127.5 C 224.5 127.6 224.5 127.9 224.5 128.2 C 223.9 128.2 223.3 128.3 222.9 128.2 C 222.9 128.1 223.9 128.1 223.6 127.9 C 222.9 128.0 222.0 128.1 222.2 128.4 C 223.4 128.4 223.1 128.5 223.5 128.7 C 223.5 128.7 223.5 128.7 223.5 128.7 Z M 222.1 128.5 C 222.3 128.6 222.4 128.5 222.9 128.5 C 222.0 128.3 221.7 128.4 220.2 128.4 C 220.3 128.4 220.3 128.4 220.4 128.5 C 220.1 128.5 219.8 128.5 219.5 128.5 C 220.9 128.7 221.1 128.5 222.3 128.5 C 222.4 128.5 222.2 128.5 222.1 128.5 C 222.1 128.5 222.1 128.5 222.1 128.5 Z M 224.8 95.5 C 224.7 95.9 224.6 96.2 224.6 96.9 C 224.7 96.8 224.8 96.4 224.8 95.5 C 224.8 95.5 224.8 95.5 224.8 95.5 Z M 203.9 128.4 C 203.2 128.5 204.6 128.4 204.0 128.2 C 203.4 128.2 202.7 128.1 202.4 127.9 C 201.5 128.2 203.8 128.2 203.9 128.4 C 203.9 128.4 203.9 128.4 203.9 128.4 Z M 208.4 128.0 C 208.8 128.0 209.0 128.3 208.5 128.1 C 207.8 128.1 209.3 128.3 208.1 128.2 C 208.7 128.3 209.9 128.4 210.3 128.3 C 210.2 128.1 209.2 128.2 209.0 128.1 C 209.0 128.0 209.1 128.0 209.3 128.0 C 209.1 127.9 208.9 128.0 208.4 128.0 C 208.4 128.0 208.4 128.0 208.4 128.0 Z M 212.8 128.3 C 212.3 128.2 211.7 128.1 210.7 128.1 C 211.4 128.2 211.9 128.4 212.8 128.3 C 212.8 128.3 212.8 128.3 212.8 128.3 Z M 161.1 128.1 C 161.7 128.1 161.1 127.9 161.0 127.8 C 160.3 127.8 160.4 127.9 159.6 127.9 C 159.9 128.1 160.6 127.9 161.1 128.1 C 161.1 128.1 161.1 128.1 161.1 128.1 Z M 158.6 127.9 C 158.5 127.8 157.5 127.9 157.4 127.8 C 157.0 128.1 156.0 127.5 156.1 127.8 C 155.9 127.8 155.6 127.8 155.2 127.8 C 156.1 128.1 157.8 128.0 158.6 127.9 C 158.6 127.9 158.6 127.9 158.6 127.9 Z M 217.1 127.9 C 217.9 128.0 216.7 127.7 217.4 127.7 C 217.4 127.6 215.9 127.6 216.7 127.5 C 215.5 127.4 217.2 127.9 217.1 127.9 C 217.1 127.9 217.1 127.9 217.1 127.9 Z M 224.0 121.8 C 224.1 122.0 224.0 120.9 224.1 120.6 C 224.0 120.5 224.0 120.9 224.0 121.0 C 224.0 120.9 223.9 120.7 223.9 120.5 C 223.8 120.6 224.0 121.4 224.0 121.8 C 224.0 121.8 224.0 121.8 224.0 121.8 Z M 218.6 131.1 C 218.0 130.9 217.2 130.7 217.2 131.0 C 216.5 130.8 217.3 130.8 216.6 130.7 C 215.9 130.8 216.1 130.6 214.9 130.7 C 215.0 130.5 214.0 130.5 213.8 130.3 C 214.2 130.3 215.1 130.5 215.2 130.3 C 214.7 130.3 214.8 130.2 215.1 130.3 C 216.1 130.4 214.3 130.5 215.4 130.6 C 215.5 130.4 217.4 130.8 218.4 130.8 C 218.1 131.0 219.3 131.0 218.6 131.1 C 218.6 131.1 218.6 131.1 218.6 131.1 Z M 213.3 130.7 C 212.6 130.7 211.9 130.3 212.1 130.3 C 212.2 130.4 212.9 130.4 212.9 130.3 C 212.7 130.3 212.6 130.3 212.6 130.3 C 213.9 130.3 213.6 130.5 214.0 130.6 C 213.4 130.7 213.1 130.5 212.9 130.6 C 213.1 130.6 213.2 130.6 213.3 130.7 C 213.3 130.7 213.3 130.7 213.3 130.7 Z M 196.2 127.7 C 196.5 127.8 196.5 127.7 196.8 127.6 C 197.0 127.9 198.1 127.5 198.4 127.7 C 198.2 127.8 197.5 127.8 197.2 127.9 C 197.6 127.9 197.7 127.9 198.0 127.9 C 198.1 128.0 197.3 128.0 197.1 128.2 C 197.0 128.1 196.7 128.2 196.5 128.1 C 197.5 128.0 195.6 127.7 196.2 127.7 C 196.2 127.7 196.2 127.7 196.2 127.7 Z M 223.1 127.7 C 223.0 127.5 221.5 127.1 222.3 126.9 C 222.7 127.0 223.0 127.2 223.1 127.4 C 223.3 127.4 223.5 127.4 223.6 127.4 C 223.6 127.1 223.7 126.9 223.5 126.5 C 223.9 126.1 223.7 126.7 223.8 127.5 C 223.5 127.5 223.2 127.6 223.1 127.7 C 223.1 127.7 223.1 127.7 223.1 127.7 Z M 223.8 124.2 C 223.9 124.6 223.9 124.0 224.1 124.2 C 224.0 124.6 224.1 126.4 224.0 125.7 C 224.0 125.1 223.8 125.0 223.8 124.2 C 223.8 124.2 223.8 124.2 223.8 124.2 Z M 158.3 79.7 C 159.2 79.6 159.7 79.9 159.3 80.0 C 159.4 79.8 158.1 79.9 158.3 79.7 C 158.3 79.7 158.3 79.7 158.3 79.7 Z M 191.1 76.8 C 190.3 76.7 189.7 76.8 189.7 76.6 C 190.5 76.6 190.4 76.7 191.1 76.7 C 191.2 76.6 191.6 76.5 191.7 76.6 C 191.3 76.6 191.3 76.8 191.1 76.8 C 191.1 76.8 191.1 76.8 191.1 76.8 Z M 228.0 109.4 C 228.1 109.3 228.2 109.0 228.3 109.1 C 228.2 110.1 228.3 111.1 228.5 111.9 C 228.4 111.9 228.3 111.9 228.2 111.9 C 228.3 110.4 228.1 110.0 228.0 109.4 C 228.0 109.4 228.0 109.4 228.0 109.4 Z M 228.4 107.6 C 228.3 107.5 228.1 107.9 228.1 107.3 C 228.2 107.3 228.4 106.2 228.5 106.7 C 228.3 106.9 228.3 107.2 228.4 107.6 C 228.4 107.6 228.4 107.6 228.4 107.6 Z M 202.7 131.2 C 202.0 131.2 203.1 131.3 203.2 131.4 C 202.6 131.4 202.0 131.4 201.7 131.3 C 202.2 131.3 202.3 131.0 202.7 131.2 C 202.7 131.2 202.7 131.2 202.7 131.2 Z M 212.7 130.8 C 214.2 130.7 213.8 131.1 215.3 131.1 C 214.8 131.2 213.5 131.2 213.2 131.4 C 213.2 131.2 212.8 131.2 212.8 131.1 C 213.3 131.1 213.4 131.2 213.9 131.2 C 213.6 131.0 213.6 131.1 213.7 130.9 C 213.3 130.9 213.1 130.9 212.9 130.9 C 212.9 130.8 212.3 130.8 212.7 130.8 C 212.7 130.8 212.7 130.8 212.7 130.8 Z M 202.6 130.7 C 202.1 130.8 201.4 130.5 201.9 130.5 C 202.1 130.6 202.3 130.5 202.5 130.6 C 201.7 130.6 203.2 130.7 203.0 130.8 C 202.5 130.8 202.4 130.9 202.6 131.0 C 202.2 131.0 201.8 131.0 201.7 130.9 C 201.9 130.9 202.2 130.9 202.2 130.9 C 202.0 130.9 201.8 130.9 201.9 130.8 C 202.3 130.8 202.5 130.8 202.6 130.7 C 202.6 130.7 202.6 130.7 202.6 130.7 Z M 206.5 130.7 C 205.7 130.7 205.5 130.5 205.2 130.4 C 206.2 130.5 206.6 130.7 207.5 130.8 C 206.6 130.8 205.9 131.0 205.5 130.9 C 205.9 130.8 206.6 130.8 206.5 130.7 C 206.5 130.7 206.5 130.7 206.5 130.7 Z M 123.9 117.6 C 124.0 116.9 124.1 116.4 124.2 115.7 C 124.0 115.4 123.6 116.7 123.7 116.2 C 123.7 115.4 124.0 116.0 124.0 115.4 C 123.7 115.9 123.7 112.6 124.0 112.6 C 124.0 113.1 124.0 113.3 124.2 113.2 C 124.1 114.5 124.3 115.0 124.3 116.0 C 124.1 116.7 124.0 118.7 124.3 119.9 C 123.9 120.6 124.3 122.0 124.0 123.0 C 124.2 123.2 124.2 122.1 124.3 123.0 C 124.1 123.5 124.0 123.1 123.9 123.8 C 124.0 123.9 124.1 123.7 124.2 124.1 C 124.0 124.0 124.0 124.5 124.0 124.6 C 124.0 123.1 123.7 124.7 123.7 123.5 C 123.8 123.0 124.0 124.0 124.0 122.7 C 123.9 122.2 123.9 121.7 123.7 121.8 C 123.7 121.4 123.7 121.2 123.6 120.9 C 123.8 121.5 123.6 119.0 123.8 120.1 C 123.8 120.2 123.8 121.0 123.9 121.5 C 124.1 121.1 123.9 120.5 123.9 119.6 C 124.0 119.2 124.0 119.8 124.1 119.3 C 124.0 118.6 123.8 119.5 123.7 119.0 C 123.7 119.2 123.7 119.5 123.7 119.5 C 123.9 118.4 123.7 117.9 123.7 117.3 C 123.8 117.7 123.8 116.6 123.9 117.6 C 123.9 117.6 123.9 117.6 123.9 117.6 Z M 124.1 127.7 C 124.1 128.0 124.1 128.3 124.1 128.6 C 123.9 128.6 123.9 127.5 123.7 128.3 C 123.8 127.0 124.0 128.3 124.1 127.7 C 124.1 127.7 124.1 127.7 124.1 127.7 Z M 124.8 122.2 C 125.0 121.9 124.5 122.0 124.5 121.6 C 124.6 122.3 124.6 123.0 124.4 123.0 C 124.5 122.2 124.5 121.9 124.4 121.1 C 124.7 121.9 124.6 120.2 124.8 120.0 C 124.9 120.6 124.9 121.1 124.9 122.0 C 124.9 121.8 124.8 123.0 124.8 122.2 C 124.8 122.2 124.8 122.2 124.8 122.2 Z M 125.0 124.5 C 124.9 124.6 125.0 125.8 124.8 125.6 C 124.8 124.8 124.7 124.6 124.6 124.7 C 124.6 124.2 124.7 124.1 124.6 123.6 C 124.9 123.3 124.8 124.2 124.9 124.5 C 124.9 124.3 125.0 124.2 125.0 124.5 C 125.0 124.5 125.0 124.5 125.0 124.5 Z M 140.3 128.1 C 140.6 128.3 139.5 128.2 139.3 128.1 C 139.6 128.3 139.4 128.3 138.8 128.4 C 139.0 128.2 138.0 128.3 137.4 128.0 C 137.2 128.2 138.0 128.2 137.1 128.3 C 136.4 128.2 135.7 128.3 134.7 128.4 C 134.4 128.2 134.9 128.1 135.2 128.1 C 134.4 128.1 134.6 127.9 134.1 127.9 C 134.2 128.0 133.7 128.1 133.5 128.0 C 134.5 127.9 132.2 127.8 133.2 127.7 C 133.3 127.8 133.5 127.7 133.8 127.7 C 133.5 127.9 134.8 127.9 135.1 128.0 C 135.6 127.6 137.1 127.7 138.7 127.9 C 138.8 128.0 138.3 128.0 138.7 128.1 C 138.8 128.0 139.3 128.0 139.5 127.9 C 139.5 128.0 139.7 128.1 140.1 128.1 C 140.1 128.1 140.1 128.0 140.3 128.1 C 140.3 128.1 140.3 128.1 140.3 128.1 Z M 132.6 80.5 C 132.9 80.8 134.4 80.6 134.8 80.5 C 135.0 80.9 131.9 80.8 132.6 80.5 C 132.6 80.5 132.6 80.5 132.6 80.5 Z M 126.1 84.5 C 126.1 84.0 125.9 84.2 125.9 83.8 C 126.1 83.9 125.7 82.5 125.9 82.7 C 126.1 83.3 126.1 83.6 126.1 84.5 C 126.1 84.5 126.1 84.5 126.1 84.5 Z M 126.0 94.1 C 126.0 93.3 125.9 94.5 125.8 94.3 C 125.9 93.6 125.9 92.9 126.0 93.0 C 125.9 93.6 126.2 94.2 126.0 94.1 C 126.0 94.1 126.0 94.1 126.0 94.1 Z M 127.3 80.9 C 128.1 81.0 127.2 81.2 127.0 81.1 C 127.5 81.0 126.9 81.0 126.3 80.9 C 126.3 81.1 126.3 81.3 126.3 81.5 C 126.1 81.2 126.2 81.0 126.0 81.1 C 125.9 80.5 126.0 80.6 126.1 80.7 C 126.1 80.7 126.2 80.8 126.4 80.8 C 126.8 80.6 126.3 80.7 126.2 80.5 C 126.5 80.5 126.7 80.5 127.0 80.5 C 127.1 80.6 127.2 80.7 127.3 80.8 C 127.0 80.8 126.7 80.8 126.9 80.9 C 127.1 80.9 127.1 80.9 127.3 80.9 C 127.3 80.9 127.3 80.9 127.3 80.9 Z M 126.2 127.7 C 125.7 127.7 126.1 127.8 126.4 127.8 C 126.5 127.7 126.8 127.4 127.2 127.6 C 126.2 127.7 127.6 127.8 127.0 127.9 C 126.7 127.8 126.1 128.0 125.6 127.9 C 125.4 127.8 125.9 127.5 126.2 127.7 C 126.2 127.7 126.2 127.7 126.2 127.7 Z M 128.1 127.8 C 128.0 127.8 127.8 127.7 127.5 127.8 C 127.9 127.6 127.4 127.6 127.8 127.5 C 127.7 127.6 129.2 127.6 128.3 127.7 C 127.6 127.6 128.6 127.8 128.9 127.8 C 128.5 127.8 127.9 128.0 127.8 127.9 C 128.0 127.9 128.1 127.9 128.1 127.8 C 128.1 127.8 128.1 127.8 128.1 127.8 Z M 145.7 127.6 C 145.8 127.5 145.3 127.5 145.1 127.4 C 146.5 127.4 147.7 127.4 148.4 127.5 C 147.7 127.5 147.8 127.6 148.2 127.7 C 147.5 127.6 147.3 127.7 147.1 127.6 C 147.6 127.5 146.5 127.6 145.7 127.6 C 145.7 127.6 145.7 127.6 145.7 127.6 Z M 145.7 127.6 " fill="#000000"></path><g><clipPath id="clip0x6000016bbde0"><path d="M 124.3 78.9 L 226.2 78.9 L 226.2 129.9 L 124.3 129.9 Z M 124.3 78.9 "></path></clipPath><g clip-path="url(#clip0x6000016bbde0)"><text xml:space="preserve" font-family="Helvetica-Light,Helvetica" font-size="30.0" fill="#000000" transform="matrix(1.00, 0.00, -0.00, -1.00, 166.9, 93.3)">1</text></g></g></g></svg>