<?xml version="1.0" encoding="UTF-8" standalone="no"?><svg xmlns="http://www.w3.org/2000/svg" xmlns:xlink="http://www.w3.org/1999/xlink" clip-rule="evenodd" stroke-miterlimit="10" viewBox="0 0 1920 1080"><desc>SVG generated by Keynote</desc><defs><linearGradient id="gradSh1.184" x1="0.0" y1="0.0" x2="100.0" y2="0.0" gradientUnits="userSpaceOnUse" gradientTransform="matrix(0.00, -0.52, -1.03, 0.00, 1702.0, 68.4)"><stop offset="0.00000" stop-color="#45A3D0"></stop><stop offset="0.00660" stop-color="#45A3CF"></stop><stop offset="0.07991" stop-color="#3F9ECA"></stop><stop offset="0.08138" stop-color="#3F9DCA"></stop><stop offset="0.54399" stop-color="#1F7EA6"></stop><stop offset="0.55205" stop-color="#1F7DA5"></stop><stop offset="0.77566" stop-color="#0F6E94"></stop><stop offset="0.78592" stop-color="#0F6E93"></stop><stop offset="0.89150" stop-color="#07668B"></stop><stop offset="0.90323" stop-color="#07668A"></stop><stop offset="0.94941" stop-color="#036287"></stop><stop offset="0.95528" stop-color="#036286"></stop><stop offset="0.97874" stop-color="#016085"></stop><stop offset="0.98094" stop-color="#016084"></stop><stop offset="0.99340" stop-color="#005F84"></stop><stop offset="0.99413" stop-color="#005F83"></stop><stop offset="1.00000" stop-color="#005F83"></stop></linearGradient></defs><g transform="matrix(1.00, 0.00, -0.00, -1.00, 0.0, 1080.0)"><path d="M 0.0 1080.0 L 1920.0 1080.0 L 1920.0 0.0 L 0.0 0.0 Z M 0.0 1080.0 " fill="#FEFFFF"></path><g><clipPath id="clip0x608021aaabc0"><path d="M 0.0 1080.0 L 1920.0 1080.0 L 1920.0 0.0 L 0.0 0.0 Z M 0.0 1080.0 "></path></clipPath><g clip-path="url(#clip0x608021aaabc0)"><image xlink:href="../../D0104557-FECC-4E43-82D7-1055FAA9CCAD/assets/B93183FF2251CC2C84E88FCFE2F59923.jpeg" width="2880.00" height="1921.00" transform="matrix(0.67, 0.00, -0.00, -0.67, 0.0, 1080.0)"></image></g></g><image xlink:href="../../D0104557-FECC-4E43-82D7-1055FAA9CCAD/assets/88E5B0976F8E3E7B7BFB4D16AAF8246E.png" width="347.00" height="150.00" transform="matrix(1.00, 0.00, -0.00, -1.00, 1528.5, 89.4)" opacity="0.75"></image><g><clipPath id="clip0x6000204b2ba0"><path d="M 1651.5 67.4 L 1752.4 67.4 L 1752.4 17.4 L 1651.5 17.4 Z M 1651.5 67.4 "></path></clipPath><g clip-path="url(#clip0x6000204b2ba0)"><path d="M 1651.5 67.4 L 1752.4 67.4 L 1752.4 17.4 L 1651.5 17.4 Z M 1651.5 67.4 " fill="url(#gradSh1.184)"></path></g></g><path d="M 1755.3 30.5 C 1755.3 30.3 1755.3 30.1 1755.3 29.6 C 1755.2 29.8 1755.2 30.0 1755.1 30.0 C 1755.1 30.4 1755.2 30.8 1755.1 31.5 C 1755.2 31.5 1755.2 31.1 1755.2 30.9 C 1755.2 30.6 1755.3 30.6 1755.3 30.5 C 1755.3 30.5 1755.3 30.5 1755.3 30.5 Z M 1687.6 14.9 C 1688.2 14.9 1687.5 14.8 1687.3 14.7 C 1687.3 14.8 1687.2 14.8 1687.0 14.8 C 1686.9 14.7 1687.4 14.6 1687.8 14.6 C 1689.4 14.7 1688.3 14.9 1687.6 14.9 C 1687.6 14.9 1687.6 14.9 1687.6 14.9 Z M 1649.1 54.1 C 1649.1 55.4 1649.3 54.1 1649.4 53.9 C 1649.4 54.5 1649.7 54.1 1649.7 54.8 C 1649.7 55.0 1649.6 55.2 1649.5 55.3 C 1649.5 55.0 1649.5 54.5 1649.4 54.5 C 1649.4 54.9 1649.5 55.5 1649.4 55.6 C 1649.3 54.6 1649.2 55.4 1649.1 55.5 C 1649.1 54.7 1648.9 54.3 1649.1 54.1 C 1649.1 54.1 1649.1 54.1 1649.1 54.1 Z M 1701.1 69.4 C 1700.8 69.4 1700.5 69.4 1700.5 69.3 C 1700.9 69.3 1701.2 69.3 1701.4 69.4 C 1701.4 69.3 1701.3 69.2 1701.6 69.2 C 1702.0 69.3 1702.0 69.6 1701.8 69.7 C 1701.7 69.5 1700.5 69.6 1701.1 69.4 C 1701.1 69.4 1701.1 69.4 1701.1 69.4 Z M 1732.8 69.1 C 1733.9 69.2 1732.6 68.9 1733.7 68.9 C 1733.8 69.1 1734.2 69.3 1733.5 69.3 C 1733.3 69.2 1732.9 69.2 1732.8 69.1 C 1732.8 69.1 1732.8 69.1 1732.8 69.1 Z M 1650.5 22.6 C 1650.4 22.5 1650.5 23.3 1650.3 23.0 C 1650.3 22.6 1650.3 22.2 1650.3 21.8 C 1650.4 21.9 1650.5 22.1 1650.5 22.6 C 1650.5 22.6 1650.5 22.6 1650.5 22.6 Z M 1650.9 62.9 C 1650.7 64.2 1651.0 65.6 1650.8 65.2 C 1650.6 65.7 1650.3 64.2 1650.5 64.3 C 1650.7 64.2 1650.9 61.9 1650.9 62.9 C 1650.9 62.9 1650.9 62.9 1650.9 62.9 Z M 1682.2 18.0 C 1680.8 17.9 1681.3 18.4 1680.3 18.2 C 1680.6 18.2 1680.7 18.1 1680.8 18.0 C 1680.6 18.0 1680.3 18.0 1680.3 18.0 C 1680.9 18.0 1681.6 17.9 1682.2 18.0 C 1682.2 18.0 1682.2 18.0 1682.2 18.0 Z M 1754.9 51.4 C 1754.9 51.6 1754.9 51.7 1755.0 51.7 C 1755.0 52.7 1755.1 52.7 1755.0 53.3 C 1754.8 53.2 1754.9 52.4 1754.9 51.7 C 1754.9 51.7 1754.8 51.4 1754.9 51.4 C 1754.9 51.4 1754.9 51.4 1754.9 51.4 Z M 1746.6 69.2 C 1746.8 69.4 1747.3 69.4 1746.6 69.5 C 1745.4 69.3 1746.1 69.1 1747.0 69.0 C 1746.9 68.9 1746.8 68.8 1746.8 68.8 C 1746.4 68.8 1746.1 68.7 1745.9 68.7 C 1745.9 69.0 1744.8 68.5 1743.6 68.6 C 1744.1 68.5 1743.2 68.3 1744.2 68.4 C 1743.8 68.2 1744.4 68.2 1744.2 68.1 C 1743.9 68.2 1742.9 68.2 1743.3 68.4 C 1742.9 68.4 1742.5 68.4 1742.2 68.3 C 1741.7 68.1 1743.0 68.3 1742.5 68.1 C 1742.2 68.1 1742.1 68.1 1741.9 68.0 C 1741.9 68.1 1742.1 68.2 1741.8 68.2 C 1740.8 68.2 1741.8 68.0 1740.5 68.0 C 1740.5 68.1 1740.9 68.1 1741.0 68.2 C 1740.5 68.3 1740.4 68.2 1739.9 68.3 C 1739.7 68.2 1740.2 68.1 1739.7 68.1 C 1739.6 68.4 1738.4 67.9 1737.8 68.2 C 1738.7 68.5 1737.6 68.1 1737.2 68.5 C 1737.0 68.4 1737.3 68.1 1736.7 68.1 C 1737.3 68.6 1734.7 68.4 1737.0 68.8 C 1735.9 68.8 1735.9 69.2 1736.8 69.2 C 1734.8 69.1 1735.6 69.4 1734.9 69.4 C 1734.2 69.4 1735.2 69.3 1734.8 69.2 C 1735.5 69.2 1735.2 69.1 1735.9 69.2 C 1735.8 69.1 1735.9 69.0 1736.0 69.0 C 1735.4 69.1 1734.2 68.9 1734.6 68.6 C 1735.0 68.7 1734.8 68.9 1735.4 68.9 C 1734.9 68.6 1735.9 68.9 1735.8 68.8 C 1735.3 68.5 1736.2 68.3 1735.1 68.3 C 1735.2 68.4 1735.3 68.5 1735.4 68.6 C 1735.1 68.6 1734.8 68.6 1734.6 68.6 C 1734.2 68.4 1734.3 68.3 1734.0 68.2 C 1733.5 68.2 1733.3 68.3 1733.2 68.3 C 1733.8 68.4 1734.6 68.5 1733.7 68.6 C 1733.8 68.2 1732.3 68.5 1732.9 68.3 C 1731.8 68.2 1731.5 68.5 1731.2 68.2 C 1730.7 68.2 1731.2 68.4 1730.5 68.4 C 1729.3 68.2 1729.7 68.5 1728.2 68.3 C 1728.3 68.6 1728.0 68.3 1727.6 68.3 C 1727.7 68.4 1727.8 68.5 1727.8 68.6 C 1727.2 68.4 1726.0 68.3 1725.0 68.5 C 1724.7 68.5 1724.8 68.3 1724.0 68.3 C 1723.4 68.6 1722.2 68.3 1721.4 68.6 C 1721.2 68.4 1720.6 68.4 1720.3 68.5 C 1720.0 68.4 1720.4 68.2 1719.8 68.2 C 1719.5 68.4 1720.2 68.4 1719.4 68.5 C 1719.4 68.3 1718.7 68.7 1718.5 68.5 C 1718.8 68.4 1719.0 68.3 1719.3 68.3 C 1718.9 68.3 1718.9 68.2 1718.6 68.2 C 1718.8 68.4 1718.0 68.2 1717.8 68.2 C 1717.9 68.3 1717.8 68.3 1717.7 68.4 C 1717.2 68.4 1716.8 68.4 1716.6 68.5 C 1715.9 68.4 1716.8 68.3 1716.2 68.3 C 1716.2 68.7 1715.2 68.2 1714.1 68.5 C 1713.7 68.4 1713.1 68.3 1712.3 68.3 C 1712.3 68.4 1713.1 68.3 1713.2 68.5 C 1712.0 68.4 1713.5 68.6 1712.7 68.6 C 1710.9 68.5 1709.8 68.5 1707.9 68.3 C 1708.0 68.5 1706.6 68.6 1706.6 68.5 C 1706.9 68.5 1705.7 68.3 1705.0 68.3 C 1705.0 68.6 1704.3 68.9 1704.3 69.0 C 1704.0 68.9 1704.0 68.8 1703.8 68.6 C 1702.7 68.5 1702.3 68.8 1701.5 68.5 C 1701.6 68.6 1701.2 68.6 1700.8 68.7 C 1700.8 68.6 1701.0 68.4 1701.2 68.3 C 1700.6 68.4 1700.5 68.3 1700.0 68.3 C 1699.8 68.8 1698.7 68.2 1698.5 68.6 C 1697.7 68.6 1697.8 68.5 1697.0 68.5 C 1697.1 68.6 1697.1 68.6 1696.9 68.7 C 1697.3 68.6 1697.6 68.5 1698.0 68.7 C 1696.9 68.8 1700.3 69.2 1698.6 69.4 C 1698.5 69.3 1698.6 69.2 1698.2 69.2 C 1697.2 69.3 1697.9 69.4 1698.3 69.4 C 1697.7 69.5 1696.9 69.4 1697.6 69.7 C 1696.0 69.7 1696.9 69.6 1696.4 69.5 C 1693.6 69.6 1690.1 69.7 1686.2 69.5 C 1686.2 69.7 1684.0 69.5 1683.3 69.4 C 1682.3 69.5 1681.2 69.6 1680.8 69.4 C 1680.7 69.6 1679.5 69.2 1679.4 69.4 C 1679.9 69.4 1680.2 69.5 1679.7 69.5 C 1678.1 69.4 1675.8 69.4 1674.9 69.5 C 1674.3 69.3 1673.3 69.4 1672.7 69.5 C 1672.5 69.4 1673.1 69.3 1672.6 69.3 C 1672.5 69.4 1671.1 69.5 1670.7 69.4 C 1671.1 69.4 1671.6 69.2 1670.9 69.2 C 1670.9 69.3 1670.2 69.3 1670.4 69.4 C 1669.4 69.3 1668.9 69.5 1668.1 69.4 C 1668.8 69.3 1669.1 69.3 1669.2 69.1 C 1668.7 69.2 1668.3 69.3 1667.8 69.1 C 1668.0 69.4 1667.1 69.2 1666.2 69.4 C 1665.9 69.3 1665.7 69.2 1665.0 69.2 C 1664.7 69.3 1666.2 69.4 1665.3 69.4 C 1665.3 69.3 1664.5 69.2 1664.8 69.4 C 1663.8 69.3 1663.3 69.5 1662.5 69.3 C 1663.5 69.4 1662.7 69.1 1662.5 69.1 C 1662.2 69.1 1661.9 69.1 1661.9 69.1 C 1661.9 69.2 1662.4 69.2 1662.5 69.2 C 1661.8 69.2 1661.6 69.5 1661.4 69.3 C 1661.7 69.3 1661.7 69.2 1661.4 69.2 C 1661.3 69.5 1659.3 69.3 1660.0 69.1 C 1660.0 69.2 1660.7 69.2 1660.8 69.1 C 1660.6 69.0 1659.4 69.1 1659.7 68.9 C 1660.3 68.9 1660.3 69.0 1661.1 69.0 C 1661.1 68.9 1661.6 68.8 1661.9 68.8 C 1660.6 68.8 1660.4 69.0 1660.2 68.8 C 1659.6 68.8 1660.0 69.0 1659.1 68.9 C 1657.8 68.9 1658.9 68.7 1658.5 68.6 C 1657.4 68.7 1657.8 69.0 1658.3 69.2 C 1657.4 69.2 1657.1 69.3 1656.0 69.2 C 1656.1 69.1 1656.2 69.0 1656.6 69.0 C 1656.6 69.0 1657.5 69.2 1657.4 69.1 C 1657.3 68.8 1656.6 68.7 1655.4 68.6 C 1655.7 68.9 1655.7 68.7 1654.6 68.8 C 1654.8 69.0 1654.0 68.7 1654.0 68.9 C 1654.1 68.9 1654.5 68.9 1654.9 68.9 C 1654.9 69.0 1654.7 69.1 1654.3 69.2 C 1654.1 69.1 1653.9 69.2 1653.2 69.1 C 1653.2 69.0 1653.6 68.9 1653.8 68.8 C 1653.4 68.8 1653.3 68.9 1652.9 68.9 C 1652.6 68.8 1652.6 68.5 1652.6 68.3 C 1653.1 68.2 1653.7 68.2 1653.2 68.1 C 1654.8 68.1 1653.1 68.4 1653.7 68.4 C 1654.4 68.1 1654.0 68.5 1655.1 68.5 C 1655.5 68.4 1655.6 68.4 1655.7 68.3 C 1655.6 68.3 1655.0 68.1 1655.7 68.1 C 1655.9 68.2 1656.2 68.3 1656.8 68.3 C 1656.8 68.2 1655.6 68.1 1656.8 68.2 C 1657.4 68.2 1656.9 68.4 1657.7 68.4 C 1657.7 68.3 1657.9 68.3 1657.9 68.3 C 1656.8 68.3 1658.1 68.1 1657.4 68.0 C 1658.3 67.9 1657.5 68.2 1658.2 68.2 C 1658.2 68.1 1659.3 68.3 1659.3 68.1 C 1658.9 68.2 1658.1 68.2 1658.2 68.0 C 1658.9 68.0 1662.3 67.9 1661.0 68.2 C 1661.5 68.0 1663.9 67.8 1663.7 67.9 C 1663.0 67.9 1663.0 68.0 1662.9 68.2 C 1664.3 67.9 1665.0 68.1 1666.5 67.9 C 1664.8 67.8 1666.0 67.5 1665.1 67.4 C 1664.6 67.4 1664.0 67.4 1663.9 67.4 C 1664.1 67.6 1664.8 67.5 1665.1 67.4 C 1665.1 67.6 1665.1 67.8 1665.1 67.9 C 1663.3 67.7 1662.3 67.9 1661.5 67.9 C 1662.2 67.8 1660.1 67.6 1660.9 67.6 C 1661.3 67.7 1662.2 67.7 1662.9 67.7 C 1662.9 67.7 1662.9 67.6 1662.9 67.6 C 1663.2 67.5 1663.7 67.6 1663.7 67.5 C 1662.7 67.5 1662.1 67.3 1661.5 67.5 C 1661.5 67.5 1661.5 67.4 1661.5 67.4 C 1661.3 67.4 1661.1 67.4 1661.2 67.3 C 1661.5 67.3 1662.0 67.3 1662.0 67.3 C 1661.3 67.2 1661.1 67.0 1660.3 67.0 C 1660.5 66.8 1659.4 66.6 1660.6 66.5 C 1660.8 66.7 1661.4 66.7 1661.4 66.8 C 1661.8 66.9 1662.4 66.9 1662.8 66.8 C 1662.4 66.6 1661.7 66.6 1661.6 66.4 C 1662.2 66.4 1662.7 66.3 1663.0 66.5 C 1661.9 66.6 1663.7 66.6 1664.2 66.8 C 1664.0 66.7 1663.7 66.7 1663.6 66.6 C 1664.5 66.6 1664.9 66.7 1664.9 66.5 C 1666.0 66.4 1665.8 66.6 1666.6 66.6 C 1666.0 66.4 1667.1 66.5 1666.5 66.2 C 1667.8 66.2 1666.9 66.5 1667.4 66.5 C 1667.8 66.5 1667.8 66.4 1668.2 66.4 C 1668.8 66.5 1670.0 66.5 1670.2 66.7 C 1670.7 66.7 1670.8 66.8 1671.3 66.8 C 1671.4 66.7 1671.6 66.6 1671.8 66.6 C 1671.9 66.7 1672.3 66.7 1672.4 66.7 C 1670.9 66.4 1671.3 66.4 1669.8 66.2 C 1669.7 66.3 1669.5 66.3 1669.8 66.4 C 1668.8 66.4 1668.5 66.3 1667.6 66.3 C 1667.5 66.1 1667.3 65.9 1666.5 66.1 C 1666.7 65.9 1666.4 65.8 1666.8 65.8 C 1667.2 65.9 1667.8 65.9 1668.4 66.0 C 1668.4 65.9 1668.3 65.8 1668.6 65.8 C 1669.0 65.9 1669.4 66.0 1669.8 65.9 C 1669.8 66.0 1669.7 66.0 1669.5 66.1 C 1670.9 66.1 1670.3 65.9 1671.4 66.0 C 1671.2 65.9 1670.6 65.9 1671.1 65.8 C 1672.0 65.7 1672.3 65.8 1672.7 65.9 C 1672.8 65.8 1672.7 65.8 1673.0 65.8 C 1673.7 65.9 1671.6 66.1 1672.8 66.4 C 1672.9 66.2 1674.0 66.2 1674.2 66.4 C 1673.9 66.5 1673.2 66.3 1673.1 66.4 C 1675.2 66.4 1673.3 66.7 1675.4 66.8 C 1675.4 66.7 1675.4 66.6 1675.4 66.5 C 1674.5 66.6 1674.5 66.4 1674.5 66.2 C 1673.7 66.2 1673.4 66.0 1672.8 66.1 C 1673.0 65.8 1673.4 66.1 1674.2 66.1 C 1674.1 65.9 1673.4 65.9 1673.3 65.8 C 1675.1 65.9 1675.4 65.7 1677.1 65.9 C 1676.7 65.7 1678.0 65.9 1677.9 65.8 C 1676.4 65.8 1676.9 65.3 1676.7 65.2 C 1675.7 65.2 1676.2 65.6 1675.7 65.7 C 1675.4 65.5 1675.5 65.4 1675.6 65.2 C 1676.4 65.2 1676.3 65.2 1676.9 65.1 C 1677.5 65.3 1678.1 65.6 1677.3 65.7 C 1677.5 65.7 1678.6 65.6 1678.7 65.7 C 1677.6 65.7 1678.8 65.8 1678.2 65.9 C 1679.1 66.0 1680.5 65.8 1681.5 65.9 C 1681.4 65.8 1681.7 65.8 1681.7 65.7 C 1680.7 65.9 1680.4 65.5 1679.4 65.5 C 1679.9 65.4 1679.6 65.3 1679.4 65.3 C 1680.4 65.4 1680.8 65.2 1681.6 65.4 C 1681.6 65.3 1681.6 65.3 1681.5 65.2 C 1682.7 65.4 1682.6 65.3 1683.4 65.2 C 1683.8 65.3 1683.4 65.6 1683.3 65.8 C 1683.7 65.7 1685.3 65.7 1684.4 65.5 C 1685.3 65.5 1685.1 65.8 1686.0 65.8 C 1686.0 65.6 1685.1 65.6 1685.4 65.3 C 1686.2 65.3 1685.8 65.6 1686.5 65.4 C 1686.6 65.6 1686.6 65.7 1687.4 65.7 C 1686.8 65.6 1687.4 65.6 1687.6 65.5 C 1687.2 65.5 1686.9 65.5 1686.7 65.4 C 1688.1 65.4 1688.4 65.4 1689.4 65.4 C 1689.1 65.6 1689.7 65.7 1689.0 65.8 C 1689.7 65.6 1690.6 65.9 1690.9 65.8 C 1690.5 65.7 1689.8 65.7 1689.5 65.6 C 1691.6 65.5 1692.7 65.3 1694.7 65.6 C 1694.3 65.6 1693.9 65.6 1693.9 65.6 C 1694.1 65.6 1694.4 65.6 1694.4 65.7 C 1693.8 65.7 1693.1 65.7 1692.8 65.8 C 1692.2 65.7 1693.1 65.6 1692.5 65.6 C 1692.4 65.7 1691.2 65.6 1691.8 65.8 C 1692.7 65.6 1693.8 65.8 1694.4 66.1 C 1695.2 65.8 1694.3 65.8 1695.2 65.5 C 1695.2 65.6 1695.4 65.6 1695.8 65.6 C 1695.3 65.4 1696.7 65.5 1696.8 65.5 C 1696.4 65.6 1694.6 65.8 1695.7 66.0 C 1695.0 65.5 1697.8 66.1 1697.2 65.8 C 1698.3 65.7 1698.0 66.0 1698.6 65.8 C 1698.6 65.8 1698.6 65.9 1698.9 65.9 C 1699.2 65.9 1699.3 65.9 1699.4 65.8 C 1697.7 65.7 1698.1 65.5 1697.0 65.5 C 1697.2 65.4 1697.4 65.4 1697.3 65.4 C 1697.3 65.4 1697.3 65.3 1697.5 65.3 C 1697.7 65.6 1698.4 65.3 1698.7 65.5 C 1698.4 65.5 1698.0 65.5 1698.2 65.6 C 1699.5 65.5 1699.4 65.8 1701.3 65.9 C 1700.7 65.8 1701.4 65.7 1702.0 65.7 C 1703.0 65.7 1702.8 66.0 1703.8 66.0 C 1703.5 65.5 1705.0 66.0 1706.2 65.8 C 1706.2 66.0 1707.9 66.1 1708.1 65.9 C 1708.2 66.0 1708.8 65.9 1709.3 65.9 C 1709.4 66.0 1709.0 66.1 1709.4 66.1 C 1709.7 66.1 1709.3 65.9 1709.8 65.9 C 1710.4 65.9 1710.4 66.1 1711.3 66.1 C 1711.2 66.0 1710.7 66.0 1711.1 65.9 C 1711.9 65.9 1712.6 65.9 1711.9 65.8 C 1713.0 65.7 1712.6 66.1 1713.7 66.1 C 1713.3 66.0 1713.3 65.9 1713.8 65.9 C 1714.3 66.0 1714.4 66.1 1714.6 66.2 C 1714.8 66.0 1714.7 66.0 1715.6 66.1 C 1715.5 66.0 1715.5 65.9 1715.4 65.8 C 1715.9 65.8 1716.4 65.8 1716.6 65.9 C 1715.8 65.8 1716.1 66.0 1715.9 66.1 C 1716.6 66.1 1718.2 66.3 1717.0 66.1 C 1717.9 66.0 1717.6 66.2 1718.4 66.2 C 1717.8 66.0 1718.3 66.1 1719.2 66.1 C 1718.9 65.9 1719.7 66.1 1720.2 66.1 C 1720.1 65.9 1720.1 65.8 1720.6 65.8 C 1720.6 65.9 1721.0 66.0 1721.5 65.9 C 1721.4 65.8 1720.2 65.7 1721.4 65.8 C 1722.0 65.8 1722.1 66.0 1723.0 66.1 C 1723.3 66.2 1722.3 66.2 1722.6 66.4 C 1723.2 66.2 1723.5 66.3 1724.5 66.4 C 1723.9 66.0 1726.2 65.9 1724.9 65.8 C 1725.3 65.8 1725.6 65.5 1726.0 65.7 C 1725.6 65.7 1726.4 65.9 1726.4 65.9 C 1726.9 65.9 1728.1 66.0 1728.0 65.9 C 1727.0 65.9 1726.9 65.7 1726.5 65.6 C 1727.9 65.5 1729.3 65.6 1729.3 65.8 C 1729.3 65.8 1729.5 65.7 1729.5 65.7 C 1729.0 65.7 1728.4 65.4 1729.0 65.4 C 1729.0 65.6 1729.5 65.6 1730.0 65.7 C 1729.9 65.5 1732.1 65.8 1731.5 65.5 C 1730.8 65.7 1730.0 65.4 1730.5 65.3 C 1731.1 65.4 1732.3 65.5 1732.2 65.7 C 1732.4 65.6 1732.7 65.6 1732.9 65.5 C 1733.0 65.3 1732.4 65.4 1732.4 65.2 C 1732.8 65.2 1733.3 65.2 1733.5 65.3 C 1732.4 65.3 1734.1 65.4 1733.1 65.5 C 1733.8 65.5 1734.1 65.6 1734.6 65.6 C 1734.6 65.6 1734.8 65.6 1734.8 65.5 C 1734.4 65.6 1733.8 65.5 1733.8 65.3 C 1734.7 65.3 1734.8 65.5 1735.6 65.5 C 1735.7 65.4 1736.6 65.1 1737.3 65.3 C 1736.2 65.3 1737.4 65.4 1736.9 65.5 C 1735.8 65.3 1735.7 65.5 1735.5 65.7 C 1736.0 65.8 1736.9 65.9 1736.8 65.6 C 1736.2 65.6 1736.3 65.7 1736.1 65.8 C 1736.0 65.6 1736.1 65.6 1736.4 65.5 C 1737.0 65.6 1737.9 65.5 1737.4 65.8 C 1738.0 65.6 1738.9 65.8 1739.5 65.7 C 1738.7 65.7 1738.1 65.6 1737.7 65.5 C 1738.3 65.4 1739.1 65.6 1739.1 65.5 C 1738.8 65.3 1737.8 65.3 1737.5 65.2 C 1738.2 65.0 1739.9 65.5 1738.5 65.2 C 1739.0 65.2 1739.7 65.2 1740.0 65.3 C 1739.4 65.3 1740.3 65.5 1740.5 65.6 C 1741.0 65.6 1741.4 65.5 1741.5 65.5 C 1740.8 65.5 1740.0 65.3 1740.5 65.3 C 1740.8 65.4 1740.8 65.2 1741.0 65.2 C 1741.2 65.3 1742.0 65.3 1742.2 65.3 C 1742.1 65.2 1741.6 65.2 1741.5 65.2 C 1741.9 65.1 1742.4 64.8 1743.0 65.1 C 1742.7 65.1 1742.3 65.1 1742.3 65.2 C 1744.0 65.4 1744.6 65.6 1746.4 65.8 C 1746.2 65.8 1746.1 65.8 1746.2 65.9 C 1747.3 65.9 1748.1 66.0 1748.1 66.1 C 1748.7 66.1 1749.0 66.0 1749.2 65.9 C 1748.4 65.8 1748.4 65.9 1747.8 65.8 C 1748.0 65.8 1746.9 65.5 1746.5 65.3 C 1745.5 65.5 1745.2 65.2 1744.1 65.3 C 1744.3 65.1 1743.2 65.3 1743.3 65.1 C 1744.7 65.4 1745.6 65.2 1747.3 65.3 C 1747.2 65.4 1747.2 65.6 1747.9 65.6 C 1749.0 65.7 1748.3 65.5 1749.2 65.5 C 1749.6 65.7 1749.2 65.7 1749.7 65.8 C 1749.8 65.7 1750.3 65.7 1750.8 65.8 C 1750.8 65.7 1750.8 65.7 1750.9 65.6 C 1750.9 65.7 1750.9 65.8 1750.9 65.9 C 1750.2 65.9 1751.4 66.0 1750.8 66.1 C 1750.9 66.1 1751.0 66.1 1751.1 66.1 C 1751.1 65.9 1751.2 65.8 1751.2 65.7 C 1751.0 66.5 1750.9 64.4 1750.8 65.0 C 1750.7 63.5 1751.2 65.3 1751.2 64.1 C 1751.0 64.6 1751.0 63.7 1751.0 62.9 C 1751.2 62.8 1751.2 61.9 1751.3 61.3 C 1751.2 61.6 1751.2 61.8 1751.1 61.1 C 1751.0 61.4 1751.0 62.0 1751.1 62.4 C 1751.0 62.3 1750.9 62.4 1750.9 62.5 C 1750.8 61.6 1750.7 61.9 1750.7 61.6 C 1750.8 61.4 1750.8 60.8 1750.9 60.7 C 1750.8 60.7 1750.8 60.4 1750.8 60.4 C 1750.7 61.4 1750.5 60.0 1750.5 60.6 C 1750.5 61.1 1750.7 61.0 1750.6 61.5 C 1750.4 61.9 1750.4 60.9 1750.2 60.4 C 1750.1 60.8 1750.3 61.6 1750.1 61.6 C 1749.9 60.8 1750.0 59.9 1750.1 59.1 C 1749.8 59.0 1750.2 57.7 1749.9 57.4 C 1749.9 57.3 1750.0 57.2 1750.0 57.0 C 1749.8 56.7 1750.1 56.6 1750.1 56.3 C 1750.0 56.2 1749.9 56.3 1749.9 56.4 C 1750.0 55.5 1749.9 55.2 1749.9 54.0 C 1750.0 53.8 1750.1 53.7 1750.2 53.6 C 1750.2 53.9 1750.3 54.2 1750.3 54.5 C 1750.4 52.8 1749.9 53.6 1750.2 52.6 C 1750.1 52.6 1749.8 53.3 1749.8 52.7 C 1750.0 51.7 1749.8 50.2 1750.3 50.4 C 1750.5 49.5 1750.2 48.8 1750.4 48.4 C 1750.4 48.1 1750.3 48.0 1750.3 47.8 C 1750.2 48.1 1750.1 48.5 1750.0 48.8 C 1750.1 49.4 1749.9 49.5 1750.2 49.1 C 1750.2 49.9 1750.0 50.1 1750.0 50.5 C 1749.8 49.3 1750.0 48.3 1749.7 48.2 C 1749.8 47.9 1750.0 47.6 1750.1 47.3 C 1750.0 47.2 1749.9 45.9 1750.1 45.8 C 1750.0 46.7 1750.3 47.6 1750.4 46.9 C 1750.3 44.7 1750.6 43.5 1750.4 41.5 C 1750.5 41.5 1750.6 41.6 1750.6 41.3 C 1750.5 41.3 1750.4 41.2 1750.4 41.0 C 1750.4 40.4 1750.5 40.1 1750.5 39.2 C 1750.6 39.3 1750.8 39.1 1750.8 38.7 C 1750.6 38.4 1750.3 37.7 1750.3 37.2 C 1750.3 37.7 1750.6 37.0 1750.6 36.7 C 1750.3 37.0 1750.8 34.3 1750.5 35.1 C 1750.5 34.1 1750.6 33.6 1750.7 33.5 C 1750.7 33.2 1750.6 32.9 1750.6 32.6 C 1750.8 32.2 1750.6 30.5 1750.8 30.2 C 1750.7 30.8 1751.0 30.8 1750.9 30.3 C 1750.8 30.0 1750.6 28.5 1750.7 28.1 C 1750.8 28.2 1750.9 28.2 1751.0 29.0 C 1751.0 27.6 1750.7 27.8 1750.6 27.4 C 1750.8 27.3 1750.6 26.8 1750.6 26.7 C 1750.7 26.2 1750.6 26.6 1750.8 26.5 C 1750.8 26.0 1750.9 25.8 1750.9 25.1 C 1750.7 25.5 1750.8 24.7 1750.9 24.4 C 1750.7 24.4 1750.7 24.1 1750.6 23.6 C 1751.0 24.1 1751.0 20.0 1750.8 21.1 C 1750.6 20.5 1751.0 20.1 1750.9 19.1 C 1750.9 19.1 1750.9 19.0 1750.9 19.0 C 1750.6 19.0 1750.5 19.0 1750.8 19.1 C 1750.8 19.1 1750.8 19.1 1750.8 19.1 C 1750.8 19.1 1750.8 19.1 1750.8 19.1 C 1749.9 19.1 1750.6 18.9 1749.5 19.0 C 1749.7 19.2 1748.5 18.9 1748.5 19.2 C 1748.4 18.9 1747.1 19.3 1746.5 19.0 C 1746.5 19.1 1746.2 19.1 1746.1 19.1 C 1745.9 19.2 1747.0 19.3 1746.3 19.3 C 1745.5 19.2 1746.0 19.1 1746.0 19.0 C 1743.5 19.1 1740.6 19.0 1738.0 19.0 C 1738.2 19.0 1738.2 19.1 1737.6 19.1 C 1737.1 18.8 1733.9 19.0 1733.4 19.1 C 1733.2 18.8 1731.5 19.1 1731.3 19.0 C 1731.6 19.0 1732.3 18.8 1731.7 18.8 C 1731.1 19.0 1730.7 18.9 1729.9 19.0 C 1729.8 18.8 1727.7 19.0 1728.8 18.7 C 1728.4 18.7 1728.2 18.6 1728.0 18.6 C 1727.9 18.8 1727.5 18.8 1728.1 18.9 C 1726.5 18.7 1725.9 18.9 1724.7 18.8 C 1724.4 18.9 1725.4 19.0 1724.6 19.0 C 1724.6 19.0 1724.6 18.9 1724.6 18.9 C 1724.3 18.9 1724.2 19.0 1724.1 18.9 C 1724.2 18.8 1724.6 18.8 1724.8 18.6 C 1724.1 18.7 1723.7 18.4 1723.4 18.6 C 1724.3 18.6 1723.5 19.0 1723.1 18.8 C 1723.6 18.7 1720.9 18.8 1720.1 18.9 C 1719.7 18.7 1721.0 18.9 1721.0 18.7 C 1719.4 18.8 1719.5 18.7 1719.3 18.9 C 1718.4 18.8 1718.2 18.7 1717.1 18.8 C 1716.6 18.7 1717.5 18.7 1716.9 18.7 C 1716.5 18.7 1716.4 18.8 1715.8 18.8 C 1714.5 18.4 1710.9 19.1 1709.4 18.5 C 1710.0 18.6 1709.2 18.7 1708.3 18.7 C 1708.3 18.6 1708.4 18.5 1708.1 18.5 C 1708.1 18.7 1707.8 18.7 1707.2 18.7 C 1707.2 18.6 1707.3 18.5 1707.0 18.5 C 1706.7 18.8 1706.0 18.5 1705.6 18.7 C 1705.4 18.4 1706.6 18.6 1706.7 18.4 C 1705.3 18.3 1705.1 18.5 1704.0 18.4 C 1704.6 18.4 1703.6 18.2 1703.5 18.2 C 1703.7 18.4 1702.8 18.5 1703.4 18.6 C 1703.0 18.6 1702.4 18.6 1702.4 18.5 C 1702.6 18.5 1702.9 18.5 1702.9 18.5 C 1702.4 18.5 1701.8 18.3 1701.5 18.5 C 1701.9 18.5 1702.1 18.5 1702.1 18.7 C 1702.0 18.7 1701.8 18.8 1701.5 18.8 C 1702.3 18.4 1700.1 18.6 1699.9 18.7 C 1699.7 18.4 1699.6 18.4 1699.7 18.3 C 1698.7 18.3 1698.9 18.5 1698.3 18.5 C 1698.4 18.3 1698.6 18.2 1697.7 18.1 C 1697.9 18.3 1696.9 18.3 1697.2 18.5 C 1695.0 18.6 1694.5 18.3 1693.1 18.4 C 1693.1 18.4 1693.5 18.4 1693.2 18.5 C 1692.5 18.4 1691.9 18.3 1691.5 18.2 C 1691.2 18.4 1691.7 18.4 1691.3 18.5 C 1690.2 18.3 1690.4 18.1 1689.5 17.9 C 1688.5 18.1 1688.8 18.0 1688.2 18.2 C 1688.5 18.2 1688.9 18.3 1688.5 18.3 C 1687.8 18.1 1687.5 17.9 1687.3 17.9 C 1687.8 17.9 1688.2 17.9 1688.4 17.9 C 1688.5 17.8 1689.2 17.8 1688.6 17.7 C 1689.3 17.7 1690.1 17.8 1691.1 17.8 C 1690.7 17.6 1692.0 17.7 1691.6 17.5 C 1690.5 17.6 1690.2 17.4 1689.1 17.5 C 1689.4 17.7 1688.3 17.6 1688.0 17.5 C 1688.1 17.6 1687.3 17.6 1687.5 17.8 C 1686.7 17.8 1686.7 17.6 1685.9 17.7 C 1685.8 17.6 1685.9 17.5 1685.6 17.5 C 1685.3 17.7 1685.0 17.4 1684.7 17.5 C 1685.0 17.7 1683.7 17.6 1683.7 17.7 C 1684.0 17.7 1684.5 17.7 1684.5 17.8 C 1683.2 17.7 1684.3 17.9 1684.6 18.1 C 1684.6 18.0 1685.0 17.7 1685.1 17.9 C 1684.1 18.0 1686.8 18.2 1685.8 18.1 C 1684.9 18.1 1685.0 18.2 1684.1 18.2 C 1683.0 17.8 1684.1 17.7 1683.0 17.4 C 1682.5 17.5 1682.0 17.5 1682.0 17.7 C 1681.9 17.6 1681.7 17.6 1681.4 17.5 C 1681.2 17.6 1682.3 17.7 1681.5 17.7 C 1681.1 17.7 1681.5 17.5 1680.6 17.5 C 1680.3 17.7 1681.7 17.7 1681.0 17.7 C 1680.0 17.5 1681.2 17.8 1680.2 17.9 C 1680.1 17.8 1679.9 17.8 1679.6 17.8 C 1679.5 17.7 1679.6 17.6 1679.2 17.6 C 1679.2 17.9 1678.8 17.4 1678.1 17.5 C 1677.8 17.7 1678.9 17.6 1678.8 17.8 C 1677.9 17.6 1677.5 17.8 1677.2 17.8 C 1677.7 17.7 1676.0 17.7 1675.9 17.5 C 1676.2 17.7 1675.8 17.6 1674.9 17.8 C 1674.7 17.5 1673.8 17.7 1673.4 17.4 C 1673.3 17.5 1673.1 17.6 1673.0 17.7 C 1673.3 17.7 1673.6 17.7 1673.6 17.8 C 1673.3 17.8 1673.0 17.8 1672.7 17.8 C 1672.2 17.7 1673.2 17.3 1671.4 17.3 C 1671.7 17.6 1671.0 17.6 1670.5 17.7 C 1670.7 17.9 1671.2 17.7 1671.4 17.8 C 1670.9 17.9 1670.1 17.8 1669.7 17.7 C 1668.7 17.8 1667.3 17.7 1665.9 17.7 C 1665.4 17.6 1667.0 17.6 1666.0 17.5 C 1665.5 17.5 1665.8 17.7 1665.2 17.6 C 1665.2 16.8 1661.0 17.5 1660.4 17.2 C 1660.4 17.3 1659.0 17.2 1659.3 17.4 C 1660.0 17.3 1660.9 17.5 1661.4 17.6 C 1662.1 17.5 1660.5 17.4 1661.2 17.4 C 1661.4 17.5 1662.4 17.4 1662.4 17.6 C 1661.3 17.6 1663.2 17.7 1662.4 17.9 C 1661.3 17.9 1659.3 18.1 1659.6 17.9 C 1659.7 17.9 1660.2 17.9 1660.2 17.9 C 1658.9 17.8 1658.3 17.9 1657.9 18.1 C 1657.2 17.9 1655.3 18.2 1655.7 18.1 C 1655.4 17.9 1657.0 18.1 1656.7 17.9 C 1654.4 17.9 1654.4 18.0 1652.8 17.9 C 1653.2 18.0 1652.7 18.1 1652.2 18.1 C 1652.2 18.5 1652.2 18.8 1652.2 18.7 C 1652.0 18.5 1651.9 18.8 1652.1 19.9 C 1651.9 19.6 1651.8 20.0 1651.8 20.4 C 1652.0 20.8 1651.9 20.2 1652.1 20.4 C 1652.1 20.9 1652.1 21.4 1652.1 21.8 C 1652.0 21.8 1651.9 21.6 1651.9 21.9 C 1652.0 22.5 1652.2 24.5 1652.1 24.3 C 1651.8 23.3 1651.9 25.3 1651.7 24.0 C 1651.7 24.3 1651.7 24.3 1651.7 24.7 C 1651.7 24.8 1651.8 24.9 1651.9 24.9 C 1651.9 26.0 1651.6 25.2 1651.6 26.1 C 1651.7 26.2 1651.7 26.6 1651.8 26.8 C 1651.8 26.4 1651.7 26.3 1651.7 25.9 C 1652.0 26.6 1651.9 25.1 1652.1 25.4 C 1652.1 26.3 1651.9 26.2 1651.8 26.5 C 1652.0 27.8 1651.9 27.2 1651.8 28.4 C 1651.9 28.5 1651.9 28.2 1652.0 28.3 C 1652.0 29.8 1651.6 29.4 1651.7 30.6 C 1651.7 30.3 1651.6 29.2 1651.5 29.9 C 1651.6 30.7 1651.8 31.0 1651.8 32.0 C 1651.8 32.0 1651.7 31.9 1651.7 32.2 C 1651.7 32.6 1651.9 32.8 1652.0 33.2 C 1651.9 33.2 1651.9 33.8 1652.0 34.0 C 1651.8 34.3 1651.8 33.8 1651.7 34.1 C 1651.7 35.0 1652.1 35.7 1652.1 36.3 C 1651.8 36.1 1651.9 36.9 1652.0 37.6 C 1651.7 37.6 1651.8 39.0 1651.7 39.9 C 1651.9 39.8 1651.8 40.7 1652.0 40.6 C 1652.0 40.2 1652.1 39.9 1652.1 39.9 C 1652.2 41.0 1651.8 41.1 1652.1 42.0 C 1652.0 42.4 1651.8 42.8 1651.8 43.5 C 1651.9 43.6 1652.0 42.3 1652.0 43.1 C 1652.0 43.1 1652.0 43.4 1652.0 43.6 C 1651.8 43.4 1651.8 44.0 1651.7 44.3 C 1651.8 45.0 1651.6 46.2 1651.8 45.7 C 1651.8 46.7 1651.5 45.9 1651.5 46.7 C 1651.8 46.4 1651.8 47.8 1651.9 47.2 C 1652.0 48.2 1651.6 48.0 1651.5 47.5 C 1651.5 48.5 1651.7 48.8 1651.5 49.2 C 1651.7 48.8 1651.8 50.3 1651.7 49.5 C 1651.5 49.2 1651.6 50.4 1651.5 50.6 C 1651.7 50.3 1651.7 50.8 1651.8 50.1 C 1651.8 50.9 1651.9 51.9 1651.7 52.6 C 1651.8 53.5 1651.8 54.4 1651.6 53.9 C 1651.7 54.8 1651.7 54.5 1651.6 55.3 C 1651.7 55.3 1651.7 55.1 1651.7 55.0 C 1651.7 56.2 1651.6 56.0 1651.6 57.5 C 1651.4 57.3 1651.4 58.3 1651.2 58.6 C 1651.3 57.9 1651.3 57.4 1651.4 56.9 C 1651.3 56.8 1651.2 57.3 1651.2 56.9 C 1651.3 56.8 1651.3 56.6 1651.3 56.3 C 1651.1 57.3 1651.0 55.0 1651.2 55.8 C 1651.2 55.7 1651.1 55.8 1651.1 56.0 C 1651.3 55.9 1651.2 55.8 1651.4 56.1 C 1651.4 55.6 1651.6 55.2 1651.4 55.0 C 1651.3 55.0 1651.4 55.5 1651.3 55.5 C 1651.2 54.2 1651.5 55.2 1651.5 54.2 C 1651.3 53.9 1651.2 54.4 1651.1 54.6 C 1651.1 53.7 1651.1 52.9 1651.2 52.7 C 1651.2 51.8 1651.1 52.7 1651.0 52.1 C 1651.1 51.8 1651.2 51.9 1651.2 51.3 C 1651.2 50.7 1651.1 51.6 1651.1 51.0 C 1651.2 50.4 1651.3 51.5 1651.4 50.5 C 1651.1 50.7 1651.4 49.6 1651.2 49.6 C 1651.3 50.3 1651.0 50.2 1651.2 49.9 C 1651.4 48.7 1650.8 47.4 1651.2 46.3 C 1651.1 46.3 1651.1 46.0 1651.1 46.0 C 1650.9 46.9 1650.9 48.4 1650.6 48.6 C 1650.7 49.4 1650.9 49.4 1650.9 49.5 C 1650.7 50.4 1650.7 50.3 1650.4 49.6 C 1650.4 48.0 1650.5 47.4 1650.6 46.3 C 1650.4 45.7 1650.5 46.4 1650.4 46.5 C 1650.6 43.3 1650.1 45.6 1650.1 44.4 C 1650.2 44.5 1650.3 44.3 1650.3 43.9 C 1650.2 43.9 1650.2 43.4 1650.2 43.3 C 1650.2 43.5 1650.1 43.6 1650.0 43.5 C 1650.0 42.7 1650.2 43.1 1650.3 43.1 C 1650.3 43.7 1650.3 44.1 1650.4 44.3 C 1650.3 43.4 1650.5 42.9 1650.3 42.2 C 1650.5 41.6 1650.8 42.9 1651.0 42.6 C 1651.1 42.8 1650.5 41.8 1650.5 41.2 C 1650.5 40.2 1650.3 40.1 1650.3 39.1 C 1650.5 39.0 1650.4 40.1 1650.5 40.1 C 1650.5 39.8 1650.6 39.8 1650.6 39.6 C 1650.6 38.9 1650.4 38.8 1650.3 38.3 C 1650.5 38.1 1650.4 37.9 1650.3 37.5 C 1650.4 36.9 1650.5 37.9 1650.5 37.3 C 1650.6 36.6 1650.3 36.0 1650.3 35.8 C 1650.4 35.7 1650.5 35.9 1650.5 35.6 C 1650.4 34.7 1650.4 34.5 1650.3 35.4 C 1650.3 34.6 1650.2 34.1 1650.0 34.2 C 1650.0 35.5 1650.1 35.8 1649.8 36.3 C 1650.0 36.7 1649.9 37.0 1649.8 37.4 C 1650.1 37.3 1649.8 38.0 1650.0 38.4 C 1650.0 38.1 1650.0 37.8 1650.1 37.6 C 1650.1 39.0 1650.1 39.0 1650.3 40.3 C 1650.3 40.2 1650.2 40.3 1650.2 40.5 C 1650.1 40.1 1650.1 39.1 1650.0 38.9 C 1649.8 39.6 1650.1 40.1 1649.9 40.9 C 1650.0 41.3 1650.1 40.3 1650.1 41.0 C 1650.0 41.3 1649.9 41.7 1649.8 42.3 C 1649.8 42.9 1649.9 43.3 1650.0 43.8 C 1649.9 43.8 1649.8 43.8 1649.9 44.3 C 1649.9 44.3 1650.0 43.9 1650.0 44.4 C 1649.8 45.8 1649.6 46.7 1649.7 48.3 C 1649.8 47.8 1650.0 46.7 1650.0 47.2 C 1649.9 47.8 1650.1 48.9 1649.9 49.5 C 1649.9 49.7 1650.0 48.7 1649.7 48.8 C 1649.7 49.5 1649.7 49.9 1649.6 50.2 C 1649.7 50.3 1649.7 51.0 1649.9 50.9 C 1649.9 50.3 1649.7 50.1 1649.7 50.0 C 1650.3 50.6 1649.6 52.0 1649.6 53.1 C 1649.6 53.8 1649.7 52.6 1649.8 53.4 C 1649.9 53.9 1649.5 54.1 1649.4 53.3 C 1649.5 52.8 1649.2 52.5 1649.4 52.5 C 1649.4 52.2 1649.4 51.9 1649.4 51.9 C 1649.4 52.3 1649.3 52.2 1649.2 52.4 C 1649.2 51.8 1648.9 51.6 1649.1 51.2 C 1649.1 51.5 1649.1 51.7 1649.2 51.8 C 1649.1 50.3 1649.3 49.8 1649.4 49.0 C 1649.3 49.4 1649.3 48.9 1649.1 48.9 C 1649.2 49.6 1649.1 50.8 1649.0 50.0 C 1649.3 49.6 1648.7 49.0 1648.9 48.5 C 1648.9 48.9 1649.0 48.9 1649.1 49.2 C 1649.1 48.6 1649.2 48.7 1649.3 48.1 C 1649.0 46.1 1649.5 44.8 1649.1 41.6 C 1649.1 40.6 1649.2 42.6 1649.3 42.6 C 1649.3 42.3 1649.4 42.3 1649.4 42.1 C 1649.2 41.9 1649.4 41.5 1649.2 41.1 C 1649.4 41.3 1649.2 39.8 1649.4 39.2 C 1649.3 39.1 1649.2 39.1 1649.2 38.8 C 1649.5 36.8 1649.1 32.8 1649.3 31.4 C 1649.2 31.3 1649.2 30.6 1649.1 30.3 C 1649.1 29.4 1649.3 29.9 1649.1 28.3 C 1649.0 27.5 1649.2 28.5 1649.3 28.7 C 1649.2 26.5 1649.4 24.7 1649.1 23.1 C 1649.1 22.4 1649.3 23.2 1649.3 21.9 C 1649.1 21.6 1649.5 19.7 1649.1 19.1 C 1649.1 18.2 1649.5 16.9 1649.2 17.4 C 1649.2 16.2 1649.4 17.2 1649.4 16.8 C 1649.4 15.9 1649.0 16.6 1649.0 15.7 C 1649.1 16.0 1649.1 15.5 1649.2 15.1 C 1649.3 15.1 1649.4 15.1 1649.6 15.2 C 1649.5 15.2 1649.4 15.2 1649.3 15.2 C 1649.3 15.6 1649.3 16.0 1649.4 16.1 C 1649.3 15.7 1649.4 15.6 1649.4 15.3 C 1649.5 15.3 1649.7 15.3 1650.0 15.3 C 1650.5 15.2 1652.3 15.0 1653.1 15.3 C 1653.1 15.2 1652.9 15.2 1652.7 15.1 C 1653.2 15.1 1654.1 15.3 1653.8 15.0 C 1655.1 15.0 1655.8 15.2 1656.4 15.0 C 1656.9 15.0 1656.3 15.2 1658.0 15.2 C 1657.9 15.1 1660.8 15.1 1661.7 15.2 C 1661.6 15.0 1661.9 15.2 1662.3 15.2 C 1662.3 15.2 1662.1 15.1 1662.5 15.0 C 1662.6 15.1 1662.8 15.1 1663.0 15.0 C 1663.1 15.3 1664.0 15.0 1664.3 15.2 C 1664.0 15.2 1664.1 15.3 1664.4 15.3 C 1664.3 15.1 1665.8 15.5 1665.5 15.3 C 1665.2 15.2 1664.4 15.3 1664.5 15.1 C 1665.6 15.0 1665.3 15.3 1666.1 15.3 C 1666.0 15.2 1665.5 15.2 1666.0 15.1 C 1666.8 15.1 1666.1 15.1 1666.7 15.3 C 1667.1 15.2 1667.7 15.1 1668.0 15.1 C 1667.9 15.1 1668.3 15.2 1668.4 15.2 C 1669.9 15.3 1673.2 15.1 1674.8 15.3 C 1674.8 15.3 1675.1 15.2 1674.9 15.1 C 1675.9 15.2 1675.8 15.2 1676.7 15.2 C 1676.7 15.2 1676.6 15.1 1676.6 15.0 C 1677.7 14.9 1676.8 15.3 1677.6 15.2 C 1677.5 14.8 1678.1 15.4 1678.8 15.4 C 1678.8 15.3 1679.2 15.2 1679.0 15.1 C 1680.1 15.1 1680.2 15.4 1681.1 15.3 C 1680.8 15.3 1680.4 14.7 1680.5 14.5 C 1680.7 14.6 1681.0 14.7 1681.4 14.7 C 1681.0 14.9 1681.5 15.6 1682.8 15.4 C 1682.1 15.4 1681.8 15.3 1681.9 15.2 C 1682.9 15.2 1683.3 15.3 1684.2 15.3 C 1684.3 15.1 1683.7 15.1 1683.8 14.9 C 1684.0 14.9 1684.1 14.8 1684.1 14.8 C 1685.0 14.8 1685.1 14.9 1686.1 14.8 C 1686.2 14.9 1685.9 14.9 1685.6 14.9 C 1685.7 15.0 1685.7 15.2 1685.1 15.2 C 1685.0 15.1 1685.3 14.9 1684.4 14.9 C 1684.4 15.0 1684.5 15.1 1684.5 15.2 C 1685.2 15.2 1686.7 15.4 1686.8 15.3 C 1686.5 15.2 1686.0 15.2 1686.2 15.0 C 1687.3 15.0 1687.7 15.3 1688.6 15.3 C 1690.1 15.3 1692.9 15.3 1692.5 15.0 C 1693.5 15.1 1693.2 15.1 1694.0 15.2 C 1693.7 15.0 1695.0 15.1 1694.9 14.9 C 1693.8 15.0 1694.1 14.9 1693.1 15.0 C 1693.1 14.9 1693.3 14.8 1693.7 14.8 C 1693.8 14.9 1694.2 14.9 1694.9 14.9 C 1694.7 14.8 1694.1 14.6 1694.8 14.6 C 1694.9 14.7 1695.1 14.7 1695.4 14.7 C 1695.4 14.8 1695.4 14.9 1695.4 15.0 C 1695.1 15.0 1694.6 15.1 1694.3 15.2 C 1694.6 15.2 1694.7 15.2 1694.9 15.2 C 1695.1 15.1 1696.3 15.2 1696.3 15.1 C 1695.9 15.1 1695.5 15.0 1696.0 15.0 C 1696.1 15.0 1696.9 15.1 1697.2 15.0 C 1696.2 14.9 1696.6 14.9 1696.0 14.7 C 1697.2 14.6 1697.0 14.9 1698.3 14.8 C 1698.4 15.0 1698.4 15.1 1698.1 15.2 C 1698.9 15.5 1700.9 15.2 1701.5 15.2 C 1701.1 15.2 1700.6 15.5 1701.2 15.5 C 1701.2 15.4 1701.7 15.4 1701.8 15.3 C 1702.1 15.0 1701.5 14.8 1700.9 14.6 C 1701.5 14.6 1701.6 14.6 1702.1 14.6 C 1702.3 14.7 1701.7 15.0 1702.4 15.0 C 1702.5 14.7 1703.6 15.0 1703.8 14.8 C 1703.4 14.8 1703.1 14.7 1703.6 14.6 C 1703.5 14.8 1704.4 14.7 1704.4 14.8 C 1703.7 14.9 1703.5 15.1 1703.0 15.0 C 1703.6 15.1 1702.5 15.2 1703.5 15.2 C 1704.0 15.1 1704.2 14.9 1705.3 14.9 C 1705.7 15.0 1705.3 15.2 1705.9 15.2 C 1705.7 15.0 1706.9 14.9 1706.2 15.1 C 1706.6 15.1 1706.8 15.1 1707.0 15.2 C 1706.5 15.0 1709.2 14.8 1708.8 14.6 C 1708.8 14.9 1708.9 15.1 1709.0 15.2 C 1709.6 15.0 1710.2 15.1 1711.7 15.1 C 1711.6 14.9 1711.9 15.1 1712.5 15.1 C 1712.7 14.9 1712.1 14.9 1712.6 14.9 C 1713.2 15.0 1713.3 15.0 1713.4 15.1 C 1713.9 15.0 1714.3 15.1 1714.5 15.1 C 1714.6 15.0 1714.4 15.0 1714.3 14.9 C 1716.2 15.1 1717.3 14.9 1718.9 14.9 C 1718.3 14.8 1718.0 15.1 1718.6 15.1 C 1718.9 15.1 1719.3 15.0 1719.5 15.0 C 1719.1 14.8 1719.3 14.9 1720.1 14.9 C 1720.9 14.9 1719.9 14.6 1720.5 14.6 C 1721.1 14.7 1720.7 14.8 1721.0 14.9 C 1721.3 14.9 1721.6 14.9 1721.9 14.9 C 1721.4 14.8 1722.0 14.7 1722.5 14.6 C 1722.1 14.8 1722.3 14.9 1723.3 14.8 C 1723.4 14.9 1722.8 15.0 1723.3 15.0 C 1723.5 15.0 1724.4 14.8 1725.0 14.9 C 1724.8 14.9 1724.7 15.0 1724.7 15.1 C 1725.5 14.9 1726.0 15.2 1726.6 15.2 C 1726.0 15.1 1726.4 14.9 1726.2 14.8 C 1726.8 15.0 1727.7 14.8 1728.2 15.0 C 1727.2 14.9 1728.0 15.4 1728.6 15.4 C 1728.8 15.2 1727.8 15.2 1728.2 15.0 C 1728.6 14.8 1729.2 15.1 1729.6 14.9 C 1729.6 14.8 1729.2 15.0 1729.1 14.9 C 1729.7 14.9 1729.0 14.8 1729.5 14.8 C 1729.6 15.0 1730.1 14.7 1730.4 14.7 C 1730.7 14.7 1731.3 15.0 1731.7 14.9 C 1731.8 14.8 1731.2 14.8 1731.2 14.8 C 1732.9 14.6 1733.2 14.9 1734.7 14.7 C 1734.9 14.8 1735.1 14.8 1735.5 14.9 C 1735.5 14.8 1735.8 14.7 1736.2 14.7 C 1736.8 14.8 1737.3 14.9 1738.1 14.9 C 1737.8 15.1 1737.4 15.2 1738.5 15.2 C 1738.6 15.1 1738.1 15.1 1738.6 15.1 C 1738.5 15.1 1738.8 15.1 1738.9 15.1 C 1738.9 15.0 1738.9 15.0 1738.9 14.9 C 1738.6 14.9 1738.4 14.9 1738.1 14.9 C 1738.2 14.8 1738.1 14.7 1738.0 14.7 C 1739.3 14.6 1738.9 15.0 1739.9 14.8 C 1739.8 15.1 1740.0 15.2 1739.2 15.4 C 1740.0 15.3 1740.6 15.2 1740.9 15.1 C 1740.0 15.1 1740.4 14.9 1740.2 14.8 C 1740.8 14.8 1740.9 14.7 1741.2 14.6 C 1741.7 14.8 1740.3 15.0 1741.5 15.0 C 1740.7 14.8 1742.4 14.8 1743.0 14.9 C 1743.0 14.8 1742.8 14.8 1743.2 14.7 C 1745.0 14.6 1744.4 15.2 1745.6 14.9 C 1745.5 15.0 1745.9 15.0 1746.1 15.1 C 1745.2 15.1 1744.9 15.2 1744.5 15.2 C 1744.5 15.2 1744.8 15.3 1745.0 15.3 C 1745.1 15.2 1745.3 15.2 1745.6 15.2 C 1746.0 15.1 1746.1 14.9 1746.9 14.7 C 1746.9 14.8 1746.8 14.9 1747.1 14.9 C 1747.5 14.7 1746.6 15.2 1748.1 15.1 C 1747.9 15.1 1747.8 15.0 1748.0 14.8 C 1748.8 14.7 1748.6 14.8 1749.5 14.8 C 1749.6 15.1 1748.6 15.1 1748.2 15.3 C 1748.8 15.3 1749.5 15.1 1750.0 15.2 C 1749.6 15.1 1750.3 14.9 1750.9 14.9 C 1751.3 14.9 1750.6 15.2 1751.2 15.2 C 1751.7 15.1 1752.1 15.0 1751.7 14.9 C 1752.8 14.9 1752.7 14.7 1753.6 14.8 C 1753.5 14.9 1753.2 14.9 1753.0 14.8 C 1753.0 14.9 1752.7 15.0 1753.1 15.0 C 1753.6 14.9 1754.3 14.9 1755.0 14.8 C 1755.1 15.1 1755.1 15.4 1755.1 15.6 C 1754.8 17.3 1755.2 18.5 1755.1 19.9 C 1754.9 19.5 1755.0 21.8 1754.8 22.6 C 1754.9 22.9 1755.3 24.0 1755.1 23.6 C 1754.9 23.9 1755.0 24.6 1754.9 25.3 C 1754.9 25.2 1755.0 25.2 1755.1 25.2 C 1755.1 26.5 1754.9 26.9 1754.8 27.4 C 1754.9 29.0 1754.6 31.0 1754.8 32.9 C 1754.6 33.5 1754.7 33.9 1754.5 35.1 C 1754.7 35.0 1754.7 36.0 1754.7 36.8 C 1754.9 36.6 1754.8 37.4 1754.9 37.4 C 1755.0 36.6 1755.2 36.9 1755.2 36.4 C 1755.1 37.5 1755.4 38.0 1755.2 38.9 C 1755.2 37.8 1754.9 37.6 1754.6 37.5 C 1754.7 38.7 1754.6 39.3 1754.5 39.6 C 1754.6 39.7 1754.7 39.5 1754.8 39.2 C 1754.8 39.7 1754.8 40.1 1754.8 40.4 C 1754.7 40.6 1754.6 40.0 1754.6 40.5 C 1754.6 40.7 1754.7 41.1 1754.8 41.4 C 1754.6 41.7 1754.6 40.9 1754.5 40.8 C 1754.4 42.4 1754.8 41.7 1754.9 42.6 C 1754.8 42.8 1754.6 42.7 1754.5 43.5 C 1754.6 43.8 1754.8 43.9 1754.8 44.7 C 1754.8 45.2 1754.5 44.6 1754.5 45.3 C 1754.6 45.4 1754.6 45.6 1754.5 45.9 C 1754.6 45.9 1754.7 46.1 1754.7 46.5 C 1754.6 46.6 1754.7 47.2 1754.7 47.4 C 1754.6 47.4 1754.4 48.3 1754.5 48.6 C 1754.6 48.6 1754.6 48.0 1754.6 48.0 C 1754.6 48.7 1754.7 49.1 1754.7 49.5 C 1754.3 49.6 1754.6 50.8 1754.4 52.1 C 1754.5 53.0 1754.7 52.0 1754.8 53.2 C 1754.7 53.8 1754.7 53.0 1754.5 53.0 C 1754.4 53.2 1754.3 54.1 1754.5 54.2 C 1754.5 54.3 1754.5 53.7 1754.6 53.7 C 1754.7 54.6 1754.5 54.4 1754.5 54.8 C 1754.6 54.9 1754.7 55.4 1754.8 55.6 C 1754.9 57.8 1754.5 57.6 1754.4 58.4 C 1754.5 58.4 1754.5 59.0 1754.5 59.0 C 1754.5 58.4 1754.6 57.7 1754.6 58.5 C 1754.5 58.3 1754.7 59.7 1754.7 59.8 C 1754.8 59.7 1754.8 58.9 1754.9 59.3 C 1755.0 60.5 1754.6 59.8 1754.8 60.8 C 1754.7 60.8 1754.7 60.3 1754.6 60.0 C 1754.6 60.4 1754.7 60.9 1754.6 60.9 C 1754.5 60.4 1754.4 60.3 1754.3 60.1 C 1754.4 60.8 1754.3 61.7 1754.5 61.2 C 1754.5 62.3 1754.6 63.5 1754.8 62.9 C 1754.8 63.9 1754.5 63.1 1754.7 64.0 C 1754.5 63.7 1754.4 63.4 1754.2 63.9 C 1754.3 64.1 1754.4 64.7 1754.5 64.7 C 1754.5 66.2 1754.3 66.4 1754.2 66.8 C 1754.4 66.6 1754.2 67.1 1754.4 67.9 C 1754.3 68.3 1754.1 67.7 1754.2 68.9 C 1754.3 68.4 1754.3 68.8 1754.3 69.3 C 1753.9 69.4 1753.5 69.4 1753.9 69.5 C 1752.4 69.4 1752.4 69.4 1750.9 69.3 C 1750.9 69.2 1751.2 69.1 1751.8 69.1 C 1751.5 69.3 1753.2 69.3 1753.0 69.2 C 1753.0 69.1 1752.9 69.1 1752.9 69.0 C 1751.8 69.1 1751.1 69.0 1750.5 68.9 C 1750.4 69.1 1750.0 69.1 1750.4 69.3 C 1749.1 69.1 1748.4 69.4 1747.7 69.2 C 1748.1 69.2 1748.4 69.2 1748.2 69.1 C 1747.8 69.2 1747.3 69.2 1747.5 69.3 C 1748.4 69.4 1748.6 69.4 1748.9 69.3 C 1748.7 69.4 1750.0 69.5 1749.2 69.6 C 1748.9 69.3 1747.6 69.7 1748.0 69.5 C 1748.8 69.4 1746.8 69.4 1746.6 69.2 C 1746.6 69.2 1746.6 69.2 1746.6 69.2 Z M 1649.3 48.4 C 1649.4 49.3 1649.5 48.3 1649.5 47.6 C 1649.5 47.8 1649.4 47.8 1649.3 47.8 C 1649.3 48.1 1649.3 48.3 1649.3 48.4 C 1649.3 48.4 1649.3 48.4 1649.3 48.4 Z M 1651.9 40.5 C 1651.7 40.2 1651.8 41.6 1651.8 42.1 C 1651.8 42.0 1651.9 41.9 1651.9 42.2 C 1652.1 41.7 1651.7 41.3 1651.9 40.5 C 1651.9 40.5 1651.9 40.5 1651.9 40.5 Z M 1659.0 17.2 C 1658.9 17.2 1658.4 17.2 1658.2 17.2 C 1657.9 17.2 1658.1 17.3 1658.1 17.3 C 1657.5 17.4 1658.0 17.1 1657.1 17.2 C 1657.0 17.5 1659.2 17.6 1659.0 17.2 C 1659.0 17.2 1659.0 17.2 1659.0 17.2 Z M 1751.5 63.6 C 1751.4 63.9 1751.3 62.9 1751.1 63.0 C 1751.2 64.6 1751.5 63.6 1751.4 65.6 C 1751.5 65.5 1751.5 65.4 1751.6 65.5 C 1751.5 64.5 1751.4 64.3 1751.7 64.8 C 1751.7 64.4 1751.3 63.9 1751.5 63.6 C 1751.5 63.6 1751.5 63.6 1751.5 63.6 Z M 1734.2 65.8 C 1734.3 65.8 1734.5 65.9 1734.6 65.9 C 1735.2 65.9 1735.0 65.8 1735.9 65.9 C 1735.6 65.6 1734.8 65.6 1734.2 65.8 C 1734.2 65.8 1734.2 65.8 1734.2 65.8 Z M 1682.4 65.3 C 1682.2 65.3 1682.0 65.3 1681.8 65.3 C 1682.0 65.5 1681.6 65.7 1682.5 65.6 C 1682.5 65.6 1682.4 65.6 1682.2 65.6 C 1682.3 65.5 1682.8 65.5 1682.7 65.4 C 1682.4 65.4 1682.4 65.4 1682.4 65.3 C 1682.4 65.3 1682.4 65.3 1682.4 65.3 Z M 1660.9 67.0 C 1661.9 66.8 1659.3 66.4 1660.9 67.0 C 1660.9 67.0 1660.9 67.0 1660.9 67.0 C 1660.9 67.0 1660.9 67.0 1660.9 67.0 Z M 1663.3 69.1 C 1663.4 69.2 1663.6 69.2 1663.6 69.1 C 1664.6 69.2 1663.7 69.3 1664.2 69.4 C 1664.9 69.2 1663.8 69.0 1664.7 68.9 C 1664.5 68.8 1663.9 69.1 1663.3 69.1 C 1663.3 69.1 1663.3 69.1 1663.3 69.1 Z M 1744.4 15.0 C 1743.6 15.0 1743.2 15.2 1742.9 15.4 C 1743.4 15.4 1743.9 15.4 1744.0 15.5 C 1745.0 15.4 1743.4 15.4 1743.3 15.3 C 1743.5 15.2 1744.2 15.2 1744.4 15.0 C 1744.4 15.0 1744.4 15.0 1744.4 15.0 Z M 1741.7 15.0 C 1741.3 15.1 1740.8 15.2 1740.7 15.3 C 1741.2 15.3 1741.2 15.4 1741.2 15.5 C 1741.7 15.4 1741.2 15.3 1741.7 15.0 C 1741.7 15.0 1741.7 15.0 1741.7 15.0 Z M 1746.5 15.2 C 1746.1 15.2 1746.2 15.4 1746.0 15.5 C 1746.6 15.5 1746.6 15.5 1747.1 15.5 C 1747.2 15.5 1747.2 15.4 1747.3 15.3 C 1746.8 15.3 1746.7 15.4 1746.4 15.4 C 1746.4 15.3 1746.5 15.3 1746.5 15.2 C 1746.5 15.2 1746.5 15.2 1746.5 15.2 Z M 1739.0 15.3 C 1737.5 15.3 1736.6 15.6 1735.5 15.8 C 1736.6 15.8 1737.8 15.4 1738.5 15.5 C 1739.5 15.5 1738.3 15.4 1738.4 15.3 C 1738.4 15.3 1738.7 15.3 1739.0 15.3 C 1739.0 15.3 1739.0 15.3 1739.0 15.3 Z M 1725.7 15.3 C 1725.5 15.2 1724.8 15.5 1723.9 15.4 C 1724.1 15.5 1724.2 15.5 1724.2 15.6 C 1725.4 15.6 1724.8 15.3 1725.7 15.3 C 1725.7 15.3 1725.7 15.3 1725.7 15.3 Z M 1718.5 15.4 C 1717.7 15.4 1718.9 15.5 1718.4 15.6 C 1719.3 15.6 1720.2 15.7 1720.2 15.5 C 1719.3 15.6 1719.1 15.6 1718.5 15.4 C 1718.5 15.4 1718.5 15.4 1718.5 15.4 Z M 1713.3 15.4 C 1712.5 15.5 1713.6 15.6 1713.2 15.8 C 1713.6 15.8 1713.5 15.7 1713.5 15.6 C 1713.8 15.7 1714.0 15.7 1714.4 15.7 C 1714.1 15.6 1713.2 15.6 1713.3 15.4 C 1713.3 15.4 1713.3 15.4 1713.3 15.4 Z M 1754.3 26.5 C 1754.2 26.0 1754.1 26.3 1754.1 25.2 C 1754.1 26.8 1753.6 26.3 1753.6 28.3 C 1753.7 28.0 1753.8 28.1 1753.7 28.3 C 1753.8 29.1 1753.8 27.5 1754.0 28.2 C 1754.0 27.6 1753.8 28.0 1753.8 27.4 C 1753.9 26.7 1754.0 26.3 1754.3 26.5 C 1754.3 26.5 1754.3 26.5 1754.3 26.5 Z M 1753.5 28.4 C 1753.4 29.1 1753.8 28.9 1753.6 29.3 C 1753.6 29.5 1753.7 29.4 1753.7 29.5 C 1753.7 29.3 1753.7 29.2 1753.8 29.2 C 1753.7 28.7 1753.6 28.2 1753.5 28.4 C 1753.5 28.4 1753.5 28.4 1753.5 28.4 Z M 1753.5 23.0 C 1753.5 23.9 1753.4 24.3 1753.6 24.6 C 1753.3 25.1 1753.7 25.2 1753.5 25.9 C 1753.5 26.8 1753.6 26.0 1753.7 25.7 C 1753.8 26.6 1753.5 26.1 1753.6 26.9 C 1753.8 27.0 1753.7 25.8 1753.9 25.8 C 1753.9 25.1 1753.8 25.2 1753.8 24.8 C 1753.8 24.4 1753.9 24.5 1753.9 24.4 C 1753.9 23.6 1754.0 23.5 1754.0 22.9 C 1753.8 22.8 1753.8 23.2 1753.8 23.9 C 1753.7 23.2 1753.6 22.9 1753.7 21.9 C 1753.9 22.4 1753.9 19.5 1753.6 20.0 C 1753.6 20.8 1753.8 20.4 1753.8 20.7 C 1753.6 21.8 1753.7 22.4 1753.5 23.0 C 1753.5 23.0 1753.5 23.0 1753.5 23.0 Z M 1746.3 15.8 C 1746.1 15.8 1745.9 15.8 1745.5 15.8 C 1745.6 15.6 1746.1 15.6 1745.7 15.5 C 1745.1 15.5 1744.9 15.6 1744.5 15.6 C 1744.6 15.7 1745.8 15.9 1745.0 16.0 C 1745.2 16.0 1745.5 16.1 1746.1 16.1 C 1745.7 15.8 1746.9 16.1 1747.5 16.1 C 1747.7 15.8 1748.4 16.1 1749.0 16.0 C 1748.8 15.8 1747.5 16.0 1747.0 16.0 C 1747.3 15.9 1746.0 15.5 1746.3 15.8 C 1746.3 15.8 1746.3 15.8 1746.3 15.8 Z M 1753.6 30.7 C 1753.6 30.8 1753.7 31.5 1753.7 30.9 C 1753.8 31.2 1753.7 31.8 1753.9 31.4 C 1753.9 31.7 1753.9 32.0 1753.9 32.3 C 1753.8 32.2 1753.9 31.4 1753.7 31.8 C 1753.8 32.4 1753.7 32.2 1753.7 33.0 C 1753.5 32.6 1753.5 33.1 1753.3 32.8 C 1753.4 33.0 1753.4 33.7 1753.5 33.6 C 1753.5 34.7 1753.3 33.4 1753.3 34.8 C 1753.1 34.9 1753.1 33.8 1753.2 33.4 C 1753.0 33.3 1753.2 35.2 1753.1 36.3 C 1753.2 35.3 1753.4 36.0 1753.6 36.5 C 1753.5 36.8 1753.4 36.5 1753.3 37.1 C 1753.3 37.6 1753.4 37.8 1753.3 38.0 C 1753.4 38.4 1753.5 38.2 1753.6 38.2 C 1753.6 38.9 1753.3 38.4 1753.3 39.4 C 1753.6 38.6 1753.7 39.5 1753.6 40.8 C 1753.7 40.7 1753.7 40.3 1753.8 40.2 C 1753.9 40.4 1753.6 41.2 1753.6 41.4 C 1753.6 41.9 1753.7 41.6 1753.7 41.1 C 1753.8 41.4 1753.8 41.7 1753.9 42.0 C 1753.9 40.5 1753.9 38.2 1754.1 35.5 C 1754.0 36.0 1753.9 35.4 1754.0 34.6 C 1754.1 34.5 1754.1 34.8 1754.1 35.2 C 1754.3 34.2 1753.9 34.4 1754.0 32.9 C 1754.0 32.1 1754.1 33.7 1754.2 32.8 C 1754.2 32.3 1754.0 31.9 1754.2 31.6 C 1754.2 30.7 1753.9 30.5 1753.9 29.1 C 1753.8 29.9 1753.4 30.5 1753.5 31.3 C 1753.6 31.3 1753.6 30.9 1753.6 30.7 C 1753.6 30.7 1753.6 30.7 1753.6 30.7 Z M 1741.1 15.6 C 1740.6 15.6 1740.2 15.7 1740.2 15.6 C 1739.3 15.6 1740.2 15.8 1740.3 15.8 C 1740.7 15.8 1740.9 15.7 1741.1 15.6 C 1741.1 15.6 1741.1 15.6 1741.1 15.6 Z M 1654.0 15.6 C 1652.9 15.5 1653.3 15.8 1652.4 15.8 C 1653.2 15.8 1653.5 16.0 1654.6 16.0 C 1654.5 15.8 1654.4 15.7 1654.0 15.6 C 1654.0 15.6 1654.0 15.6 1654.0 15.6 Z M 1743.8 15.7 C 1744.7 15.5 1742.8 15.9 1742.9 15.8 C 1742.0 15.9 1743.6 15.9 1742.7 16.1 C 1743.5 16.0 1743.8 16.1 1744.7 16.0 C 1744.8 15.9 1744.1 15.9 1743.4 15.9 C 1743.4 15.8 1743.8 15.8 1743.8 15.7 C 1743.8 15.7 1743.8 15.7 1743.8 15.7 Z M 1665.5 16.1 C 1666.2 15.9 1664.6 15.7 1664.1 15.6 C 1664.2 15.9 1664.4 15.9 1665.5 16.1 C 1665.5 16.1 1665.5 16.1 1665.5 16.1 Z M 1650.0 19.0 C 1650.2 19.6 1650.0 17.7 1650.2 18.4 C 1650.2 17.9 1650.2 17.8 1650.1 17.7 C 1650.2 17.5 1650.1 16.7 1650.3 17.0 C 1650.4 17.0 1650.3 18.3 1650.5 18.0 C 1650.5 18.5 1650.4 18.5 1650.4 18.8 C 1650.4 18.0 1650.2 18.2 1650.2 19.2 C 1650.3 19.3 1650.3 18.8 1650.4 19.4 C 1650.3 19.4 1650.2 19.8 1649.9 19.5 C 1649.9 20.4 1650.3 20.2 1650.2 21.2 C 1650.3 21.2 1650.3 20.6 1650.4 20.2 C 1650.6 20.5 1650.2 21.2 1650.5 21.2 C 1650.4 21.3 1650.3 21.8 1650.1 21.7 C 1650.0 20.8 1649.9 20.2 1649.8 19.4 C 1649.7 19.9 1650.1 21.2 1649.9 22.1 C 1650.1 22.1 1650.1 22.7 1650.2 22.6 C 1650.2 23.4 1650.0 22.8 1649.9 22.7 C 1649.8 22.8 1649.9 24.5 1650.1 24.5 C 1649.9 24.5 1649.9 26.4 1650.2 26.5 C 1650.0 27.0 1650.3 28.1 1650.1 28.2 C 1650.1 28.6 1650.1 29.2 1650.1 29.9 C 1650.3 30.3 1650.2 29.0 1650.3 29.0 C 1650.5 28.9 1650.3 30.3 1650.5 30.2 C 1650.5 30.2 1650.5 30.3 1650.6 30.3 C 1650.5 29.7 1650.5 29.0 1650.4 28.4 C 1650.4 28.1 1650.5 28.6 1650.6 28.6 C 1650.5 28.1 1650.2 26.1 1650.6 26.3 C 1650.5 25.0 1650.6 24.2 1650.4 23.6 C 1650.4 22.9 1650.5 24.1 1650.7 23.8 C 1650.4 21.5 1650.7 19.2 1650.4 17.2 C 1650.4 16.8 1650.6 17.1 1650.7 17.1 C 1650.6 16.9 1650.6 16.7 1650.6 16.5 C 1652.0 16.4 1650.3 16.2 1652.1 16.3 C 1652.2 16.4 1651.3 16.4 1651.5 16.6 C 1652.2 16.6 1652.2 16.5 1653.2 16.5 C 1653.1 16.4 1653.0 16.3 1652.9 16.3 C 1653.7 16.3 1653.6 16.5 1654.0 16.6 C 1654.9 16.5 1654.6 16.4 1655.2 16.6 C 1656.0 16.5 1656.7 16.5 1657.7 16.6 C 1658.2 16.4 1656.8 16.1 1655.9 16.1 C 1655.9 16.1 1656.2 16.1 1656.1 16.0 C 1657.3 16.2 1657.8 16.5 1659.4 16.6 C 1658.0 16.4 1659.9 16.5 1660.3 16.6 C 1660.9 16.6 1660.2 16.3 1659.8 16.4 C 1659.8 16.3 1660.3 16.4 1660.4 16.4 C 1660.3 16.2 1658.6 16.0 1657.1 16.1 C 1657.5 15.8 1655.9 16.2 1656.4 15.8 C 1655.2 15.8 1656.5 16.1 1655.0 16.0 C 1655.2 16.1 1655.5 16.2 1655.7 16.3 C 1654.6 16.3 1654.7 16.0 1653.6 16.1 C 1653.5 16.2 1654.3 16.2 1654.4 16.3 C 1652.9 16.1 1652.5 16.1 1651.4 15.9 C 1651.4 16.0 1651.8 16.2 1650.2 16.1 C 1650.1 16.0 1650.1 16.0 1650.1 16.0 C 1650.6 16.0 1650.7 15.8 1649.8 15.7 C 1649.8 15.9 1649.7 16.1 1649.7 16.5 C 1649.9 16.7 1649.9 16.2 1649.9 15.8 C 1649.9 15.8 1649.9 15.8 1649.9 15.8 C 1649.9 15.8 1649.9 15.8 1649.9 15.8 C 1650.0 16.1 1650.0 16.7 1650.0 17.4 C 1650.0 17.7 1649.9 18.0 1649.9 17.5 C 1649.8 17.6 1650.1 18.2 1650.0 19.0 C 1650.0 19.0 1650.0 19.0 1650.0 19.0 Z M 1727.0 15.7 C 1726.7 15.7 1726.5 15.8 1726.1 15.8 C 1725.8 15.9 1726.6 15.9 1726.5 16.0 C 1727.1 16.0 1726.8 15.8 1727.0 15.7 C 1727.0 15.7 1727.0 15.7 1727.0 15.7 Z M 1734.9 15.8 C 1734.9 15.7 1734.4 15.9 1733.7 15.8 C 1733.4 16.0 1734.2 16.0 1734.2 16.1 C 1734.9 16.1 1734.2 15.8 1734.9 15.8 C 1734.9 15.8 1734.9 15.8 1734.9 15.8 Z M 1731.5 15.8 C 1731.2 15.7 1731.1 15.9 1731.7 15.9 C 1731.6 16.0 1731.4 16.1 1731.0 16.1 C 1731.3 16.3 1731.8 16.0 1732.5 16.1 C 1732.3 16.0 1731.9 15.9 1731.5 15.8 C 1731.5 15.8 1731.5 15.8 1731.5 15.8 Z M 1730.3 15.8 C 1729.8 16.0 1729.6 15.8 1728.9 15.9 C 1729.0 16.0 1730.6 15.9 1730.9 15.9 C 1731.2 15.8 1729.5 15.8 1730.3 15.8 C 1730.3 15.8 1730.3 15.8 1730.3 15.8 Z M 1677.0 16.3 C 1676.7 16.3 1676.8 16.4 1676.7 16.4 C 1675.7 16.2 1674.5 16.2 1675.4 16.0 C 1674.5 16.1 1673.6 15.9 1672.8 15.8 C 1672.1 15.8 1672.5 16.0 1672.0 16.0 C 1671.2 16.0 1672.4 15.9 1672.2 15.8 C 1671.9 15.7 1671.9 16.0 1670.8 15.9 C 1671.3 16.2 1669.9 15.9 1670.4 16.2 C 1669.8 16.1 1669.7 16.2 1669.0 16.2 C 1669.1 16.3 1669.8 16.3 1670.0 16.4 C 1670.5 16.6 1670.3 16.3 1669.6 16.3 C 1669.9 16.1 1671.1 16.4 1671.3 16.2 C 1671.8 16.4 1670.4 16.3 1670.9 16.5 C 1671.1 16.5 1671.3 16.4 1671.4 16.4 C 1671.8 16.4 1672.1 16.5 1672.3 16.6 C 1672.1 16.6 1672.0 16.5 1672.0 16.5 C 1671.5 16.5 1672.7 16.8 1671.6 16.8 C 1671.8 16.8 1672.3 16.9 1672.3 17.0 C 1672.7 17.1 1672.0 16.5 1673.2 16.7 C 1673.9 16.5 1671.4 16.5 1671.8 16.1 C 1673.4 16.2 1672.7 16.5 1674.0 16.5 C 1673.9 16.4 1673.8 16.3 1674.2 16.3 C 1674.1 16.2 1673.6 16.3 1673.3 16.2 C 1673.3 16.2 1673.8 16.2 1674.1 16.2 C 1674.0 16.1 1673.8 16.1 1673.7 16.1 C 1674.8 16.1 1674.9 16.5 1674.0 16.6 C 1674.1 16.8 1675.4 16.8 1675.7 16.7 C 1675.3 16.5 1675.7 16.6 1675.3 16.4 C 1675.0 16.4 1675.1 16.4 1675.1 16.5 C 1674.6 16.4 1675.0 16.4 1675.0 16.3 C 1675.6 16.3 1675.6 16.5 1676.1 16.4 C 1676.0 16.4 1675.9 16.5 1676.0 16.6 C 1676.2 16.6 1676.5 16.6 1676.8 16.6 C 1676.7 16.4 1677.1 16.4 1677.0 16.3 C 1677.0 16.3 1677.0 16.3 1677.0 16.3 Z M 1661.9 15.8 C 1660.9 15.8 1661.6 16.0 1662.0 16.0 C 1661.9 16.0 1661.6 16.0 1661.2 16.1 C 1661.6 16.1 1661.8 16.1 1662.7 16.1 C 1662.1 16.4 1663.2 16.7 1664.5 16.7 C 1664.7 16.3 1663.5 16.3 1663.8 16.1 C 1662.9 16.2 1662.2 16.1 1661.9 15.8 C 1661.9 15.8 1661.9 15.8 1661.9 15.8 Z M 1740.3 15.9 C 1739.7 15.9 1739.1 15.9 1738.6 15.9 C 1738.5 16.1 1740.2 16.2 1740.3 15.9 C 1740.3 15.9 1740.3 15.9 1740.3 15.9 Z M 1753.6 43.1 C 1753.6 43.4 1753.6 43.4 1753.6 43.4 C 1753.6 44.3 1753.7 43.0 1753.9 43.4 C 1753.9 43.1 1753.9 42.8 1753.9 42.6 C 1753.8 42.5 1753.7 43.8 1753.6 42.8 C 1753.6 42.9 1753.6 43.1 1753.6 43.1 C 1753.6 43.1 1753.6 43.1 1753.6 43.1 Z M 1727.4 16.0 C 1726.9 16.0 1727.1 16.3 1725.9 16.2 C 1726.2 16.3 1726.5 16.3 1727.3 16.2 C 1727.3 16.1 1727.4 16.0 1727.4 16.0 C 1727.4 16.0 1727.4 16.0 1727.4 16.0 Z M 1681.1 16.0 C 1680.3 15.8 1680.3 16.2 1678.9 16.1 C 1679.7 16.4 1680.3 16.1 1681.1 16.0 C 1681.1 16.0 1681.1 16.0 1681.1 16.0 Z M 1650.4 32.4 C 1650.5 32.0 1650.5 32.6 1650.6 32.0 C 1650.5 31.5 1650.4 31.3 1650.4 30.7 C 1650.2 31.4 1650.4 32.9 1650.1 33.3 C 1650.1 34.0 1650.3 34.1 1650.5 34.4 C 1650.5 34.1 1650.5 33.9 1650.5 33.9 C 1650.3 33.3 1650.7 33.1 1650.4 32.4 C 1650.4 32.4 1650.4 32.4 1650.4 32.4 Z M 1665.8 16.1 C 1666.4 16.2 1665.6 16.3 1665.5 16.4 C 1665.1 16.4 1665.1 16.3 1665.0 16.2 C 1664.5 16.2 1664.5 16.3 1664.6 16.4 C 1665.6 16.5 1666.8 16.5 1666.2 16.7 C 1667.2 16.8 1666.5 16.5 1666.9 16.5 C 1667.5 16.6 1667.1 16.7 1667.2 16.8 C 1667.4 16.8 1667.9 16.6 1668.0 16.8 C 1669.2 16.6 1668.4 16.3 1667.2 16.0 C 1666.4 16.2 1667.5 16.3 1665.8 16.1 C 1665.8 16.1 1665.8 16.1 1665.8 16.1 Z M 1701.8 16.3 C 1701.7 16.2 1701.3 16.3 1701.3 16.2 C 1700.6 16.4 1700.1 16.5 1699.6 16.7 C 1699.7 16.9 1700.5 16.7 1700.1 16.6 C 1700.4 16.7 1700.9 16.8 1701.3 16.9 C 1701.8 16.9 1702.0 16.6 1702.1 16.8 C 1702.7 16.7 1702.3 16.7 1703.2 16.8 C 1701.8 16.6 1703.7 16.7 1703.8 16.5 C 1703.0 16.5 1702.3 16.5 1702.4 16.7 C 1701.8 16.6 1701.1 16.5 1701.0 16.4 C 1701.0 16.3 1701.5 16.3 1701.8 16.3 C 1701.8 16.3 1701.8 16.3 1701.8 16.3 Z M 1698.5 16.8 C 1698.7 16.8 1698.9 16.8 1699.3 16.8 C 1699.1 16.7 1699.0 16.7 1699.0 16.6 C 1698.3 16.6 1698.1 16.7 1697.9 16.5 C 1697.2 16.5 1698.1 16.8 1697.0 16.7 C 1697.1 16.7 1697.6 16.7 1697.6 16.8 C 1697.7 16.7 1698.1 16.6 1698.5 16.8 C 1698.5 16.8 1698.5 16.8 1698.5 16.8 Z M 1689.7 16.5 C 1689.0 16.5 1690.1 16.6 1689.8 16.7 C 1690.0 16.7 1691.4 16.8 1691.2 16.9 C 1691.7 17.2 1693.0 16.7 1692.9 17.0 C 1693.2 17.0 1693.1 16.9 1693.2 16.8 C 1692.2 16.8 1692.2 16.7 1692.9 16.7 C 1692.7 16.6 1692.1 16.6 1691.7 16.6 C 1691.7 16.7 1692.1 16.7 1692.0 16.8 C 1691.2 16.8 1690.5 16.6 1689.7 16.5 C 1689.7 16.5 1689.7 16.5 1689.7 16.5 Z M 1747.4 68.3 C 1748.1 68.3 1748.5 68.3 1748.8 68.2 C 1748.5 68.1 1748.2 68.2 1747.9 68.2 C 1747.7 68.1 1748.0 68.1 1748.4 68.1 C 1747.9 67.9 1746.9 68.1 1747.4 68.3 C 1747.4 68.3 1747.4 68.3 1747.4 68.3 Z M 1753.0 68.3 C 1753.1 68.3 1753.2 68.3 1753.3 68.3 C 1753.3 67.8 1753.2 67.5 1753.2 67.3 C 1753.0 67.5 1753.2 67.5 1753.2 68.0 C 1753.2 68.0 1753.2 68.1 1753.2 68.2 C 1753.0 68.1 1752.9 68.1 1752.8 68.0 C 1752.5 68.0 1752.6 68.1 1752.6 68.2 C 1752.4 68.2 1752.3 68.1 1752.2 68.1 C 1751.7 68.3 1753.1 68.1 1753.0 68.3 C 1753.0 68.3 1753.0 68.3 1753.0 68.3 Z M 1694.5 16.6 C 1694.8 16.7 1695.0 16.8 1695.7 16.8 C 1695.5 16.7 1696.1 16.7 1696.5 16.7 C 1695.8 16.5 1695.5 16.6 1694.5 16.6 C 1694.5 16.6 1694.5 16.6 1694.5 16.6 Z M 1753.2 32.9 C 1753.3 32.0 1753.0 32.2 1753.2 30.9 C 1753.1 30.9 1753.0 30.9 1753.0 31.0 C 1753.1 31.6 1753.0 32.0 1753.2 32.9 C 1753.2 32.9 1753.2 32.9 1753.2 32.9 Z M 1672.7 68.2 C 1672.7 68.0 1671.9 68.1 1671.8 68.0 C 1671.7 68.3 1671.2 67.8 1669.6 67.9 C 1669.5 67.8 1669.6 67.8 1669.8 67.7 C 1668.5 67.7 1670.3 67.9 1670.4 68.1 C 1671.5 68.1 1671.7 68.2 1672.7 68.2 C 1672.7 68.2 1672.7 68.2 1672.7 68.2 Z M 1650.9 24.4 C 1650.9 24.3 1650.9 24.4 1650.9 24.6 C 1650.9 24.8 1650.9 25.0 1650.9 25.2 C 1651.1 25.3 1651.2 24.5 1651.5 25.4 C 1651.5 25.2 1651.5 25.1 1651.4 25.1 C 1650.9 23.3 1651.8 23.0 1651.4 20.9 C 1651.4 20.6 1651.4 20.6 1651.3 20.5 C 1651.3 20.8 1651.3 20.7 1651.2 20.7 C 1651.5 21.2 1651.2 22.5 1651.1 21.7 C 1651.1 21.7 1651.1 22.0 1651.1 22.0 C 1651.1 22.2 1651.1 22.4 1651.1 22.6 C 1651.2 22.5 1651.2 22.2 1651.3 22.2 C 1651.2 23.0 1651.2 24.0 1650.9 23.3 C 1651.0 23.8 1651.1 24.1 1651.1 24.5 C 1651.1 24.9 1650.9 24.7 1650.9 24.4 C 1650.9 24.4 1650.9 24.4 1650.9 24.4 Z M 1651.0 31.7 C 1651.0 32.5 1651.2 32.3 1651.1 33.2 C 1651.3 32.7 1651.1 31.9 1651.2 31.3 C 1651.1 31.3 1651.1 31.7 1651.0 31.7 C 1651.0 31.7 1651.0 31.7 1651.0 31.7 Z M 1652.6 17.2 C 1652.7 17.4 1653.5 17.4 1654.3 17.4 C 1654.2 17.2 1653.5 17.2 1652.6 17.2 C 1652.6 17.2 1652.6 17.2 1652.6 17.2 Z M 1651.2 19.4 C 1651.3 20.2 1651.3 18.4 1651.5 19.0 C 1651.5 18.6 1651.5 18.2 1651.5 18.3 C 1651.5 17.9 1651.4 17.8 1651.4 17.3 C 1651.4 17.3 1651.4 17.3 1651.4 17.3 C 1651.4 17.3 1651.4 17.3 1651.4 17.3 C 1651.3 17.3 1651.4 18.2 1651.2 18.0 C 1651.4 18.7 1651.4 18.8 1651.2 19.4 C 1651.2 19.4 1651.2 19.4 1651.2 19.4 Z M 1651.2 19.9 C 1651.3 20.5 1651.6 20.1 1651.6 19.4 C 1651.5 19.6 1651.3 19.6 1651.2 19.9 C 1651.2 19.9 1651.2 19.9 1651.2 19.9 Z M 1713.5 17.2 C 1713.1 17.2 1713.3 17.4 1712.9 17.4 C 1712.9 17.5 1714.5 17.5 1713.1 17.5 C 1713.6 17.7 1713.9 17.4 1714.5 17.5 C 1714.4 17.4 1714.2 17.3 1714.6 17.3 C 1714.8 17.2 1713.2 17.4 1713.5 17.2 C 1713.5 17.2 1713.5 17.2 1713.5 17.2 Z M 1711.8 17.2 C 1711.5 17.2 1711.6 17.3 1711.8 17.3 C 1711.7 17.3 1711.3 17.3 1711.0 17.3 C 1710.9 17.2 1711.5 17.6 1711.4 17.7 C 1712.9 17.6 1711.8 17.4 1711.8 17.2 C 1711.8 17.2 1711.8 17.2 1711.8 17.2 Z M 1710.4 17.3 C 1709.5 17.2 1708.2 17.2 1707.6 17.4 C 1708.2 17.6 1709.9 17.6 1710.4 17.3 C 1710.4 17.3 1710.4 17.3 1710.4 17.3 Z M 1719.5 17.4 C 1717.9 17.2 1714.6 17.5 1717.5 17.6 C 1717.4 17.5 1719.4 17.4 1720.3 17.5 C 1720.4 17.4 1721.5 17.3 1721.5 17.4 C 1722.2 17.2 1719.2 17.2 1719.5 17.4 C 1719.5 17.4 1719.5 17.4 1719.5 17.4 Z M 1706.5 17.8 C 1707.0 17.7 1706.4 17.3 1707.1 17.5 C 1707.5 17.4 1707.0 17.4 1707.1 17.3 C 1706.2 17.3 1704.5 17.5 1704.3 17.3 C 1703.9 17.3 1703.7 17.5 1702.9 17.5 C 1702.9 17.5 1705.9 17.3 1706.5 17.6 C 1706.4 17.7 1705.4 17.7 1706.5 17.8 C 1706.5 17.8 1706.5 17.8 1706.5 17.8 Z M 1752.1 33.3 C 1752.2 33.3 1752.1 32.2 1752.3 32.4 C 1752.1 31.8 1752.2 31.2 1752.1 30.6 C 1752.1 30.3 1752.4 30.3 1752.4 29.3 C 1752.3 29.3 1752.3 29.8 1752.2 29.4 C 1752.2 28.5 1752.4 28.7 1752.3 27.7 C 1752.0 28.0 1752.3 25.6 1752.0 26.0 C 1752.0 26.5 1752.1 26.4 1752.1 27.3 C 1752.1 27.6 1752.0 27.5 1752.0 27.9 C 1751.8 27.7 1752.0 27.1 1751.9 26.9 C 1751.8 27.0 1751.8 27.7 1751.7 27.8 C 1751.7 28.2 1751.7 27.7 1751.8 27.7 C 1751.9 28.7 1751.4 27.9 1751.5 29.0 C 1751.7 28.7 1751.7 28.6 1751.8 28.8 C 1751.8 29.3 1751.9 30.6 1751.7 30.0 C 1751.5 30.1 1751.7 30.8 1751.8 30.7 C 1751.9 31.1 1751.8 31.2 1751.7 31.3 C 1751.8 32.4 1751.9 32.5 1752.1 32.2 C 1752.3 32.3 1752.0 32.6 1752.1 33.3 C 1752.1 33.3 1752.1 33.3 1752.1 33.3 Z M 1728.3 17.4 C 1729.0 17.3 1727.6 17.5 1727.0 17.4 C 1727.7 17.5 1727.4 17.7 1728.2 17.7 C 1727.9 17.7 1728.0 17.6 1728.5 17.6 C 1728.7 17.5 1727.5 17.5 1728.3 17.4 C 1728.3 17.4 1728.3 17.4 1728.3 17.4 Z M 1701.3 17.4 C 1701.0 17.3 1699.5 17.4 1698.8 17.4 C 1698.9 17.7 1700.8 17.3 1701.0 17.6 C 1701.4 17.6 1700.8 17.5 1701.3 17.4 C 1701.3 17.4 1701.3 17.4 1701.3 17.4 Z M 1752.3 22.7 C 1752.3 22.4 1752.3 22.6 1752.3 22.8 C 1752.2 22.7 1752.2 22.1 1752.2 21.7 C 1752.1 22.4 1752.0 21.7 1751.8 22.0 C 1751.8 21.7 1751.8 21.6 1751.8 21.5 C 1752.1 21.2 1751.6 20.0 1751.5 21.7 C 1751.7 21.3 1751.7 21.4 1751.8 22.1 C 1751.6 22.9 1751.8 23.4 1751.6 23.8 C 1751.6 24.3 1751.7 24.4 1751.7 25.1 C 1751.6 25.3 1751.5 26.0 1751.2 25.7 C 1751.2 26.8 1751.7 25.8 1751.7 26.7 C 1751.6 27.7 1751.5 26.4 1751.4 26.7 C 1751.4 26.9 1751.3 26.9 1751.2 27.0 C 1751.3 27.3 1751.4 27.2 1751.4 26.9 C 1751.5 27.0 1751.6 27.8 1751.4 27.7 C 1751.5 28.2 1752.0 26.5 1751.8 25.8 C 1751.8 25.4 1752.1 25.2 1752.1 25.6 C 1752.2 25.4 1751.8 24.8 1752.2 24.7 C 1752.2 24.4 1752.2 24.0 1752.2 23.6 C 1752.2 23.7 1752.1 24.0 1752.1 24.0 C 1752.1 23.7 1752.1 23.3 1752.1 22.9 C 1752.2 23.2 1752.2 23.1 1752.3 22.7 C 1752.3 22.7 1752.3 22.7 1752.3 22.7 Z M 1704.9 17.5 C 1704.2 17.5 1704.0 17.6 1703.5 17.6 C 1703.7 17.8 1705.2 17.7 1704.9 17.5 C 1704.9 17.5 1704.9 17.5 1704.9 17.5 Z M 1751.5 38.0 C 1751.6 37.9 1751.6 37.5 1751.7 37.5 C 1751.7 38.3 1751.8 37.3 1752.1 37.9 C 1752.0 36.9 1751.6 36.6 1751.4 38.0 C 1751.4 39.1 1751.5 37.0 1751.5 38.0 C 1751.5 38.0 1751.5 38.0 1751.5 38.0 Z M 1751.7 34.8 C 1751.6 34.1 1751.5 35.8 1751.4 36.2 C 1751.4 36.2 1751.3 36.2 1751.2 36.2 C 1751.5 37.1 1751.6 35.8 1752.0 36.6 C 1752.0 35.5 1752.1 35.0 1752.0 34.1 C 1751.9 34.2 1752.0 34.4 1752.0 34.4 C 1752.0 35.1 1751.7 34.7 1751.8 33.9 C 1751.7 34.2 1751.7 34.8 1751.7 35.3 C 1751.8 35.2 1751.8 35.0 1751.9 35.0 C 1751.9 35.6 1751.8 35.4 1751.8 35.8 C 1751.7 35.8 1751.5 34.8 1751.7 34.8 C 1751.7 34.8 1751.7 34.8 1751.7 34.8 Z M 1730.5 67.0 C 1731.0 66.9 1729.7 66.7 1729.5 66.4 C 1728.9 66.4 1728.8 66.5 1728.5 66.5 C 1728.8 66.6 1729.4 66.6 1729.8 66.7 C 1729.8 67.0 1728.9 66.7 1728.8 66.8 C 1728.6 67.1 1730.1 66.7 1730.5 67.0 C 1730.5 67.0 1730.5 67.0 1730.5 67.0 Z M 1744.3 17.8 C 1744.0 17.8 1744.1 17.9 1744.3 17.9 C 1744.2 17.9 1743.7 17.9 1743.7 17.9 C 1743.3 17.9 1743.9 18.0 1743.4 18.0 C 1743.2 18.1 1744.1 18.0 1744.2 17.9 C 1744.8 17.9 1744.2 18.1 1744.3 18.2 C 1744.8 18.2 1744.7 18.1 1745.4 18.1 C 1745.1 18.0 1744.8 17.9 1744.3 17.8 C 1744.3 17.8 1744.3 17.8 1744.3 17.8 Z M 1751.9 39.8 C 1752.0 39.9 1751.6 39.2 1751.8 38.5 C 1751.8 37.6 1751.6 39.1 1751.6 38.3 C 1751.6 39.0 1751.7 39.8 1751.7 40.9 C 1751.8 41.2 1751.8 39.4 1751.8 40.4 C 1751.9 40.3 1751.9 40.1 1751.8 40.1 C 1751.8 39.9 1751.9 39.9 1751.9 39.8 C 1751.9 39.8 1751.9 39.8 1751.9 39.8 Z M 1751.5 38.8 C 1751.4 38.9 1751.4 39.1 1751.5 39.1 C 1751.5 39.4 1751.3 39.5 1751.3 39.1 C 1751.1 39.6 1751.5 39.5 1751.4 40.4 C 1751.5 40.0 1751.6 39.8 1751.5 40.7 C 1751.7 41.4 1751.6 39.1 1751.5 38.8 C 1751.5 38.8 1751.5 38.8 1751.5 38.8 Z M 1739.2 66.8 C 1739.0 66.8 1738.5 66.8 1738.0 66.8 C 1738.4 66.6 1740.7 66.7 1741.1 66.8 C 1741.3 66.8 1741.5 66.8 1741.7 66.8 C 1741.6 66.8 1742.1 66.7 1741.8 66.7 C 1741.8 66.6 1742.3 66.6 1742.2 66.5 C 1743.1 66.6 1742.1 66.7 1742.4 66.8 C 1743.3 66.6 1743.2 66.7 1744.3 66.8 C 1744.0 66.6 1742.8 66.7 1742.7 66.4 C 1741.9 66.6 1740.8 66.5 1740.1 66.3 C 1741.2 66.6 1738.1 66.7 1736.6 66.7 C 1736.5 66.5 1736.0 66.6 1735.3 66.5 C 1734.7 66.3 1735.2 66.7 1735.9 66.6 C 1736.0 66.7 1734.8 66.6 1734.4 66.7 C 1735.0 66.8 1734.8 66.8 1735.1 66.9 C 1736.2 66.9 1735.2 66.8 1735.2 66.7 C 1735.5 66.7 1735.8 66.7 1736.1 66.7 C 1734.9 67.0 1738.2 66.8 1736.9 66.8 C 1738.0 66.8 1738.2 67.0 1739.2 66.8 C 1739.2 66.8 1739.2 66.8 1739.2 66.8 Z M 1751.9 53.9 C 1751.9 53.7 1751.7 52.8 1751.9 52.8 C 1751.8 51.7 1751.6 52.6 1751.6 51.4 C 1751.5 51.4 1751.6 51.9 1751.5 51.9 C 1751.5 52.4 1751.6 52.8 1751.8 52.8 C 1751.8 53.3 1751.8 53.5 1751.8 53.9 C 1751.8 53.7 1751.7 53.5 1751.7 53.0 C 1751.6 52.9 1751.5 53.0 1751.5 53.7 C 1751.6 54.1 1751.8 54.0 1751.9 53.9 C 1751.9 53.9 1751.9 53.9 1751.9 53.9 Z M 1751.7 51.1 C 1751.7 51.0 1751.8 50.9 1751.8 50.9 C 1752.0 50.6 1751.6 50.7 1751.6 50.3 C 1751.6 50.0 1751.7 50.1 1751.8 50.1 C 1751.7 49.6 1751.7 49.2 1751.8 49.0 C 1751.7 48.3 1751.6 49.8 1751.5 50.0 C 1751.5 50.5 1751.7 50.4 1751.7 51.1 C 1751.7 51.1 1751.7 51.1 1751.7 51.1 Z M 1751.8 43.1 C 1752.0 43.0 1751.7 42.7 1751.8 42.3 C 1751.6 42.6 1751.7 43.3 1751.5 42.8 C 1751.4 43.6 1751.4 43.6 1751.5 44.4 C 1751.3 44.9 1751.6 44.5 1751.5 43.6 C 1751.6 43.7 1751.6 44.1 1751.7 44.2 C 1751.4 44.6 1751.9 46.1 1751.7 45.2 C 1751.7 45.0 1751.8 44.8 1751.8 44.7 C 1751.7 44.5 1751.8 42.7 1751.8 43.1 C 1751.8 43.1 1751.8 43.1 1751.8 43.1 Z M 1749.7 18.2 C 1750.8 18.1 1750.9 18.1 1751.7 18.2 C 1751.7 18.2 1751.7 18.3 1751.7 18.4 C 1751.6 18.5 1751.5 18.5 1751.5 18.3 C 1751.5 18.6 1751.5 18.9 1751.5 19.3 C 1751.6 19.2 1751.6 19.0 1751.5 19.1 C 1751.7 18.1 1751.7 18.8 1751.8 18.8 C 1751.9 18.5 1751.9 18.2 1751.9 18.0 C 1751.1 18.0 1750.4 18.1 1750.2 17.9 C 1749.8 18.0 1750.2 18.0 1749.7 18.2 C 1749.7 18.2 1749.7 18.2 1749.7 18.2 Z M 1673.5 66.7 C 1673.3 66.7 1672.9 66.7 1673.0 66.8 C 1673.4 66.8 1673.6 66.7 1674.0 66.7 C 1673.3 66.7 1673.3 66.4 1672.3 66.4 C 1672.7 66.5 1672.6 66.7 1673.5 66.7 C 1673.5 66.7 1673.5 66.7 1673.5 66.7 Z M 1751.8 45.8 C 1751.7 45.8 1751.6 45.8 1751.6 45.5 C 1751.5 45.4 1751.5 46.2 1751.4 46.3 C 1751.4 46.5 1751.5 46.5 1751.5 46.8 C 1751.6 46.7 1751.6 46.0 1751.8 46.3 C 1751.8 46.5 1751.8 46.6 1751.7 46.6 C 1751.8 47.2 1751.8 46.3 1751.8 45.8 C 1751.8 45.8 1751.8 45.8 1751.8 45.8 Z M 1727.6 66.8 C 1728.0 66.8 1727.5 66.7 1727.2 66.7 C 1727.9 66.5 1726.5 66.4 1726.3 66.2 C 1726.8 66.3 1727.8 66.2 1728.0 66.3 C 1728.3 66.3 1727.8 66.1 1728.7 66.1 C 1728.5 65.9 1727.6 66.1 1728.0 66.2 C 1727.5 66.0 1726.8 66.2 1726.7 66.0 C 1725.5 66.0 1725.3 66.1 1725.3 66.3 C 1726.5 66.2 1726.1 66.5 1727.1 66.5 C 1727.1 66.5 1726.8 66.5 1726.6 66.5 C 1726.8 66.7 1727.3 66.7 1727.6 66.8 C 1727.6 66.8 1727.6 66.8 1727.6 66.8 Z M 1751.8 62.5 C 1751.8 61.9 1751.6 61.8 1751.5 61.7 C 1751.5 62.0 1751.5 62.3 1751.5 62.8 C 1751.6 62.8 1751.6 62.0 1751.8 62.5 C 1751.8 62.5 1751.8 62.5 1751.8 62.5 Z M 1731.8 66.5 C 1731.9 66.6 1732.1 66.6 1732.1 66.5 C 1732.8 66.5 1733.0 66.6 1733.3 66.7 C 1733.7 66.7 1733.4 66.6 1733.4 66.5 C 1732.9 66.6 1732.8 66.4 1732.0 66.4 C 1732.1 66.5 1732.0 66.5 1731.8 66.5 C 1731.8 66.5 1731.8 66.5 1731.8 66.5 Z M 1750.3 66.7 C 1750.6 66.6 1750.4 66.6 1750.2 66.6 C 1750.3 66.5 1751.0 66.5 1751.5 66.5 C 1751.5 66.3 1751.5 66.1 1751.5 65.9 C 1751.3 65.8 1751.4 67.2 1751.3 65.5 C 1751.2 65.6 1751.2 65.9 1751.2 66.2 C 1750.7 66.2 1750.0 66.3 1749.6 66.2 C 1749.6 66.1 1750.6 66.1 1750.3 65.9 C 1749.6 66.0 1748.8 66.1 1748.9 66.4 C 1750.1 66.4 1749.9 66.5 1750.3 66.7 C 1750.3 66.7 1750.3 66.7 1750.3 66.7 Z M 1748.8 66.5 C 1749.0 66.6 1749.1 66.5 1749.6 66.5 C 1748.7 66.3 1748.4 66.4 1747.0 66.4 C 1747.0 66.4 1747.0 66.4 1747.1 66.5 C 1746.8 66.5 1746.5 66.5 1746.3 66.5 C 1747.7 66.7 1747.8 66.5 1749.0 66.5 C 1749.1 66.5 1749.0 66.5 1748.8 66.5 C 1748.8 66.5 1748.8 66.5 1748.8 66.5 Z M 1751.5 33.5 C 1751.4 33.9 1751.3 34.2 1751.3 34.9 C 1751.5 34.8 1751.6 34.4 1751.5 33.5 C 1751.5 33.5 1751.5 33.5 1751.5 33.5 Z M 1730.6 66.4 C 1730.0 66.5 1731.3 66.4 1730.7 66.2 C 1730.1 66.2 1729.4 66.1 1729.2 65.9 C 1728.2 66.2 1730.6 66.2 1730.6 66.4 C 1730.6 66.4 1730.6 66.4 1730.6 66.4 Z M 1735.2 66.0 C 1735.5 66.0 1735.7 66.3 1735.3 66.1 C 1734.5 66.1 1736.1 66.3 1734.8 66.2 C 1735.4 66.3 1736.6 66.4 1737.1 66.3 C 1736.9 66.1 1735.9 66.2 1735.8 66.1 C 1735.7 66.0 1735.8 66.0 1736.0 66.0 C 1735.8 65.9 1735.7 66.0 1735.2 66.0 C 1735.2 66.0 1735.2 66.0 1735.2 66.0 Z M 1739.5 66.3 C 1739.0 66.2 1738.4 66.1 1737.5 66.1 C 1738.2 66.2 1738.7 66.4 1739.5 66.3 C 1739.5 66.3 1739.5 66.3 1739.5 66.3 Z M 1687.8 66.1 C 1688.5 66.1 1687.8 65.9 1687.7 65.8 C 1687.0 65.8 1687.1 65.9 1686.4 65.9 C 1686.7 66.1 1687.3 65.9 1687.8 66.1 C 1687.8 66.1 1687.8 66.1 1687.8 66.1 Z M 1685.3 65.9 C 1685.2 65.8 1684.3 65.9 1684.2 65.8 C 1683.7 66.1 1682.7 65.5 1682.8 65.8 C 1682.6 65.8 1682.4 65.8 1682.0 65.8 C 1682.8 66.1 1684.5 66.0 1685.3 65.9 C 1685.3 65.9 1685.3 65.9 1685.3 65.9 Z M 1743.9 65.9 C 1744.6 66.0 1743.4 65.7 1744.2 65.7 C 1744.1 65.6 1742.7 65.6 1743.5 65.5 C 1742.2 65.4 1743.9 65.9 1743.9 65.9 C 1743.9 65.9 1743.9 65.9 1743.9 65.9 Z M 1750.8 59.8 C 1750.9 60.0 1750.8 58.9 1750.8 58.6 C 1750.8 58.5 1750.8 58.9 1750.8 59.1 C 1750.7 58.9 1750.6 58.8 1750.6 58.5 C 1750.5 58.6 1750.7 59.4 1750.8 59.8 C 1750.8 59.8 1750.8 59.8 1750.8 59.8 Z M 1745.3 69.1 C 1744.7 68.9 1744.0 68.7 1743.9 69.0 C 1743.3 68.8 1744.0 68.8 1743.3 68.7 C 1742.6 68.8 1742.8 68.6 1741.7 68.7 C 1741.7 68.5 1740.8 68.5 1740.5 68.3 C 1741.0 68.3 1741.8 68.5 1741.9 68.3 C 1741.5 68.3 1741.6 68.2 1741.9 68.3 C 1742.8 68.4 1741.0 68.5 1742.2 68.6 C 1742.2 68.4 1744.1 68.8 1745.1 68.8 C 1744.9 69.0 1746.1 69.0 1745.3 69.1 C 1745.3 69.1 1745.3 69.1 1745.3 69.1 Z M 1740.0 68.7 C 1739.3 68.7 1738.6 68.3 1738.8 68.3 C 1738.9 68.4 1739.7 68.4 1739.7 68.3 C 1739.5 68.3 1739.3 68.3 1739.3 68.3 C 1740.6 68.3 1740.3 68.5 1740.7 68.6 C 1740.1 68.7 1739.8 68.5 1739.6 68.6 C 1739.8 68.6 1740.0 68.6 1740.0 68.7 C 1740.0 68.7 1740.0 68.7 1740.0 68.7 Z M 1723.0 65.7 C 1723.2 65.8 1723.2 65.7 1723.5 65.6 C 1723.7 65.9 1724.9 65.5 1725.1 65.7 C 1724.9 65.8 1724.2 65.8 1723.9 65.9 C 1724.3 65.9 1724.4 66.0 1724.8 65.9 C 1724.8 66.0 1724.0 66.0 1723.9 66.2 C 1723.7 66.1 1723.5 66.2 1723.3 66.1 C 1724.3 66.0 1722.4 65.7 1723.0 65.7 C 1723.0 65.7 1723.0 65.7 1723.0 65.7 Z M 1749.9 65.7 C 1749.8 65.5 1748.2 65.1 1749.0 64.9 C 1749.4 65.0 1749.7 65.2 1749.9 65.4 C 1750.0 65.4 1750.2 65.4 1750.4 65.4 C 1750.4 65.1 1750.4 64.9 1750.3 64.5 C 1750.7 64.1 1750.5 64.7 1750.5 65.5 C 1750.2 65.5 1749.9 65.6 1749.9 65.7 C 1749.9 65.7 1749.9 65.7 1749.9 65.7 Z M 1750.5 62.2 C 1750.7 62.6 1750.7 62.0 1750.8 62.2 C 1750.7 62.6 1750.9 64.4 1750.8 63.7 C 1750.7 63.1 1750.5 63.0 1750.5 62.2 C 1750.5 62.2 1750.5 62.2 1750.5 62.2 Z M 1685.1 17.7 C 1685.9 17.6 1686.5 17.9 1686.0 18.0 C 1686.1 17.8 1684.8 17.9 1685.1 17.7 C 1685.1 17.7 1685.1 17.7 1685.1 17.7 Z M 1717.8 14.8 C 1717.0 14.7 1716.5 14.8 1716.4 14.6 C 1717.3 14.6 1717.1 14.7 1717.8 14.7 C 1717.9 14.6 1718.4 14.5 1718.4 14.6 C 1718.0 14.6 1718.1 14.8 1717.8 14.8 C 1717.8 14.8 1717.8 14.8 1717.8 14.8 Z M 1754.8 47.4 C 1754.9 47.3 1754.9 47.0 1755.0 47.2 C 1754.9 48.1 1755.1 49.1 1755.2 49.9 C 1755.1 49.9 1755.0 49.9 1755.0 49.9 C 1755.0 48.4 1754.9 48.0 1754.8 47.4 C 1754.8 47.4 1754.8 47.4 1754.8 47.4 Z M 1755.1 45.6 C 1755.0 45.5 1754.8 45.9 1754.8 45.3 C 1755.0 45.3 1755.2 44.2 1755.2 44.7 C 1755.1 44.9 1755.1 45.2 1755.1 45.6 C 1755.1 45.6 1755.1 45.6 1755.1 45.6 Z M 1729.4 69.2 C 1728.8 69.2 1729.9 69.3 1729.9 69.4 C 1729.4 69.4 1728.7 69.4 1728.4 69.3 C 1728.9 69.3 1729.0 69.0 1729.4 69.2 C 1729.4 69.2 1729.4 69.2 1729.4 69.2 Z M 1739.5 68.8 C 1740.9 68.7 1740.5 69.1 1742.0 69.1 C 1741.5 69.2 1740.2 69.2 1740.0 69.4 C 1739.9 69.2 1739.6 69.2 1739.5 69.1 C 1740.0 69.1 1740.2 69.2 1740.7 69.2 C 1740.3 69.0 1740.4 69.1 1740.4 68.9 C 1740.0 68.9 1739.8 68.9 1739.6 68.9 C 1739.6 68.8 1739.1 68.8 1739.5 68.8 C 1739.5 68.8 1739.5 68.8 1739.5 68.8 Z M 1729.3 68.7 C 1728.8 68.8 1728.1 68.5 1728.6 68.5 C 1728.8 68.6 1729.1 68.5 1729.2 68.6 C 1728.5 68.6 1730.0 68.7 1729.7 68.8 C 1729.2 68.8 1729.1 68.9 1729.3 69.0 C 1729.0 69.0 1728.5 69.0 1728.4 68.9 C 1728.6 68.9 1729.0 68.9 1728.9 68.9 C 1728.7 68.9 1728.6 68.9 1728.6 68.8 C 1729.1 68.8 1729.3 68.8 1729.3 68.7 C 1729.3 68.7 1729.3 68.7 1729.3 68.7 Z M 1733.2 68.7 C 1732.5 68.7 1732.3 68.5 1731.9 68.4 C 1733.0 68.5 1733.3 68.7 1734.2 68.8 C 1733.3 68.8 1732.6 69.0 1732.3 68.9 C 1732.6 68.8 1733.3 68.8 1733.2 68.7 C 1733.2 68.7 1733.2 68.7 1733.2 68.7 Z M 1650.6 55.6 C 1650.7 55.0 1650.8 54.4 1650.9 53.7 C 1650.7 53.4 1650.3 54.7 1650.5 54.2 C 1650.4 53.4 1650.7 54.0 1650.7 53.4 C 1650.4 53.9 1650.4 50.6 1650.7 50.6 C 1650.7 51.1 1650.8 51.3 1650.9 51.2 C 1650.9 52.5 1651.0 53.0 1651.1 54.0 C 1650.8 54.7 1650.8 56.8 1651.0 57.9 C 1650.7 58.6 1651.0 60.0 1650.8 61.0 C 1650.9 61.2 1651.0 60.1 1651.0 61.0 C 1650.8 61.5 1650.7 61.1 1650.6 61.8 C 1650.7 61.9 1650.9 61.7 1650.9 62.1 C 1650.8 62.0 1650.8 62.5 1650.7 62.7 C 1650.7 61.1 1650.5 62.7 1650.4 61.5 C 1650.5 61.0 1650.7 62.0 1650.7 60.7 C 1650.7 60.2 1650.6 59.7 1650.4 59.8 C 1650.4 59.4 1650.4 59.2 1650.3 58.9 C 1650.6 59.5 1650.3 57.0 1650.5 58.1 C 1650.5 58.2 1650.5 59.0 1650.6 59.5 C 1650.8 59.1 1650.7 58.5 1650.6 57.6 C 1650.7 57.2 1650.8 57.8 1650.8 57.3 C 1650.7 56.6 1650.6 57.5 1650.5 57.0 C 1650.5 57.2 1650.5 57.5 1650.4 57.5 C 1650.6 56.4 1650.4 55.9 1650.4 55.3 C 1650.5 55.7 1650.6 54.6 1650.6 55.6 C 1650.6 55.6 1650.6 55.6 1650.6 55.6 Z M 1650.8 65.7 C 1650.8 66.0 1650.8 66.3 1650.8 66.6 C 1650.6 66.6 1650.6 65.5 1650.5 66.3 C 1650.5 65.1 1650.7 66.3 1650.8 65.7 C 1650.8 65.7 1650.8 65.7 1650.8 65.7 Z M 1651.5 60.2 C 1651.7 59.9 1651.3 60.0 1651.2 59.6 C 1651.3 60.3 1651.3 61.0 1651.1 61.0 C 1651.2 60.2 1651.2 59.9 1651.1 59.1 C 1651.4 59.9 1651.3 58.2 1651.5 58.0 C 1651.6 58.6 1651.7 59.1 1651.7 60.0 C 1651.6 59.8 1651.5 61.0 1651.5 60.2 C 1651.5 60.2 1651.5 60.2 1651.5 60.2 Z M 1651.7 62.5 C 1651.6 62.6 1651.7 63.8 1651.5 63.6 C 1651.5 62.8 1651.5 62.6 1651.3 62.7 C 1651.3 62.2 1651.4 62.1 1651.4 61.6 C 1651.6 61.3 1651.6 62.2 1651.7 62.5 C 1651.7 62.3 1651.7 62.2 1651.7 62.5 C 1651.7 62.5 1651.7 62.5 1651.7 62.5 Z M 1667.1 66.1 C 1667.3 66.3 1666.2 66.2 1666.0 66.1 C 1666.3 66.3 1666.2 66.3 1665.5 66.4 C 1665.7 66.2 1664.7 66.3 1664.1 66.0 C 1663.9 66.2 1664.7 66.2 1663.8 66.3 C 1663.1 66.2 1662.5 66.3 1661.4 66.4 C 1661.1 66.2 1661.6 66.1 1661.9 66.1 C 1661.1 66.1 1661.3 65.9 1660.8 65.9 C 1660.9 66.0 1660.4 66.1 1660.3 66.0 C 1661.2 65.9 1659.0 65.8 1660.0 65.7 C 1660.0 65.8 1660.3 65.7 1660.5 65.7 C 1660.2 66.0 1661.6 65.9 1661.9 66.0 C 1662.4 65.6 1663.8 65.7 1665.4 65.9 C 1665.5 66.0 1665.0 66.0 1665.4 66.1 C 1665.5 66.0 1666.0 66.0 1666.2 65.9 C 1666.2 66.0 1666.5 66.1 1666.8 66.1 C 1666.8 66.1 1666.8 66.0 1667.1 66.1 C 1667.1 66.1 1667.1 66.1 1667.1 66.1 Z M 1659.4 18.5 C 1659.6 18.8 1661.2 18.6 1661.6 18.5 C 1661.8 18.9 1658.6 18.8 1659.4 18.5 C 1659.4 18.5 1659.4 18.5 1659.4 18.5 Z M 1652.8 22.5 C 1652.8 22.0 1652.6 22.2 1652.6 21.8 C 1652.8 21.9 1652.4 20.5 1652.6 20.7 C 1652.8 21.3 1652.8 21.6 1652.8 22.5 C 1652.8 22.5 1652.8 22.5 1652.8 22.5 Z M 1652.7 32.1 C 1652.7 31.3 1652.7 32.5 1652.6 32.3 C 1652.6 31.6 1652.6 30.9 1652.7 31.0 C 1652.7 31.6 1652.9 32.2 1652.7 32.1 C 1652.7 32.1 1652.7 32.1 1652.7 32.1 Z M 1654.1 18.9 C 1654.8 19.0 1654.0 19.2 1653.7 19.1 C 1654.2 19.0 1653.6 19.0 1653.0 18.9 C 1653.0 19.1 1653.0 19.3 1653.0 19.5 C 1652.8 19.2 1652.9 19.0 1652.7 19.1 C 1652.6 18.6 1652.7 18.6 1652.7 18.6 C 1652.8 18.7 1652.8 18.8 1653.2 18.8 C 1653.5 18.6 1653.1 18.7 1652.9 18.5 C 1653.2 18.5 1653.5 18.5 1653.7 18.5 C 1653.8 18.6 1653.9 18.7 1654.0 18.8 C 1653.7 18.8 1653.4 18.8 1653.6 19.0 C 1653.9 19.0 1653.9 18.9 1654.1 18.9 C 1654.1 18.9 1654.1 18.9 1654.1 18.9 Z M 1652.9 65.7 C 1652.5 65.7 1652.8 65.8 1653.2 65.8 C 1653.2 65.7 1653.5 65.4 1654.0 65.6 C 1652.9 65.7 1654.3 65.8 1653.7 65.9 C 1653.5 65.8 1652.8 66.0 1652.3 65.9 C 1652.1 65.8 1652.6 65.5 1652.9 65.7 C 1652.9 65.7 1652.9 65.7 1652.9 65.7 Z M 1654.8 65.8 C 1654.7 65.8 1654.6 65.7 1654.2 65.8 C 1654.6 65.6 1654.1 65.6 1654.5 65.5 C 1654.5 65.6 1655.9 65.6 1655.1 65.7 C 1654.3 65.6 1655.3 65.8 1655.6 65.8 C 1655.2 65.8 1654.6 66.0 1654.5 65.9 C 1654.7 65.9 1654.9 65.9 1654.8 65.8 C 1654.8 65.8 1654.8 65.8 1654.8 65.8 Z M 1672.4 65.6 C 1672.5 65.5 1672.0 65.5 1671.8 65.4 C 1673.2 65.4 1674.4 65.4 1675.1 65.5 C 1674.5 65.5 1674.5 65.6 1674.9 65.7 C 1674.2 65.6 1674.1 65.7 1673.8 65.6 C 1674.3 65.5 1673.3 65.6 1672.4 65.6 C 1672.4 65.6 1672.4 65.6 1672.4 65.6 Z M 1672.4 65.6 " fill="#000000"></path><g><clipPath id="clip0x608021caaec0"><path d="M 1651.0 16.9 L 1752.9 16.9 L 1752.9 67.9 L 1651.0 67.9 Z M 1651.0 16.9 "></path></clipPath><g clip-path="url(#clip0x608021caaec0)"><text xml:space="preserve" font-family="Helvetica-Light,Helvetica" font-size="30.0" fill="#000000" transform="matrix(1.00, 0.00, -0.00, -1.00, 1685.3, 31.3)">3</text><text xml:space="preserve" font-family="Helvetica-Light,Helvetica" font-size="30.0" fill="#000000" transform="matrix(1.00, 0.00, -0.00, -1.00, 1702.0, 31.3)">1</text></g></g></g></svg>